NimbusSanL-ReguItal.ufo
<glyph name="exclam" format="1">
  <advance width="278"/>
  <unicode hex="0021"/>
  <outline>
    <contour>
      <point x="363" y="729" type="line"/>
      <point x="279" y="729" type="line"/>
      <point x="205" y="379" type="line"/>
      <point x="182" y="168" type="line"/>
      <point x="222" y="168" type="line"/>
      <point x="289" y="379" type="line"/>
    </contour>
    <contour>
      <point x="230" y="103" type="line"/>
      <point x="146" y="103" type="line"/>
      <point x="124" y="0" type="line"/>
      <point x="208" y="0" type="line"/>
    </contour>
  </outline>
</glyph>
<glyph name="quotedbl" format="1">
  <advance width="355"/>
  <unicode hex="0022"/>
  <outline>
    <contour>
      <point x="202" y="709" type="line"/>
      <point x="178" y="598" type="line"/>
      <point x="177" y="464" type="line"/>
      <point x="217" y="464" type="line"/>
      <point x="272" y="598" type="line"/>
      <point x="296" y="709" type="line"/>
    </contour>
    <contour>
      <point x="361" y="709" type="line"/>
      <point x="337" y="598" type="line"/>
      <point x="336" y="464" type="line"/>
      <point x="376" y="464" type="line"/>
      <point x="431" y="598" type="line"/>
      <point x="455" y="709" type="line"/>
    </contour>
  </outline>
</glyph>
<glyph name="numbersign" format="1">
  <advance width="556"/>
  <unicode hex="0023"/>
  <outline>
    <contour>
      <point x="632" y="697" type="line"/>
      <point x="556" y="697" type="line"/>
      <point x="479" y="503" type="line"/>
      <point x="355" y="503" type="line"/>
      <point x="431" y="697" type="line"/>
      <point x="355" y="697" type="line"/>
      <point x="278" y="503" type="line"/>
      <point x="157" y="503" type="line"/>
      <point x="144" y="439" type="line"/>
      <point x="253" y="439" type="line"/>
      <point x="180" y="255" type="line"/>
      <point x="68" y="255" type="line"/>
      <point x="54" y="191" type="line"/>
      <point x="155" y="191" type="line"/>
      <point x="72" y="-20" type="line"/>
      <point x="148" y="-20" type="line"/>
      <point x="231" y="191" type="line"/>
      <point x="356" y="191" type="line"/>
      <point x="273" y="-20" type="line"/>
      <point x="349" y="-20" type="line"/>
      <point x="432" y="191" type="line"/>
      <point x="550" y="191" type="line"/>
      <point x="564" y="255" type="line"/>
      <point x="457" y="255" type="line"/>
      <point x="530" y="439" type="line"/>
      <point x="635" y="439" type="line"/>
      <point x="649" y="503" type="line"/>
      <point x="555" y="503" type="line"/>
    </contour>
    <contour>
      <point x="454" y="439" type="line"/>
      <point x="381" y="255" type="line"/>
      <point x="256" y="255" type="line"/>
      <point x="330" y="439" type="line"/>
    </contour>
  </outline>
</glyph>
<glyph name="dollar" format="1">
  <advance width="556"/>
  <unicode hex="0024"/>
  <outline>
    <contour>
      <point x="407" y="770" type="line"/>
      <point x="396" y="716" type="line"/>
      <point x="328" y="711"/>
      <point x="267" y="687"/>
      <point x="227" y="650" type="curve" smooth="yes"/>
      <point x="182" y="609"/>
      <point x="152" y="535"/>
      <point x="152" y="469" type="curve" smooth="yes"/>
      <point x="152" y="429"/>
      <point x="167" y="396"/>
      <point x="197" y="370" type="curve" smooth="yes"/>
      <point x="218" y="352"/>
      <point x="239" y="343"/>
      <point x="311" y="318" type="curve"/>
      <point x="253" y="46" type="line"/>
      <point x="180" y="67"/>
      <point x="152" y="95"/>
      <point x="152" y="150" type="curve" smooth="yes"/>
      <point x="152" y="159"/>
      <point x="153" y="178"/>
      <point x="155" y="197" type="curve" smooth="yes"/>
      <point x="156" y="208" type="line"/>
      <point x="77" y="208" type="line"/>
      <point x="71" y="174"/>
      <point x="69" y="157"/>
      <point x="69" y="134" type="curve" smooth="yes"/>
      <point x="69" y="43"/>
      <point x="122" y="-5"/>
      <point x="239" y="-23" type="curve"/>
      <point x="217" y="-126" type="line"/>
      <point x="276" y="-126" type="line"/>
      <point x="298" y="-23" type="line"/>
      <point x="371" y="-21"/>
      <point x="437" y="3"/>
      <point x="481" y="43" type="curve" smooth="yes"/>
      <point x="532" y="88"/>
      <point x="565" y="168"/>
      <point x="565" y="243" type="curve" smooth="yes"/>
      <point x="565" y="291"/>
      <point x="548" y="322"/>
      <point x="508" y="349" type="curve" smooth="yes"/>
      <point x="484" y="365"/>
      <point x="469" y="372"/>
      <point x="387" y="397" type="curve"/>
      <point x="440" y="646" type="line"/>
      <point x="495" y="643"/>
      <point x="530" y="607"/>
      <point x="530" y="555" type="curve" smooth="yes"/>
      <point x="530" y="551"/>
      <point x="530" y="543"/>
      <point x="529" y="534" type="curve" smooth="yes"/>
      <point x="528" y="519" type="line"/>
      <point x="607" y="519" type="line"/>
      <point x="612" y="539"/>
      <point x="613" y="549"/>
      <point x="613" y="565" type="curve" smooth="yes"/>
      <point x="613" y="655"/>
      <point x="555" y="711"/>
      <point x="455" y="716" type="curve"/>
      <point x="466" y="770" type="line"/>
    </contour>
    <contour>
      <point x="330" y="405" type="line"/>
      <point x="261" y="426"/>
      <point x="235" y="452"/>
      <point x="235" y="501" type="curve" smooth="yes"/>
      <point x="235" y="536"/>
      <point x="253" y="577"/>
      <point x="279" y="602" type="curve" smooth="yes"/>
      <point x="305" y="627"/>
      <point x="339" y="642"/>
      <point x="381" y="645" type="curve"/>
    </contour>
    <contour>
      <point x="368" y="309" type="line"/>
      <point x="449" y="285"/>
      <point x="477" y="259"/>
      <point x="477" y="211" type="curve" smooth="yes"/>
      <point x="477" y="114"/>
      <point x="417" y="54"/>
      <point x="312" y="46" type="curve"/>
    </contour>
  </outline>
</glyph>
<glyph name="percent" format="1">
  <advance width="889"/>
  <unicode hex="0025"/>
  <outline>
    <contour>
      <point x="759" y="709" type="line"/>
      <point x="209" y="-20" type="line"/>
      <point x="275" y="-20" type="line"/>
      <point x="825" y="709" type="line"/>
    </contour>
    <contour>
      <point x="345" y="682" type="curve" smooth="yes"/>
      <point x="237" y="682"/>
      <point x="134" y="583"/>
      <point x="134" y="478" type="curve" smooth="yes"/>
      <point x="134" y="402"/>
      <point x="192" y="346"/>
      <point x="270" y="346" type="curve" smooth="yes"/>
      <point x="382" y="346"/>
      <point x="483" y="444"/>
      <point x="483" y="552" type="curve" smooth="yes"/>
      <point x="483" y="625"/>
      <point x="423" y="682"/>
    </contour>
    <contour>
      <point x="329" y="616" type="curve" smooth="yes"/>
      <point x="379" y="616"/>
      <point x="413" y="583"/>
      <point x="413" y="534" type="curve" smooth="yes"/>
      <point x="413" y="472"/>
      <point x="351" y="412"/>
      <point x="286" y="412" type="curve" smooth="yes"/>
      <point x="239" y="412"/>
      <point x="204" y="447"/>
      <point x="204" y="494" type="curve" smooth="yes"/>
      <point x="204" y="557"/>
      <point x="265" y="616"/>
    </contour>
    <contour>
      <point x="757" y="320" type="curve" smooth="yes"/>
      <point x="649" y="320"/>
      <point x="546" y="221"/>
      <point x="546" y="116" type="curve" smooth="yes"/>
      <point x="546" y="40"/>
      <point x="604" y="-16"/>
      <point x="682" y="-16" type="curve" smooth="yes"/>
      <point x="794" y="-16"/>
      <point x="895" y="82"/>
      <point x="895" y="190" type="curve" smooth="yes"/>
      <point x="895" y="263"/>
      <point x="835" y="320"/>
    </contour>
    <contour>
      <point x="741" y="254" type="curve" smooth="yes"/>
      <point x="791" y="254"/>
      <point x="825" y="221"/>
      <point x="825" y="172" type="curve" smooth="yes"/>
      <point x="825" y="110"/>
      <point x="763" y="50"/>
      <point x="698" y="50" type="curve" smooth="yes"/>
      <point x="651" y="50"/>
      <point x="616" y="85"/>
      <point x="616" y="132" type="curve" smooth="yes"/>
      <point x="616" y="195"/>
      <point x="677" y="254"/>
    </contour>
  </outline>
</glyph>
<glyph name="ampersand" format="1">
  <advance width="667"/>
  <unicode hex="0026"/>
  <outline>
    <contour>
      <point x="565" y="334" type="line"/>
      <point x="553" y="285"/>
      <point x="537" y="252"/>
      <point x="505" y="215" type="curve"/>
      <point x="407" y="378" type="line"/>
      <point x="531" y="434"/>
      <point x="588" y="500"/>
      <point x="588" y="587" type="curve" smooth="yes"/>
      <point x="588" y="662"/>
      <point x="536" y="709"/>
      <point x="455" y="709" type="curve" smooth="yes"/>
      <point x="346" y="709"/>
      <point x="247" y="620"/>
      <point x="247" y="523" type="curve" smooth="yes"/>
      <point x="247" y="500"/>
      <point x="252" y="477"/>
      <point x="261" y="455" type="curve" smooth="yes"/>
      <point x="279" y="413" type="line"/>
      <point x="281" y="409"/>
      <point x="284" y="401"/>
      <point x="288" y="390" type="curve"/>
      <point x="249" y="368"/>
      <point x="221" y="350"/>
      <point x="195" y="332" type="curve" smooth="yes"/>
      <point x="120" y="277"/>
      <point x="83" y="209"/>
      <point x="83" y="128" type="curve" smooth="yes"/>
      <point x="83" y="35"/>
      <point x="148" y="-23"/>
      <point x="253" y="-23" type="curve" smooth="yes"/>
      <point x="333" y="-23"/>
      <point x="391" y="3"/>
      <point x="482" y="78" type="curve"/>
      <point x="528" y="0" type="line"/>
      <point x="634" y="0" type="line"/>
      <point x="544" y="151" type="line"/>
      <point x="593" y="202"/>
      <point x="632" y="273"/>
      <point x="644" y="334" type="curve"/>
    </contour>
    <contour>
      <point x="377" y="434" type="curve"/>
      <point x="336" y="492"/>
      <point x="330" y="505"/>
      <point x="330" y="533" type="curve" smooth="yes"/>
      <point x="330" y="592"/>
      <point x="377" y="639"/>
      <point x="436" y="639" type="curve" smooth="yes"/>
      <point x="479" y="639"/>
      <point x="505" y="614"/>
      <point x="505" y="574" type="curve" smooth="yes"/>
      <point x="505" y="519"/>
      <point x="469" y="480"/>
    </contour>
    <contour>
      <point x="448" y="137" type="line"/>
      <point x="375" y="76"/>
      <point x="329" y="54"/>
      <point x="280" y="54" type="curve" smooth="yes"/>
      <point x="213" y="54"/>
      <point x="171" y="94"/>
      <point x="171" y="159" type="curve" smooth="yes"/>
      <point x="171" y="224"/>
      <point x="217" y="276"/>
      <point x="329" y="336" type="curve"/>
    </contour>
  </outline>
</glyph>
<glyph name="quotesingle" format="1">
  <advance width="191"/>
  <unicode hex="0027"/>
  <outline>
    <contour>
      <point x="198" y="709" type="line"/>
      <point x="174" y="598" type="line"/>
      <point x="173" y="464" type="line"/>
      <point x="213" y="464" type="line"/>
      <point x="268" y="598" type="line"/>
      <point x="292" y="709" type="line"/>
    </contour>
  </outline>
</glyph>
<glyph name="parenleft" format="1">
  <advance width="333"/>
  <unicode hex="0028"/>
  <outline>
    <contour>
      <point x="391" y="729" type="line"/>
      <point x="217" y="547"/>
      <point x="113" y="319"/>
      <point x="113" y="116" type="curve" smooth="yes"/>
      <point x="113" y="-3"/>
      <point x="142" y="-127"/>
      <point x="191" y="-213" type="curve"/>
      <point x="246" y="-213" type="line"/>
      <point x="209" y="-117"/>
      <point x="191" y="-23"/>
      <point x="191" y="79" type="curve" smooth="yes"/>
      <point x="191" y="301"/>
      <point x="278" y="523"/>
      <point x="446" y="729" type="curve"/>
    </contour>
  </outline>
</glyph>
<glyph name="parenright" format="1">
  <advance width="333"/>
  <unicode hex="0029"/>
  <outline>
    <contour>
      <point x="48" y="-213" type="line"/>
      <point x="111" y="-147"/>
      <point x="170" y="-68"/>
      <point x="216" y="15" type="curve" smooth="yes"/>
      <point x="290" y="148"/>
      <point x="325" y="275"/>
      <point x="325" y="407" type="curve" smooth="yes"/>
      <point x="325" y="520"/>
      <point x="295" y="646"/>
      <point x="248" y="729" type="curve"/>
      <point x="193" y="729" type="line"/>
      <point x="231" y="632"/>
      <point x="248" y="538"/>
      <point x="248" y="431" type="curve" smooth="yes"/>
      <point x="248" y="215"/>
      <point x="159" y="-10"/>
      <point x="-7" y="-213" type="curve"/>
    </contour>
  </outline>
</glyph>
<glyph name="asterisk" format="1">
  <advance width="389"/>
  <unicode hex="002A"/>
  <outline>
    <contour>
      <point x="319" y="729" type="line"/>
      <point x="299" y="617" type="line"/>
      <point x="199" y="657" type="line"/>
      <point x="169" y="598" type="line"/>
      <point x="273" y="567" type="line"/>
      <point x="181" y="479" type="line"/>
      <point x="228" y="439" type="line"/>
      <point x="309" y="534" type="line"/>
      <point x="353" y="438" type="line"/>
      <point x="411" y="475" type="line"/>
      <point x="358" y="566" type="line"/>
      <point x="471" y="593" type="line"/>
      <point x="462" y="655" type="line"/>
      <point x="352" y="617" type="line"/>
      <point x="381" y="729" type="line"/>
    </contour>
  </outline>
</glyph>
<glyph name="plus" format="1">
  <advance width="584"/>
  <unicode hex="002B"/>
  <outline>
    <contour>
      <point x="591" y="269" type="line"/>
      <point x="384" y="269" type="line"/>
      <point x="428" y="473" type="line"/>
      <point x="358" y="473" type="line"/>
      <point x="314" y="269" type="line"/>
      <point x="107" y="269" type="line"/>
      <point x="92" y="197" type="line"/>
      <point x="299" y="197" type="line"/>
      <point x="255" y="-11" type="line"/>
      <point x="325" y="-11" type="line"/>
      <point x="369" y="197" type="line"/>
      <point x="576" y="197" type="line"/>
    </contour>
  </outline>
</glyph>
<glyph name="comma" format="1">
  <advance width="278"/>
  <unicode hex="002C"/>
  <outline>
    <contour>
      <point x="109" y="103" type="line"/>
      <point x="87" y="0" type="line"/>
      <point x="146" y="0" type="line"/>
      <point x="132" y="-82"/>
      <point x="111" y="-109"/>
      <point x="63" y="-109" type="curve"/>
      <point x="55" y="-147" type="line"/>
      <point x="121" y="-150"/>
      <point x="171" y="-101"/>
      <point x="188" y="-16" type="curve" smooth="yes"/>
      <point x="214" y="103" type="line"/>
    </contour>
  </outline>
</glyph>
<glyph name="hyphen" format="1">
  <advance width="333"/>
  <unicode hex="002D"/>
  <outline>
    <contour>
      <point x="351" y="312" type="line"/>
      <point x="112" y="312" type="line"/>
      <point x="97" y="240" type="line"/>
      <point x="336" y="240" type="line"/>
    </contour>
  </outline>
</glyph>
<glyph name="slash" format="1">
  <advance width="278"/>
  <unicode hex="002F"/>
  <outline>
    <contour>
      <point x="379" y="729" type="line"/>
      <point x="-12" y="-20" type="line"/>
      <point x="43" y="-20" type="line"/>
      <point x="434" y="729" type="line"/>
    </contour>
  </outline>
</glyph>
<glyph name="zero" format="1">
  <advance width="556"/>
  <unicode hex="0030"/>
  <outline>
    <contour>
      <point x="418" y="709" type="curve" smooth="yes"/>
      <point x="335" y="709"/>
      <point x="266" y="669"/>
      <point x="210" y="587" type="curve" smooth="yes"/>
      <point x="147" y="495"/>
      <point x="98" y="315"/>
      <point x="98" y="170" type="curve" smooth="yes"/>
      <point x="98" y="109"/>
      <point x="116" y="56"/>
      <point x="148" y="25" type="curve" smooth="yes"/>
      <point x="179" y="-5"/>
      <point x="228" y="-23"/>
      <point x="276" y="-23" type="curve" smooth="yes"/>
      <point x="362" y="-23"/>
      <point x="428" y="15"/>
      <point x="486" y="99" type="curve" smooth="yes"/>
      <point x="550" y="191"/>
      <point x="598" y="371"/>
      <point x="598" y="514" type="curve" smooth="yes"/>
      <point x="598" y="636"/>
      <point x="531" y="709"/>
    </contour>
    <contour>
      <point x="406" y="632" type="curve" smooth="yes"/>
      <point x="471" y="632"/>
      <point x="510" y="585"/>
      <point x="510" y="504" type="curve" smooth="yes"/>
      <point x="510" y="410"/>
      <point x="477" y="258"/>
      <point x="439" y="178" type="curve" smooth="yes"/>
      <point x="399" y="92"/>
      <point x="352" y="54"/>
      <point x="287" y="54" type="curve" smooth="yes"/>
      <point x="224" y="54"/>
      <point x="186" y="102"/>
      <point x="186" y="181" type="curve" smooth="yes"/>
      <point x="186" y="276"/>
      <point x="218" y="426"/>
      <point x="256" y="509" type="curve" smooth="yes"/>
      <point x="295" y="592"/>
      <point x="343" y="632"/>
    </contour>
  </outline>
</glyph>
<glyph name="one" format="1">
  <advance width="556"/>
  <unicode hex="0031"/>
  <outline>
    <contour>
      <point x="367" y="505" type="line"/>
      <point x="259" y="0" type="line"/>
      <point x="347" y="0" type="line"/>
      <point x="498" y="709" type="line"/>
      <point x="440" y="709" type="line"/>
      <point x="386" y="601"/>
      <point x="365" y="588"/>
      <point x="221" y="568" type="curve"/>
      <point x="208" y="505" type="line"/>
    </contour>
  </outline>
</glyph>
<glyph name="two" format="1">
  <advance width="556"/>
  <unicode hex="0032"/>
  <outline>
    <contour>
      <point x="524" y="87" type="line"/>
      <point x="147" y="87" type="line"/>
      <point x="164" y="136"/>
      <point x="219" y="185"/>
      <point x="310" y="230" type="curve" smooth="yes"/>
      <point x="422" y="287" type="line" smooth="yes"/>
      <point x="555" y="354"/>
      <point x="620" y="437"/>
      <point x="620" y="537" type="curve" smooth="yes"/>
      <point x="620" y="581"/>
      <point x="605" y="623"/>
      <point x="578" y="653" type="curve" smooth="yes"/>
      <point x="544" y="691"/>
      <point x="496" y="709"/>
      <point x="428" y="709" type="curve" smooth="yes"/>
      <point x="274" y="709"/>
      <point x="186" y="632"/>
      <point x="147" y="463" type="curve"/>
      <point x="235" y="463" type="line"/>
      <point x="247" y="508"/>
      <point x="259" y="538"/>
      <point x="277" y="563" type="curve" smooth="yes"/>
      <point x="308" y="607"/>
      <point x="358" y="632"/>
      <point x="416" y="632" type="curve" smooth="yes"/>
      <point x="486" y="632"/>
      <point x="532" y="589"/>
      <point x="532" y="525" type="curve" smooth="yes"/>
      <point x="532" y="461"/>
      <point x="484" y="401"/>
      <point x="401" y="359" type="curve" smooth="yes"/>
      <point x="297" y="307" type="line" smooth="yes"/>
      <point x="124" y="215"/>
      <point x="78" y="161"/>
      <point x="34" y="0" type="curve"/>
      <point x="505" y="0" type="line"/>
    </contour>
  </outline>
</glyph>
<glyph name="three" format="1">
  <advance width="556"/>
  <unicode hex="0033"/>
  <outline>
    <contour>
      <point x="290" y="325" type="line"/>
      <point x="311" y="327"/>
      <point x="321" y="327"/>
      <point x="335" y="327" type="curve" smooth="yes"/>
      <point x="418" y="327"/>
      <point x="467" y="293"/>
      <point x="467" y="236" type="curve" smooth="yes"/>
      <point x="467" y="128"/>
      <point x="389" y="54"/>
      <point x="277" y="54" type="curve" smooth="yes"/>
      <point x="206" y="54"/>
      <point x="159" y="93"/>
      <point x="159" y="154" type="curve" smooth="yes"/>
      <point x="159" y="162"/>
      <point x="160" y="177"/>
      <point x="162" y="193" type="curve" smooth="yes"/>
      <point x="164" y="206" type="line"/>
      <point x="76" y="206" type="line"/>
      <point x="72" y="176"/>
      <point x="71" y="162"/>
      <point x="71" y="144" type="curve" smooth="yes"/>
      <point x="71" y="36"/>
      <point x="139" y="-23"/>
      <point x="264" y="-23" type="curve" smooth="yes"/>
      <point x="354" y="-23"/>
      <point x="430" y="7"/>
      <point x="481" y="63" type="curve" smooth="yes"/>
      <point x="527" y="112"/>
      <point x="555" y="184"/>
      <point x="555" y="249" type="curve" smooth="yes"/>
      <point x="555" y="306"/>
      <point x="533" y="339"/>
      <point x="477" y="367" type="curve"/>
      <point x="562" y="415"/>
      <point x="599" y="474"/>
      <point x="599" y="563" type="curve" smooth="yes"/>
      <point x="599" y="651"/>
      <point x="527" y="709"/>
      <point x="417" y="709" type="curve" smooth="yes"/>
      <point x="334" y="709"/>
      <point x="264" y="679"/>
      <point x="215" y="624" type="curve" smooth="yes"/>
      <point x="186" y="590"/>
      <point x="168" y="552"/>
      <point x="149" y="480" type="curve"/>
      <point x="237" y="480" type="line"/>
      <point x="247" y="524"/>
      <point x="256" y="548"/>
      <point x="271" y="568" type="curve" smooth="yes"/>
      <point x="301" y="609"/>
      <point x="349" y="632"/>
      <point x="405" y="632" type="curve" smooth="yes"/>
      <point x="470" y="632"/>
      <point x="511" y="599"/>
      <point x="511" y="545" type="curve" smooth="yes"/>
      <point x="511" y="507"/>
      <point x="498" y="470"/>
      <point x="477" y="447" type="curve" smooth="yes"/>
      <point x="450" y="416"/>
      <point x="397" y="400"/>
      <point x="324" y="400" type="curve" smooth="yes"/>
      <point x="318" y="400" type="line"/>
      <point x="306" y="400" type="line"/>
    </contour>
  </outline>
</glyph>
<glyph name="four" format="1">
  <advance width="556"/>
  <unicode hex="0034"/>
  <outline>
    <contour>
      <point x="362" y="170" type="line"/>
      <point x="326" y="0" type="line"/>
      <point x="414" y="0" type="line"/>
      <point x="450" y="170" type="line"/>
      <point x="556" y="170" type="line"/>
      <point x="573" y="248" type="line"/>
      <point x="467" y="248" type="line"/>
      <point x="565" y="709" type="line"/>
      <point x="499" y="709" type="line"/>
      <point x="83" y="262" type="line"/>
      <point x="63" y="170" type="line"/>
    </contour>
    <contour>
      <point x="379" y="248" type="line"/>
      <point x="158" y="248" type="line"/>
      <point x="444" y="556" type="line"/>
    </contour>
  </outline>
</glyph>
<glyph name="five" format="1">
  <advance width="556"/>
  <unicode hex="0035"/>
  <outline>
    <contour>
      <point x="629" y="709" type="line"/>
      <point x="259" y="709" type="line"/>
      <point x="124" y="323" type="line"/>
      <point x="204" y="323" type="line"/>
      <point x="265" y="377"/>
      <point x="295" y="390"/>
      <point x="353" y="390" type="curve" smooth="yes"/>
      <point x="433" y="390"/>
      <point x="479" y="346"/>
      <point x="479" y="269" type="curve" smooth="yes"/>
      <point x="479" y="145"/>
      <point x="396" y="54"/>
      <point x="283" y="54" type="curve" smooth="yes"/>
      <point x="204" y="54"/>
      <point x="161" y="94"/>
      <point x="158" y="174" type="curve"/>
      <point x="70" y="174" type="line"/>
      <point x="70" y="162" type="line"/>
      <point x="70" y="152" type="line" smooth="yes"/>
      <point x="70" y="93"/>
      <point x="84" y="55"/>
      <point x="119" y="26" type="curve" smooth="yes"/>
      <point x="157" y="-6"/>
      <point x="209" y="-23"/>
      <point x="271" y="-23" type="curve" smooth="yes"/>
      <point x="364" y="-23"/>
      <point x="439" y="15"/>
      <point x="498" y="93" type="curve" smooth="yes"/>
      <point x="542" y="149"/>
      <point x="567" y="224"/>
      <point x="567" y="295" type="curve" smooth="yes"/>
      <point x="567" y="399"/>
      <point x="494" y="467"/>
      <point x="381" y="467" type="curve" smooth="yes"/>
      <point x="333" y="467"/>
      <point x="290" y="454"/>
      <point x="241" y="424" type="curve"/>
      <point x="311" y="622" type="line"/>
      <point x="611" y="622" type="line"/>
    </contour>
  </outline>
</glyph>
<glyph name="six" format="1">
  <advance width="556"/>
  <unicode hex="0036"/>
  <outline>
    <contour>
      <point x="610" y="524" type="line"/>
      <point x="611" y="535"/>
      <point x="611" y="545"/>
      <point x="611" y="551" type="curve" smooth="yes"/>
      <point x="611" y="647"/>
      <point x="542" y="709"/>
      <point x="435" y="709" type="curve" smooth="yes"/>
      <point x="341" y="709"/>
      <point x="261" y="659"/>
      <point x="198" y="560" type="curve" smooth="yes"/>
      <point x="140" y="469"/>
      <point x="93" y="292"/>
      <point x="93" y="167" type="curve" smooth="yes"/>
      <point x="93" y="51"/>
      <point x="168" y="-23"/>
      <point x="286" y="-23" type="curve" smooth="yes"/>
      <point x="371" y="-23"/>
      <point x="444" y="14"/>
      <point x="499" y="86" type="curve" smooth="yes"/>
      <point x="540" y="139"/>
      <point x="566" y="210"/>
      <point x="566" y="271" type="curve" smooth="yes"/>
      <point x="566" y="374"/>
      <point x="495" y="442"/>
      <point x="388" y="442" type="curve" smooth="yes"/>
      <point x="322" y="442"/>
      <point x="266" y="415"/>
      <point x="209" y="358" type="curve"/>
      <point x="238" y="527"/>
      <point x="320" y="632"/>
      <point x="421" y="632" type="curve" smooth="yes"/>
      <point x="444" y="632"/>
      <point x="464" y="627"/>
      <point x="481" y="616" type="curve" smooth="yes"/>
      <point x="504" y="601"/>
      <point x="512" y="589"/>
      <point x="518" y="559" type="curve" smooth="yes"/>
      <point x="523" y="530"/>
      <point x="523" y="530"/>
      <point x="523" y="529" type="curve" smooth="yes"/>
      <point x="523" y="528"/>
      <point x="523" y="526"/>
      <point x="522" y="524" type="curve"/>
    </contour>
    <contour>
      <point x="364" y="365" type="curve" smooth="yes"/>
      <point x="432" y="365"/>
      <point x="478" y="321"/>
      <point x="478" y="256" type="curve" smooth="yes"/>
      <point x="478" y="144"/>
      <point x="398" y="54"/>
      <point x="299" y="54" type="curve" smooth="yes"/>
      <point x="230" y="54"/>
      <point x="181" y="103"/>
      <point x="181" y="174" type="curve" smooth="yes"/>
      <point x="181" y="280"/>
      <point x="262" y="365"/>
    </contour>
  </outline>
</glyph>
<glyph name="seven" format="1">
  <advance width="556"/>
  <unicode hex="0037"/>
  <outline>
    <contour>
      <point x="671" y="709" type="line"/>
      <point x="196" y="709" type="line"/>
      <point x="177" y="622" type="line"/>
      <point x="560" y="622" type="line"/>
      <point x="335" y="369"/>
      <point x="227" y="211"/>
      <point x="137" y="0" type="curve"/>
      <point x="235" y="0" type="line"/>
      <point x="302" y="189"/>
      <point x="483" y="460"/>
      <point x="654" y="628" type="curve"/>
    </contour>
  </outline>
</glyph>
<glyph name="eight" format="1">
  <advance width="556"/>
  <unicode hex="0038"/>
  <outline>
    <contour>
      <point x="233" y="373" type="line"/>
      <point x="128" y="325"/>
      <point x="74" y="247"/>
      <point x="74" y="145" type="curve" smooth="yes"/>
      <point x="74" y="43"/>
      <point x="155" y="-23"/>
      <point x="281" y="-23" type="curve" smooth="yes"/>
      <point x="365" y="-23"/>
      <point x="436" y="9"/>
      <point x="492" y="72" type="curve" smooth="yes"/>
      <point x="535" y="120"/>
      <point x="560" y="182"/>
      <point x="560" y="239" type="curve" smooth="yes"/>
      <point x="560" y="297"/>
      <point x="533" y="341"/>
      <point x="477" y="373" type="curve"/>
      <point x="485" y="378"/>
      <point x="490" y="381"/>
      <point x="493" y="383" type="curve" smooth="yes"/>
      <point x="534" y="408"/>
      <point x="544" y="416"/>
      <point x="560" y="436" type="curve" smooth="yes"/>
      <point x="587" y="470"/>
      <point x="604" y="518"/>
      <point x="604" y="561" type="curve" smooth="yes"/>
      <point x="604" y="596"/>
      <point x="590" y="631"/>
      <point x="566" y="657" type="curve" smooth="yes"/>
      <point x="533" y="692"/>
      <point x="485" y="709"/>
      <point x="421" y="709" type="curve" smooth="yes"/>
      <point x="344" y="709"/>
      <point x="285" y="685"/>
      <point x="234" y="632" type="curve" smooth="yes"/>
      <point x="192" y="590"/>
      <point x="169" y="535"/>
      <point x="169" y="480" type="curve" smooth="yes"/>
      <point x="169" y="436"/>
      <point x="179" y="417"/>
      <point x="221" y="383" type="curve" smooth="yes"/>
    </contour>
    <contour>
      <point x="407" y="632" type="curve" smooth="yes"/>
      <point x="475" y="632"/>
      <point x="516" y="599"/>
      <point x="516" y="545" type="curve" smooth="yes"/>
      <point x="516" y="516"/>
      <point x="503" y="482"/>
      <point x="483" y="458" type="curve" smooth="yes"/>
      <point x="455" y="424"/>
      <point x="416" y="408"/>
      <point x="364" y="408" type="curve" smooth="yes"/>
      <point x="297" y="408"/>
      <point x="257" y="439"/>
      <point x="257" y="491" type="curve" smooth="yes"/>
      <point x="257" y="573"/>
      <point x="320" y="632"/>
    </contour>
    <contour>
      <point x="344" y="334" type="curve" smooth="yes"/>
      <point x="422" y="334"/>
      <point x="472" y="292"/>
      <point x="472" y="226" type="curve" smooth="yes"/>
      <point x="472" y="129"/>
      <point x="392" y="54"/>
      <point x="287" y="54" type="curve" smooth="yes"/>
      <point x="213" y="54"/>
      <point x="162" y="97"/>
      <point x="162" y="160" type="curve" smooth="yes"/>
      <point x="162" y="257"/>
      <point x="243" y="334"/>
    </contour>
  </outline>
</glyph>
<glyph name="nine" format="1">
  <advance width="556"/>
  <unicode hex="0039"/>
  <outline>
    <contour>
      <point x="84" y="162" type="line"/>
      <point x="83" y="151"/>
      <point x="83" y="141"/>
      <point x="83" y="135" type="curve" smooth="yes"/>
      <point x="83" y="39"/>
      <point x="152" y="-23"/>
      <point x="258" y="-23" type="curve" smooth="yes"/>
      <point x="319" y="-23"/>
      <point x="376" y="-1"/>
      <point x="428" y="43" type="curve" smooth="yes"/>
      <point x="493" y="97"/>
      <point x="529" y="161"/>
      <point x="557" y="266" type="curve" smooth="yes"/>
      <point x="582" y="359"/>
      <point x="599" y="464"/>
      <point x="599" y="525" type="curve" smooth="yes"/>
      <point x="599" y="572"/>
      <point x="581" y="621"/>
      <point x="551" y="654" type="curve" smooth="yes"/>
      <point x="517" y="690"/>
      <point x="466" y="709"/>
      <point x="404" y="709" type="curve" smooth="yes"/>
      <point x="314" y="709"/>
      <point x="240" y="671"/>
      <point x="190" y="600" type="curve" smooth="yes"/>
      <point x="148" y="540"/>
      <point x="126" y="476"/>
      <point x="126" y="417" type="curve" smooth="yes"/>
      <point x="126" y="311"/>
      <point x="195" y="244"/>
      <point x="303" y="244" type="curve" smooth="yes"/>
      <point x="346" y="244"/>
      <point x="393" y="257"/>
      <point x="425" y="279" type="curve" smooth="yes"/>
      <point x="438" y="288"/>
      <point x="451" y="299"/>
      <point x="481" y="324" type="curve"/>
      <point x="441" y="144"/>
      <point x="371" y="54"/>
      <point x="270" y="54" type="curve" smooth="yes"/>
      <point x="206" y="54"/>
      <point x="171" y="93"/>
      <point x="171" y="162" type="curve"/>
    </contour>
    <contour>
      <point x="392" y="632" type="curve" smooth="yes"/>
      <point x="460" y="632"/>
      <point x="511" y="581"/>
      <point x="511" y="514" type="curve" smooth="yes"/>
      <point x="511" y="408"/>
      <point x="428" y="321"/>
      <point x="327" y="321" type="curve" smooth="yes"/>
      <point x="256" y="321"/>
      <point x="214" y="364"/>
      <point x="214" y="436" type="curve" smooth="yes"/>
      <point x="214" y="543"/>
      <point x="295" y="632"/>
    </contour>
  </outline>
</glyph>
<glyph name="colon" format="1">
  <advance width="278"/>
  <unicode hex="003A"/>
  <outline>
    <contour>
      <point x="236" y="103" type="line"/>
      <point x="132" y="103" type="line"/>
      <point x="110" y="0" type="line"/>
      <point x="214" y="0" type="line"/>
    </contour>
    <contour>
      <point x="326" y="524" type="line"/>
      <point x="222" y="524" type="line"/>
      <point x="200" y="421" type="line"/>
      <point x="304" y="421" type="line"/>
    </contour>
  </outline>
</glyph>
<glyph name="semicolon" format="1">
  <advance width="278"/>
  <unicode hex="003B"/>
  <outline>
    <contour>
      <point x="325" y="524" type="line"/>
      <point x="221" y="524" type="line"/>
      <point x="199" y="421" type="line"/>
      <point x="303" y="421" type="line"/>
    </contour>
    <contour>
      <point x="132" y="103" type="line"/>
      <point x="110" y="0" type="line"/>
      <point x="169" y="0" type="line"/>
      <point x="155" y="-82"/>
      <point x="134" y="-109"/>
      <point x="86" y="-109" type="curve"/>
      <point x="78" y="-147" type="line"/>
      <point x="144" y="-150"/>
      <point x="194" y="-101"/>
      <point x="211" y="-16" type="curve" smooth="yes"/>
      <point x="237" y="103" type="line"/>
    </contour>
  </outline>
</glyph>
<glyph name="less" format="1">
  <advance width="584"/>
  <unicode hex="003C"/>
  <outline>
    <contour>
      <point x="87" y="198" type="line"/>
      <point x="532" y="-9" type="line"/>
      <point x="549" y="68" type="line"/>
      <point x="196" y="231" type="line"/>
      <point x="618" y="395" type="line"/>
      <point x="635" y="474" type="line"/>
      <point x="102" y="267" type="line"/>
    </contour>
  </outline>
</glyph>
<glyph name="equal" format="1">
  <advance width="584"/>
  <unicode hex="003D"/>
  <outline>
    <contour>
      <point x="609" y="355" type="line"/>
      <point x="125" y="355" type="line"/>
      <point x="111" y="283" type="line"/>
      <point x="594" y="283" type="line"/>
    </contour>
    <contour>
      <point x="572" y="183" type="line"/>
      <point x="89" y="183" type="line"/>
      <point x="74" y="111" type="line"/>
      <point x="558" y="111" type="line"/>
    </contour>
  </outline>
</glyph>
<glyph name="greater" format="1">
  <advance width="584"/>
  <unicode hex="003E"/>
  <outline>
    <contour>
      <point x="596" y="267" type="line"/>
      <point x="151" y="474" type="line"/>
      <point x="134" y="397" type="line"/>
      <point x="487" y="234" type="line"/>
      <point x="65" y="70" type="line"/>
      <point x="48" y="-9" type="line"/>
      <point x="581" y="198" type="line"/>
    </contour>
  </outline>
</glyph>
<glyph name="question" format="1">
  <advance width="556"/>
  <unicode hex="003F"/>
  <outline>
    <contour>
      <point x="371" y="199" type="line"/>
      <point x="381" y="246" type="line"/>
      <point x="395" y="296"/>
      <point x="411" y="315"/>
      <point x="485" y="370" type="curve" smooth="yes"/>
      <point x="588" y="448"/>
      <point x="630" y="513"/>
      <point x="630" y="590" type="curve" smooth="yes"/>
      <point x="630" y="635"/>
      <point x="608" y="679"/>
      <point x="572" y="707" type="curve" smooth="yes"/>
      <point x="543" y="730"/>
      <point x="501" y="741"/>
      <point x="449" y="741" type="curve" smooth="yes"/>
      <point x="305" y="741"/>
      <point x="215" y="661"/>
      <point x="184" y="507" type="curve"/>
      <point x="269" y="507" type="line"/>
      <point x="291" y="616"/>
      <point x="339" y="664"/>
      <point x="427" y="664" type="curve" smooth="yes"/>
      <point x="490" y="664"/>
      <point x="534" y="629"/>
      <point x="534" y="578" type="curve" smooth="yes"/>
      <point x="534" y="521"/>
      <point x="506" y="479"/>
      <point x="429" y="417" type="curve" smooth="yes"/>
      <point x="322" y="333"/>
      <point x="307" y="315"/>
      <point x="293" y="254" type="curve" smooth="yes"/>
      <point x="281" y="199" type="line"/>
    </contour>
    <contour>
      <point x="351" y="103" type="line"/>
      <point x="261" y="103" type="line"/>
      <point x="239" y="0" type="line"/>
      <point x="329" y="0" type="line"/>
    </contour>
  </outline>
</glyph>
<glyph name="at" format="1">
  <advance width="1015"/>
  <unicode hex="0040"/>
  <outline>
    <contour>
      <point x="771" y="501" type="line"/>
      <point x="735" y="435" type="line"/>
      <point x="723" y="494"/>
      <point x="685" y="524"/>
      <point x="626" y="524" type="curve" smooth="yes"/>
      <point x="477" y="524"/>
      <point x="310" y="353"/>
      <point x="310" y="201" type="curve" smooth="yes"/>
      <point x="310" y="117"/>
      <point x="364" y="62"/>
      <point x="445" y="62" type="curve" smooth="yes"/>
      <point x="492" y="62"/>
      <point x="529" y="78"/>
      <point x="582" y="122" type="curve"/>
      <point x="584" y="124"/>
      <point x="590" y="129"/>
      <point x="597" y="134" type="curve"/>
      <point x="597" y="125" type="line"/>
      <point x="597" y="120" type="line" smooth="yes"/>
      <point x="597" y="104"/>
      <point x="609" y="82"/>
      <point x="623" y="73" type="curve" smooth="yes"/>
      <point x="638" y="63"/>
      <point x="665" y="57"/>
      <point x="696" y="57" type="curve" smooth="yes"/>
      <point x="788" y="57"/>
      <point x="898" y="114"/>
      <point x="959" y="193" type="curve" smooth="yes"/>
      <point x="1006" y="253"/>
      <point x="1036" y="348"/>
      <point x="1036" y="434" type="curve" smooth="yes"/>
      <point x="1036" y="611"/>
      <point x="886" y="741"/>
      <point x="681" y="741" type="curve" smooth="yes"/>
      <point x="523" y="741"/>
      <point x="363" y="674"/>
      <point x="252" y="563" type="curve" smooth="yes"/>
      <point x="144" y="454"/>
      <point x="80" y="313"/>
      <point x="80" y="182" type="curve" smooth="yes"/>
      <point x="80" y="104"/>
      <point x="104" y="38"/>
      <point x="153" y="-17" type="curve" smooth="yes"/>
      <point x="224" y="-96"/>
      <point x="332" y="-142"/>
      <point x="447" y="-142" type="curve" smooth="yes"/>
      <point x="528" y="-142"/>
      <point x="618" y="-127"/>
      <point x="692" y="-100" type="curve"/>
      <point x="679" y="-33" type="line"/>
      <point x="591" y="-56"/>
      <point x="536" y="-65"/>
      <point x="475" y="-65" type="curve" smooth="yes"/>
      <point x="292" y="-65"/>
      <point x="168" y="40"/>
      <point x="168" y="196" type="curve" smooth="yes"/>
      <point x="168" y="431"/>
      <point x="413" y="664"/>
      <point x="660" y="664" type="curve" smooth="yes"/>
      <point x="829" y="664"/>
      <point x="953" y="558"/>
      <point x="953" y="414" type="curve" smooth="yes"/>
      <point x="953" y="280"/>
      <point x="830" y="127"/>
      <point x="721" y="127" type="curve" smooth="yes"/>
      <point x="699" y="127"/>
      <point x="680" y="144"/>
      <point x="680" y="163" type="curve" smooth="yes"/>
      <point x="680" y="172"/>
      <point x="687" y="189"/>
      <point x="704" y="221" type="curve" smooth="yes"/>
      <point x="853" y="501" type="line"/>
    </contour>
    <contour>
      <point x="614" y="455" type="curve" smooth="yes"/>
      <point x="658" y="455"/>
      <point x="682" y="432"/>
      <point x="682" y="390" type="curve" smooth="yes"/>
      <point x="682" y="346"/>
      <point x="651" y="271"/>
      <point x="608" y="211" type="curve" smooth="yes"/>
      <point x="569" y="155"/>
      <point x="522" y="124"/>
      <point x="478" y="124" type="curve" smooth="yes"/>
      <point x="434" y="124"/>
      <point x="402" y="160"/>
      <point x="402" y="210" type="curve" smooth="yes"/>
      <point x="402" y="260"/>
      <point x="430" y="326"/>
      <point x="473" y="376" type="curve" smooth="yes"/>
      <point x="516" y="427"/>
      <point x="566" y="455"/>
    </contour>
  </outline>
</glyph>
<glyph name="B" format="1">
  <advance width="667"/>
  <unicode hex="0042"/>
  <outline>
    <contour>
      <point x="79" y="0" type="line"/>
      <point x="409" y="0" type="line" smooth="yes"/>
      <point x="491" y="0"/>
      <point x="554" y="28"/>
      <point x="607" y="87" type="curve" smooth="yes"/>
      <point x="650" y="134"/>
      <point x="672" y="193"/>
      <point x="672" y="258" type="curve" smooth="yes"/>
      <point x="672" y="319"/>
      <point x="645" y="354"/>
      <point x="575" y="384" type="curve"/>
      <point x="662" y="423"/>
      <point x="711" y="495"/>
      <point x="711" y="584" type="curve" smooth="yes"/>
      <point x="711" y="622"/>
      <point x="700" y="651"/>
      <point x="675" y="678" type="curve" smooth="yes"/>
      <point x="641" y="714"/>
      <point x="599" y="729"/>
      <point x="530" y="729" type="curve" smooth="yes"/>
      <point x="234" y="729" type="line"/>
    </contour>
    <contour>
      <point x="261" y="415" type="line"/>
      <point x="311" y="647" type="line"/>
      <point x="491" y="647" type="line" smooth="yes"/>
      <point x="576" y="647"/>
      <point x="615" y="620"/>
      <point x="615" y="561" type="curve" smooth="yes"/>
      <point x="615" y="524"/>
      <point x="601" y="487"/>
      <point x="577" y="461" type="curve" smooth="yes"/>
      <point x="547" y="429"/>
      <point x="507" y="415"/>
      <point x="441" y="415" type="curve" smooth="yes"/>
    </contour>
    <contour>
      <point x="190" y="82" type="line"/>
      <point x="244" y="333" type="line"/>
      <point x="470" y="333" type="line" smooth="yes"/>
      <point x="539" y="333"/>
      <point x="576" y="301"/>
      <point x="576" y="242" type="curve" smooth="yes"/>
      <point x="576" y="204"/>
      <point x="564" y="169"/>
      <point x="542" y="139" type="curve" smooth="yes"/>
      <point x="511" y="99"/>
      <point x="473" y="82"/>
      <point x="417" y="82" type="curve" smooth="yes"/>
    </contour>
  </outline>
</glyph>
<glyph name="F" format="1">
  <advance width="611"/>
  <unicode hex="0046"/>
  <outline>
    <contour>
      <point x="255" y="332" type="line"/>
      <point x="602" y="332" type="line"/>
      <point x="619" y="414" type="line"/>
      <point x="272" y="414" type="line"/>
      <point x="322" y="647" type="line"/>
      <point x="717" y="647" type="line"/>
      <point x="734" y="729" type="line"/>
      <point x="245" y="729" type="line"/>
      <point x="90" y="0" type="line"/>
      <point x="184" y="0" type="line"/>
    </contour>
  </outline>
</glyph>
<glyph name="J" format="1">
  <advance width="500"/>
  <unicode hex="004A"/>
  <outline>
    <contour>
      <point x="487" y="729" type="line"/>
      <point x="378" y="216" type="line" smooth="yes"/>
      <point x="366" y="160"/>
      <point x="353" y="127"/>
      <point x="331" y="102" type="curve" smooth="yes"/>
      <point x="307" y="75"/>
      <point x="270" y="58"/>
      <point x="233" y="58" type="curve" smooth="yes"/>
      <point x="179" y="58"/>
      <point x="143" y="89"/>
      <point x="143" y="134" type="curve" smooth="yes"/>
      <point x="143" y="145"/>
      <point x="144" y="156"/>
      <point x="147" y="168" type="curve" smooth="yes"/>
      <point x="161" y="234" type="line"/>
      <point x="67" y="234" type="line"/>
      <point x="53" y="170" type="line" smooth="yes"/>
      <point x="49" y="153"/>
      <point x="47" y="136"/>
      <point x="47" y="122" type="curve" smooth="yes"/>
      <point x="47" y="79"/>
      <point x="68" y="37"/>
      <point x="102" y="9" type="curve" smooth="yes"/>
      <point x="130" y="-13"/>
      <point x="164" y="-23"/>
      <point x="213" y="-23" type="curve" smooth="yes"/>
      <point x="345" y="-23"/>
      <point x="437" y="51"/>
      <point x="465" y="182" type="curve" smooth="yes"/>
      <point x="581" y="729" type="line"/>
    </contour>
  </outline>
</glyph>
<glyph name="K" format="1">
  <advance width="667"/>
  <unicode hex="004B"/>
  <outline>
    <contour>
      <point x="226" y="249" type="line"/>
      <point x="380" y="376" type="line"/>
      <point x="548" y="0" type="line"/>
      <point x="658" y="0" type="line"/>
      <point x="452" y="431" type="line"/>
      <point x="813" y="729" type="line"/>
      <point x="693" y="729" type="line"/>
      <point x="249" y="356" type="line"/>
      <point x="328" y="729" type="line"/>
      <point x="234" y="729" type="line"/>
      <point x="79" y="0" type="line"/>
      <point x="173" y="0" type="line"/>
    </contour>
  </outline>
</glyph>
<glyph name="L" format="1">
  <advance width="556"/>
  <unicode hex="004C"/>
  <outline>
    <contour>
      <point x="329" y="729" type="line"/>
      <point x="235" y="729" type="line"/>
      <point x="80" y="0" type="line"/>
      <point x="534" y="0" type="line"/>
      <point x="551" y="82" type="line"/>
      <point x="191" y="82" type="line"/>
    </contour>
  </outline>
</glyph>
<glyph name="M" format="1">
  <advance width="833"/>
  <unicode hex="004D"/>
  <outline>
    <contour>
      <point x="467" y="0" type="line"/>
      <point x="801" y="605" type="line"/>
      <point x="672" y="0" type="line"/>
      <point x="761" y="0" type="line"/>
      <point x="916" y="729" type="line"/>
      <point x="785" y="729" type="line"/>
      <point x="439" y="102" type="line"/>
      <point x="359" y="729" type="line"/>
      <point x="230" y="729" type="line"/>
      <point x="75" y="0" type="line"/>
      <point x="164" y="0" type="line"/>
      <point x="293" y="605" type="line"/>
      <point x="370" y="0" type="line"/>
    </contour>
  </outline>
</glyph>
<glyph name="N" format="1">
  <advance width="722"/>
  <unicode hex="004E"/>
  <outline>
    <contour>
      <point x="801" y="729" type="line"/>
      <point x="712" y="729" type="line"/>
      <point x="585" y="131" type="line"/>
      <point x="335" y="729" type="line"/>
      <point x="231" y="729" type="line"/>
      <point x="76" y="0" type="line"/>
      <point x="165" y="0" type="line"/>
      <point x="291" y="591" type="line"/>
      <point x="540" y="0" type="line"/>
      <point x="646" y="0" type="line"/>
    </contour>
  </outline>
</glyph>
<glyph name="P" format="1">
  <advance width="667"/>
  <unicode hex="0050"/>
  <outline>
    <contour>
      <point x="251" y="309" type="line"/>
      <point x="479" y="309" type="line" smooth="yes"/>
      <point x="542" y="309"/>
      <point x="589" y="325"/>
      <point x="634" y="361" type="curve" smooth="yes"/>
      <point x="697" y="411"/>
      <point x="733" y="487"/>
      <point x="733" y="568" type="curve" smooth="yes"/>
      <point x="733" y="674"/>
      <point x="670" y="729"/>
      <point x="548" y="729" type="curve" smooth="yes"/>
      <point x="246" y="729" type="line"/>
      <point x="91" y="0" type="line"/>
      <point x="185" y="0" type="line"/>
    </contour>
    <contour>
      <point x="268" y="391" type="line"/>
      <point x="323" y="647" type="line"/>
      <point x="517" y="647" type="line" smooth="yes"/>
      <point x="595" y="647"/>
      <point x="637" y="613"/>
      <point x="637" y="550" type="curve" smooth="yes"/>
      <point x="637" y="515"/>
      <point x="625" y="482"/>
      <point x="602" y="452" type="curve" smooth="yes"/>
      <point x="569" y="410"/>
      <point x="526" y="391"/>
      <point x="462" y="391" type="curve" smooth="yes"/>
    </contour>
  </outline>
</glyph>
<glyph name="Q" format="1">
  <advance width="778"/>
  <unicode hex="0051"/>
  <outline>
    <contour>
      <point x="733" y="-1" type="line"/>
      <point x="655" y="76" type="line"/>
      <point x="765" y="175"/>
      <point x="828" y="312"/>
      <point x="828" y="456" type="curve" smooth="yes"/>
      <point x="828" y="539"/>
      <point x="801" y="617"/>
      <point x="755" y="664" type="curve" smooth="yes"/>
      <point x="707" y="712"/>
      <point x="626" y="741"/>
      <point x="537" y="741" type="curve" smooth="yes"/>
      <point x="448" y="741"/>
      <point x="370" y="715"/>
      <point x="301" y="664" type="curve" smooth="yes"/>
      <point x="182" y="575"/>
      <point x="104" y="417"/>
      <point x="104" y="264" type="curve" smooth="yes"/>
      <point x="104" y="84"/>
      <point x="210" y="-23"/>
      <point x="390" y="-23" type="curve" smooth="yes"/>
      <point x="467" y="-23"/>
      <point x="513" y="-11"/>
      <point x="586" y="28" type="curve"/>
      <point x="673" y="-59" type="line"/>
    </contour>
    <contour>
      <point x="524" y="205" type="line"/>
      <point x="466" y="149" type="line"/>
      <point x="528" y="87" type="line"/>
      <point x="479" y="65"/>
      <point x="450" y="58"/>
      <point x="409" y="58" type="curve" smooth="yes"/>
      <point x="278" y="58"/>
      <point x="200" y="138"/>
      <point x="200" y="272" type="curve" smooth="yes"/>
      <point x="200" y="363"/>
      <point x="232" y="461"/>
      <point x="285" y="533" type="curve" smooth="yes"/>
      <point x="342" y="613"/>
      <point x="431" y="660"/>
      <point x="525" y="660" type="curve" smooth="yes"/>
      <point x="593" y="660"/>
      <point x="656" y="633"/>
      <point x="691" y="588" type="curve" smooth="yes"/>
      <point x="718" y="553"/>
      <point x="732" y="505"/>
      <point x="732" y="446" type="curve" smooth="yes"/>
      <point x="732" y="327"/>
      <point x="685" y="216"/>
      <point x="598" y="132" type="curve"/>
    </contour>
  </outline>
</glyph>
<glyph name="R" format="1">
  <advance width="722"/>
  <unicode hex="0052"/>
  <outline>
    <contour>
      <point x="254" y="314" type="line"/>
      <point x="493" y="314" type="line" smooth="yes"/>
      <point x="558" y="314"/>
      <point x="594" y="288"/>
      <point x="594" y="239" type="curve" smooth="yes"/>
      <point x="594" y="222"/>
      <point x="591" y="201"/>
      <point x="586" y="179" type="curve" smooth="yes"/>
      <point x="562" y="79"/>
      <point x="562" y="79"/>
      <point x="562" y="47" type="curve" smooth="yes"/>
      <point x="562" y="32"/>
      <point x="563" y="21"/>
      <point x="566" y="0" type="curve"/>
      <point x="679" y="0" type="line"/>
      <point x="684" y="23" type="line"/>
      <point x="671" y="35"/>
      <point x="663" y="54"/>
      <point x="663" y="76" type="curve" smooth="yes"/>
      <point x="663" y="88"/>
      <point x="665" y="105"/>
      <point x="669" y="126" type="curve" smooth="yes"/>
      <point x="682" y="194"/>
      <point x="690" y="246"/>
      <point x="690" y="264" type="curve" smooth="yes"/>
      <point x="690" y="308"/>
      <point x="677" y="329"/>
      <point x="630" y="360" type="curve"/>
      <point x="669" y="382"/>
      <point x="685" y="393"/>
      <point x="703" y="409" type="curve" smooth="yes"/>
      <point x="743" y="446"/>
      <point x="770" y="513"/>
      <point x="770" y="575" type="curve" smooth="yes"/>
      <point x="770" y="681"/>
      <point x="712" y="729"/>
      <point x="584" y="729" type="curve" smooth="yes"/>
      <point x="248" y="729" type="line"/>
      <point x="93" y="0" type="line"/>
      <point x="187" y="0" type="line"/>
    </contour>
    <contour>
      <point x="271" y="396" type="line"/>
      <point x="325" y="647" type="line"/>
      <point x="555" y="647" type="line" smooth="yes"/>
      <point x="608" y="647"/>
      <point x="634" y="640"/>
      <point x="653" y="619" type="curve" smooth="yes"/>
      <point x="666" y="605"/>
      <point x="674" y="582"/>
      <point x="674" y="558" type="curve" smooth="yes"/>
      <point x="674" y="521"/>
      <point x="659" y="477"/>
      <point x="637" y="449" type="curve" smooth="yes"/>
      <point x="608" y="413"/>
      <point x="566" y="396"/>
      <point x="502" y="396" type="curve" smooth="yes"/>
    </contour>
  </outline>
</glyph>
<glyph name="T" format="1">
  <advance width="611"/>
  <unicode hex="0054"/>
  <outline>
    <contour>
      <point x="493" y="647" type="line"/>
      <point x="731" y="647" type="line"/>
      <point x="748" y="729" type="line"/>
      <point x="175" y="729" type="line"/>
      <point x="158" y="647" type="line"/>
      <point x="399" y="647" type="line"/>
      <point x="261" y="0" type="line"/>
      <point x="355" y="0" type="line"/>
    </contour>
  </outline>
</glyph>
<glyph name="V" format="1">
  <advance width="667"/>
  <unicode hex="0056"/>
  <outline>
    <contour>
      <point x="392" y="0" type="line"/>
      <point x="800" y="729" type="line"/>
      <point x="701" y="729" type="line"/>
      <point x="365" y="112" type="line"/>
      <point x="282" y="729" type="line"/>
      <point x="185" y="729" type="line"/>
      <point x="292" y="0" type="line"/>
    </contour>
  </outline>
</glyph>
<glyph name="W" format="1">
  <advance width="944"/>
  <unicode hex="0057"/>
  <outline>
    <contour>
      <point x="744" y="0" type="line"/>
      <point x="1084" y="729" type="line"/>
      <point x="980" y="729" type="line"/>
      <point x="717" y="137" type="line"/>
      <point x="676" y="729" type="line"/>
      <point x="580" y="729" type="line"/>
      <point x="292" y="137" type="line"/>
      <point x="277" y="729" type="line"/>
      <point x="177" y="729" type="line"/>
      <point x="209" y="0" type="line"/>
      <point x="311" y="0" type="line"/>
      <point x="601" y="592" type="line"/>
      <point x="642" y="0" type="line"/>
    </contour>
  </outline>
</glyph>
<glyph name="X" format="1">
  <advance width="667"/>
  <unicode hex="0058"/>
  <outline>
    <contour>
      <point x="471" y="374" type="line"/>
      <point x="794" y="729" type="line"/>
      <point x="680" y="729" type="line"/>
      <point x="432" y="444" type="line"/>
      <point x="307" y="729" type="line"/>
      <point x="194" y="729" type="line"/>
      <point x="361" y="374" type="line"/>
      <point x="22" y="0" type="line"/>
      <point x="137" y="0" type="line"/>
      <point x="401" y="304" type="line"/>
      <point x="535" y="0" type="line"/>
      <point x="650" y="0" type="line"/>
    </contour>
  </outline>
</glyph>
<glyph name="bracketleft" format="1">
  <advance width="278"/>
  <unicode hex="005B"/>
  <outline>
    <contour>
      <point x="405" y="729" type="line"/>
      <point x="219" y="729" type="line"/>
      <point x="19" y="-213" type="line"/>
      <point x="205" y="-213" type="line"/>
      <point x="220" y="-141" type="line"/>
      <point x="118" y="-141" type="line"/>
      <point x="288" y="657" type="line"/>
      <point x="390" y="657" type="line"/>
    </contour>
  </outline>
</glyph>
<glyph name="backslash" format="1">
  <advance width="278"/>
  <unicode hex="005C"/>
  <outline>
    <contour>
      <point x="147" y="729" type="line"/>
      <point x="225" y="-20" type="line"/>
      <point x="280" y="-20" type="line"/>
      <point x="202" y="729" type="line"/>
    </contour>
  </outline>
</glyph>
<glyph name="bracketright" format="1">
  <advance width="278"/>
  <unicode hex="005D"/>
  <outline>
    <contour>
      <point x="-23" y="-213" type="line"/>
      <point x="164" y="-213" type="line"/>
      <point x="364" y="729" type="line"/>
      <point x="177" y="729" type="line"/>
      <point x="162" y="657" type="line"/>
      <point x="265" y="657" type="line"/>
      <point x="95" y="-141" type="line"/>
      <point x="-8" y="-141" type="line"/>
    </contour>
  </outline>
</glyph>
<glyph name="asciicircum" format="1">
  <advance width="469"/>
  <unicode hex="005E"/>
  <outline>
    <contour>
      <point x="349" y="709" type="line"/>
      <point x="115" y="329" type="line"/>
      <point x="187" y="329" type="line"/>
      <point x="369" y="628" type="line"/>
      <point x="427" y="329" type="line"/>
      <point x="496" y="329" type="line"/>
      <point x="422" y="709" type="line"/>
    </contour>
  </outline>
</glyph>
<glyph name="underscore" format="1">
  <advance width="556"/>
  <unicode hex="005F"/>
  <outline>
    <contour>
      <point x="551" y="-126" type="line"/>
      <point x="-48" y="-126" type="line"/>
      <point x="-59" y="-176" type="line"/>
      <point x="540" y="-176" type="line"/>
    </contour>
  </outline>
</glyph>
<glyph name="grave" format="1">
  <advance width="333"/>
  <unicode hex="0060"/>
  <outline>
    <contour>
      <point x="285" y="740" type="line"/>
      <point x="179" y="740" type="line"/>
      <point x="304" y="592" type="line"/>
      <point x="357" y="592" type="line"/>
    </contour>
  </outline>
</glyph>
<glyph name="b" format="1">
  <advance width="556"/>
  <unicode hex="0062"/>
  <outline>
    <contour>
      <point x="209" y="729" type="line"/>
      <point x="54" y="0" type="line"/>
      <point x="129" y="0" type="line"/>
      <point x="146" y="78" type="line"/>
      <point x="159" y="47"/>
      <point x="168" y="33"/>
      <point x="183" y="18" type="curve" smooth="yes"/>
      <point x="209" y="-8"/>
      <point x="250" y="-23"/>
      <point x="294" y="-23" type="curve" smooth="yes"/>
      <point x="361" y="-23"/>
      <point x="432" y="8"/>
      <point x="477" y="55" type="curve" smooth="yes"/>
      <point x="544" y="126"/>
      <point x="588" y="240"/>
      <point x="588" y="343" type="curve" smooth="yes"/>
      <point x="588" y="455"/>
      <point x="512" y="539"/>
      <point x="411" y="539" type="curve" smooth="yes"/>
      <point x="371" y="539"/>
      <point x="326" y="527"/>
      <point x="296" y="509" type="curve" smooth="yes"/>
      <point x="279" y="498"/>
      <point x="266" y="487"/>
      <point x="235" y="454" type="curve"/>
      <point x="293" y="729" type="line"/>
    </contour>
    <contour>
      <point x="383" y="462" type="curve" smooth="yes"/>
      <point x="456" y="462"/>
      <point x="500" y="410"/>
      <point x="500" y="324" type="curve" smooth="yes"/>
      <point x="500" y="267"/>
      <point x="483" y="203"/>
      <point x="454" y="155" type="curve" smooth="yes"/>
      <point x="413" y="87"/>
      <point x="361" y="54"/>
      <point x="296" y="54" type="curve" smooth="yes"/>
      <point x="228" y="54"/>
      <point x="185" y="104"/>
      <point x="185" y="183" type="curve" smooth="yes"/>
      <point x="185" y="245"/>
      <point x="203" y="313"/>
      <point x="231" y="361" type="curve" smooth="yes"/>
      <point x="270" y="427"/>
      <point x="323" y="462"/>
    </contour>
  </outline>
</glyph>
<glyph name="d" format="1">
  <advance width="556"/>
  <unicode hex="0064"/>
  <outline>
    <contour>
      <point x="650" y="729" type="line"/>
      <point x="566" y="729" type="line"/>
      <point x="506" y="448" type="line"/>
      <point x="474" y="513"/>
      <point x="434" y="539"/>
      <point x="363" y="539" type="curve" smooth="yes"/>
      <point x="197" y="539"/>
      <point x="73" y="381"/>
      <point x="73" y="170" type="curve" smooth="yes"/>
      <point x="73" y="53"/>
      <point x="140" y="-23"/>
      <point x="244" y="-23" type="curve" smooth="yes"/>
      <point x="287" y="-23"/>
      <point x="333" y="-9"/>
      <point x="373" y="15" type="curve" smooth="yes"/>
      <point x="403" y="33"/>
      <point x="416" y="48"/>
      <point x="430" y="76" type="curve"/>
      <point x="414" y="0" type="line"/>
      <point x="495" y="0" type="line"/>
    </contour>
    <contour>
      <point x="355" y="462" type="curve" smooth="yes"/>
      <point x="429" y="462"/>
      <point x="473" y="412"/>
      <point x="473" y="327" type="curve" smooth="yes"/>
      <point x="473" y="268"/>
      <point x="457" y="207"/>
      <point x="427" y="155" type="curve" smooth="yes"/>
      <point x="388" y="88"/>
      <point x="339" y="54"/>
      <point x="278" y="54" type="curve" smooth="yes"/>
      <point x="204" y="54"/>
      <point x="161" y="104"/>
      <point x="161" y="190" type="curve" smooth="yes"/>
      <point x="161" y="246"/>
      <point x="178" y="310"/>
      <point x="205" y="361" type="curve" smooth="yes"/>
      <point x="243" y="430"/>
      <point x="291" y="462"/>
    </contour>
  </outline>
</glyph>
<glyph name="f" format="1">
  <advance width="278"/>
  <unicode hex="0066"/>
  <outline>
    <contour>
      <point x="370" y="524" type="line"/>
      <point x="284" y="524" type="line"/>
      <point x="299" y="593" type="line" smooth="yes"/>
      <point x="310" y="643"/>
      <point x="328" y="660"/>
      <point x="371" y="660" type="curve" smooth="yes"/>
      <point x="378" y="660"/>
      <point x="384" y="660"/>
      <point x="398" y="658" type="curve"/>
      <point x="413" y="727" type="line"/>
      <point x="395" y="731"/>
      <point x="384" y="732"/>
      <point x="368" y="732" type="curve" smooth="yes"/>
      <point x="291" y="732"/>
      <point x="235" y="687"/>
      <point x="219" y="613" type="curve" smooth="yes"/>
      <point x="200" y="524" type="line"/>
      <point x="130" y="524" type="line"/>
      <point x="116" y="457" type="line"/>
      <point x="186" y="457" type="line"/>
      <point x="89" y="0" type="line"/>
      <point x="173" y="0" type="line"/>
      <point x="270" y="457" type="line"/>
      <point x="356" y="457" type="line"/>
    </contour>
  </outline>
</glyph>
<glyph name="g" format="1">
  <advance width="556"/>
  <unicode hex="0067"/>
  <outline>
    <contour>
      <point x="525" y="524" type="line"/>
      <point x="508" y="446" type="line"/>
      <point x="493" y="479"/>
      <point x="483" y="493"/>
      <point x="461" y="509" type="curve" smooth="yes"/>
      <point x="435" y="528"/>
      <point x="403" y="539"/>
      <point x="369" y="539" type="curve" smooth="yes"/>
      <point x="292" y="539"/>
      <point x="214" y="501"/>
      <point x="165" y="439" type="curve" smooth="yes"/>
      <point x="112" y="373"/>
      <point x="74" y="260"/>
      <point x="74" y="168" type="curve" smooth="yes"/>
      <point x="74" y="59"/>
      <point x="145" y="-17"/>
      <point x="247" y="-17" type="curve" smooth="yes"/>
      <point x="310" y="-17"/>
      <point x="369" y="10"/>
      <point x="419" y="63" type="curve"/>
      <point x="415" y="44" type="line" smooth="yes"/>
      <point x="386" y="-92"/>
      <point x="332" y="-146"/>
      <point x="226" y="-146" type="curve" smooth="yes"/>
      <point x="158" y="-146"/>
      <point x="118" y="-119"/>
      <point x="118" y="-74" type="curve" smooth="yes"/>
      <point x="118" y="-68" type="line"/>
      <point x="118" y="-60" type="line"/>
      <point x="34" y="-60" type="line"/>
      <point x="33" y="-73" type="line" smooth="yes"/>
      <point x="32" y="-81"/>
      <point x="32" y="-87"/>
      <point x="32" y="-91" type="curve" smooth="yes"/>
      <point x="32" y="-168"/>
      <point x="102" y="-218"/>
      <point x="209" y="-218" type="curve" smooth="yes"/>
      <point x="288" y="-218"/>
      <point x="359" y="-194"/>
      <point x="404" y="-151" type="curve" smooth="yes"/>
      <point x="454" y="-103"/>
      <point x="481" y="-42"/>
      <point x="508" y="85" type="curve" smooth="yes"/>
      <point x="601" y="524" type="line"/>
    </contour>
    <contour>
      <point x="363" y="462" type="curve" smooth="yes"/>
      <point x="427" y="462"/>
      <point x="469" y="414"/>
      <point x="469" y="339" type="curve" smooth="yes"/>
      <point x="469" y="277"/>
      <point x="451" y="203"/>
      <point x="423" y="154" type="curve" smooth="yes"/>
      <point x="390" y="93"/>
      <point x="331" y="55"/>
      <point x="271" y="55" type="curve" smooth="yes"/>
      <point x="204" y="55"/>
      <point x="162" y="105"/>
      <point x="162" y="184" type="curve" smooth="yes"/>
      <point x="162" y="244"/>
      <point x="179" y="308"/>
      <point x="208" y="360" type="curve" smooth="yes"/>
      <point x="244" y="425"/>
      <point x="300" y="462"/>
    </contour>
  </outline>
</glyph>
<glyph name="i" format="1">
  <advance width="222"/>
  <unicode hex="0069"/>
  <outline>
    <contour>
      <point x="261" y="524" type="line"/>
      <point x="177" y="524" type="line"/>
      <point x="66" y="0" type="line"/>
      <point x="150" y="0" type="line"/>
    </contour>
    <contour>
      <point x="305" y="729" type="line"/>
      <point x="221" y="729" type="line"/>
      <point x="199" y="626" type="line"/>
      <point x="283" y="626" type="line"/>
    </contour>
  </outline>
</glyph>
<glyph name="j" format="1">
  <advance width="222"/>
  <unicode hex="006A"/>
  <outline>
    <contour>
      <point x="180" y="524" type="line"/>
      <point x="53" y="-76" type="line" smooth="yes"/>
      <point x="41" y="-132"/>
      <point x="26" y="-146"/>
      <point x="-25" y="-146" type="curve" smooth="yes"/>
      <point x="-30" y="-146"/>
      <point x="-32" y="-146"/>
      <point x="-50" y="-144" type="curve"/>
      <point x="-65" y="-215" type="line"/>
      <point x="-58" y="-217"/>
      <point x="-55" y="-218"/>
      <point x="-46" y="-218" type="curve" smooth="yes"/>
      <point x="69" y="-218"/>
      <point x="112" y="-191"/>
      <point x="130" y="-109" type="curve" smooth="yes"/>
      <point x="264" y="524" type="line"/>
    </contour>
    <contour>
      <point x="308" y="729" type="line"/>
      <point x="224" y="729" type="line"/>
      <point x="202" y="626" type="line"/>
      <point x="286" y="626" type="line"/>
    </contour>
  </outline>
</glyph>
<glyph name="k" format="1">
  <advance width="500"/>
  <unicode hex="006B"/>
  <outline>
    <contour>
      <point x="297" y="729" type="line"/>
      <point x="213" y="729" type="line"/>
      <point x="58" y="0" type="line"/>
      <point x="142" y="0" type="line"/>
      <point x="185" y="203" type="line"/>
      <point x="292" y="291" type="line"/>
      <point x="406" y="0" type="line"/>
      <point x="502" y="0" type="line"/>
      <point x="362" y="343" type="line"/>
      <point x="584" y="524" type="line"/>
      <point x="476" y="524" type="line"/>
      <point x="207" y="306" type="line"/>
    </contour>
  </outline>
</glyph>
<glyph name="m" format="1">
  <advance width="833"/>
  <unicode hex="006D"/>
  <outline>
    <contour>
      <point x="182" y="524" type="line"/>
      <point x="71" y="0" type="line"/>
      <point x="155" y="0" type="line"/>
      <point x="225" y="329" type="line" smooth="yes"/>
      <point x="241" y="405"/>
      <point x="309" y="467"/>
      <point x="376" y="467" type="curve" smooth="yes"/>
      <point x="425" y="467"/>
      <point x="458" y="439"/>
      <point x="458" y="398" type="curve" smooth="yes"/>
      <point x="458" y="387"/>
      <point x="457" y="374"/>
      <point x="454" y="361" type="curve" smooth="yes"/>
      <point x="377" y="0" type="line"/>
      <point x="461" y="0" type="line"/>
      <point x="531" y="329" type="line" smooth="yes"/>
      <point x="547" y="407"/>
      <point x="616" y="467"/>
      <point x="688" y="467" type="curve" smooth="yes"/>
      <point x="735" y="467"/>
      <point x="764" y="438"/>
      <point x="764" y="390" type="curve" smooth="yes"/>
      <point x="764" y="375"/>
      <point x="764" y="375"/>
      <point x="755" y="341" type="curve"/>
      <point x="683" y="0" type="line"/>
      <point x="767" y="0" type="line"/>
      <point x="846" y="373" type="line"/>
      <point x="849" y="384"/>
      <point x="852" y="417"/>
      <point x="852" y="428" type="curve" smooth="yes"/>
      <point x="852" y="454"/>
      <point x="840" y="482"/>
      <point x="820" y="505" type="curve" smooth="yes"/>
      <point x="798" y="529"/>
      <point x="771" y="539"/>
      <point x="725" y="539" type="curve" smooth="yes"/>
      <point x="660" y="539"/>
      <point x="603" y="513"/>
      <point x="544" y="456" type="curve"/>
      <point x="528" y="512"/>
      <point x="489" y="539"/>
      <point x="423" y="539" type="curve" smooth="yes"/>
      <point x="355" y="539"/>
      <point x="309" y="519"/>
      <point x="245" y="459" type="curve"/>
      <point x="258" y="524" type="line"/>
    </contour>
  </outline>
</glyph>
<glyph name="p" format="1">
  <advance width="556"/>
  <unicode hex="0070"/>
  <outline>
    <contour>
      <point x="7" y="-213" type="line"/>
      <point x="91" y="-213" type="line"/>
      <point x="151" y="68" type="line"/>
      <point x="182" y="3"/>
      <point x="223" y="-23"/>
      <point x="294" y="-23" type="curve" smooth="yes"/>
      <point x="372" y="-23"/>
      <point x="447" y="13"/>
      <point x="498" y="76" type="curve" smooth="yes"/>
      <point x="552" y="142"/>
      <point x="586" y="246"/>
      <point x="586" y="344" type="curve" smooth="yes"/>
      <point x="586" y="464"/>
      <point x="519" y="539"/>
      <point x="412" y="539" type="curve" smooth="yes"/>
      <point x="368" y="539"/>
      <point x="324" y="526"/>
      <point x="284" y="500" type="curve" smooth="yes"/>
      <point x="252" y="480"/>
      <point x="240" y="467"/>
      <point x="227" y="440" type="curve"/>
      <point x="245" y="524" type="line"/>
      <point x="164" y="524" type="line"/>
    </contour>
    <contour>
      <point x="379" y="462" type="curve" smooth="yes"/>
      <point x="454" y="462"/>
      <point x="498" y="410"/>
      <point x="498" y="324" type="curve" smooth="yes"/>
      <point x="498" y="270"/>
      <point x="481" y="205"/>
      <point x="454" y="155" type="curve" smooth="yes"/>
      <point x="417" y="87"/>
      <point x="367" y="54"/>
      <point x="302" y="54" type="curve" smooth="yes"/>
      <point x="229" y="54"/>
      <point x="183" y="104"/>
      <point x="183" y="184" type="curve" smooth="yes"/>
      <point x="183" y="244"/>
      <point x="200" y="309"/>
      <point x="230" y="361" type="curve" smooth="yes"/>
      <point x="267" y="428"/>
      <point x="317" y="462"/>
    </contour>
  </outline>
</glyph>
<glyph name="q" format="1">
  <advance width="556"/>
  <unicode hex="0071"/>
  <outline>
    <contour>
      <point x="450" y="-213" type="line"/>
      <point x="607" y="524" type="line"/>
      <point x="532" y="524" type="line"/>
      <point x="513" y="438" type="line"/>
      <point x="490" y="503"/>
      <point x="439" y="539"/>
      <point x="366" y="539" type="curve" smooth="yes"/>
      <point x="298" y="539"/>
      <point x="227" y="509"/>
      <point x="182" y="461" type="curve" smooth="yes"/>
      <point x="115" y="390"/>
      <point x="71" y="276"/>
      <point x="71" y="173" type="curve" smooth="yes"/>
      <point x="71" y="61"/>
      <point x="147" y="-23"/>
      <point x="248" y="-23" type="curve" smooth="yes"/>
      <point x="288" y="-23"/>
      <point x="334" y="-11"/>
      <point x="363" y="7" type="curve" smooth="yes"/>
      <point x="379" y="17"/>
      <point x="391" y="28"/>
      <point x="425" y="62" type="curve"/>
      <point x="366" y="-213" type="line"/>
    </contour>
    <contour>
      <point x="364" y="462" type="curve" smooth="yes"/>
      <point x="431" y="462"/>
      <point x="474" y="412"/>
      <point x="474" y="333" type="curve" smooth="yes"/>
      <point x="474" y="271"/>
      <point x="456" y="203"/>
      <point x="428" y="155" type="curve" smooth="yes"/>
      <point x="388" y="89"/>
      <point x="336" y="54"/>
      <point x="276" y="54" type="curve" smooth="yes"/>
      <point x="205" y="54"/>
      <point x="159" y="106"/>
      <point x="159" y="186" type="curve" smooth="yes"/>
      <point x="159" y="244"/>
      <point x="178" y="316"/>
      <point x="205" y="361" type="curve" smooth="yes"/>
      <point x="244" y="427"/>
      <point x="300" y="462"/>
    </contour>
  </outline>
</glyph>
<glyph name="w" format="1">
  <advance width="722"/>
  <unicode hex="0077"/>
  <outline>
    <contour>
      <point x="556" y="0" type="line"/>
      <point x="820" y="524" type="line"/>
      <point x="729" y="524" type="line"/>
      <point x="533" y="116" type="line"/>
      <point x="522" y="524" type="line"/>
      <point x="417" y="524" type="line"/>
      <point x="228" y="116" type="line"/>
      <point x="209" y="524" type="line"/>
      <point x="118" y="524" type="line"/>
      <point x="158" y="0" type="line"/>
      <point x="254" y="0" type="line"/>
      <point x="449" y="418" type="line"/>
      <point x="461" y="0" type="line"/>
    </contour>
  </outline>
</glyph>
<glyph name="x" format="1">
  <advance width="500"/>
  <unicode hex="0078"/>
  <outline>
    <contour>
      <point x="350" y="267" type="line"/>
      <point x="583" y="524" type="line"/>
      <point x="486" y="524" type="line"/>
      <point x="319" y="332" type="line"/>
      <point x="231" y="524" type="line"/>
      <point x="138" y="524" type="line"/>
      <point x="256" y="267" type="line"/>
      <point x="17" y="0" type="line"/>
      <point x="115" y="0" type="line"/>
      <point x="289" y="200" type="line"/>
      <point x="379" y="0" type="line"/>
      <point x="473" y="0" type="line"/>
    </contour>
  </outline>
</glyph>
<glyph name="z" format="1">
  <advance width="500"/>
  <unicode hex="007A"/>
  <outline>
    <contour>
      <point x="557" y="524" type="line"/>
      <point x="165" y="524" type="line"/>
      <point x="150" y="452" type="line"/>
      <point x="444" y="452" type="line"/>
      <point x="49" y="74" type="line"/>
      <point x="31" y="0" type="line"/>
      <point x="458" y="0" type="line"/>
      <point x="473" y="72" type="line"/>
      <point x="147" y="72" type="line"/>
      <point x="539" y="449" type="line"/>
    </contour>
  </outline>
</glyph>
<glyph name="braceleft" format="1">
  <advance width="334"/>
  <unicode hex="007B"/>
  <outline>
    <contour>
      <point x="431" y="729" type="line"/>
      <point x="384" y="729" type="line" smooth="yes"/>
      <point x="348" y="729"/>
      <point x="316" y="715"/>
      <point x="290" y="687" type="curve" smooth="yes"/>
      <point x="268" y="663"/>
      <point x="258" y="641"/>
      <point x="248" y="597" type="curve" smooth="yes"/>
      <point x="212" y="431" type="line" smooth="yes"/>
      <point x="194" y="342"/>
      <point x="164" y="303"/>
      <point x="106" y="293" type="curve"/>
      <point x="91" y="224" type="line"/>
      <point x="128" y="218"/>
      <point x="148" y="193"/>
      <point x="148" y="153" type="curve" smooth="yes"/>
      <point x="148" y="137"/>
      <point x="145" y="113"/>
      <point x="139" y="86" type="curve" smooth="yes"/>
      <point x="104" y="-80" type="line" smooth="yes"/>
      <point x="100" y="-98"/>
      <point x="98" y="-118"/>
      <point x="98" y="-134" type="curve" smooth="yes"/>
      <point x="98" y="-184"/>
      <point x="130" y="-213"/>
      <point x="184" y="-213" type="curve" smooth="yes"/>
      <point x="231" y="-213" type="line"/>
      <point x="245" y="-147" type="line"/>
      <point x="229" y="-147" type="line" smooth="yes"/>
      <point x="191" y="-147"/>
      <point x="175" y="-137"/>
      <point x="175" y="-113" type="curve" smooth="yes"/>
      <point x="175" y="-103"/>
      <point x="176" y="-92"/>
      <point x="179" y="-80" type="curve" smooth="yes"/>
      <point x="218" y="101" type="line" smooth="yes"/>
      <point x="222" y="120"/>
      <point x="224" y="140"/>
      <point x="224" y="162" type="curve" smooth="yes"/>
      <point x="224" y="213"/>
      <point x="213" y="235"/>
      <point x="176" y="259" type="curve"/>
      <point x="232" y="290"/>
      <point x="270" y="345"/>
      <point x="284" y="416" type="curve" smooth="yes"/>
      <point x="323" y="597" type="line" smooth="yes"/>
      <point x="334" y="649"/>
      <point x="351" y="664"/>
      <point x="401" y="664" type="curve" smooth="yes"/>
      <point x="417" y="664" type="line"/>
    </contour>
  </outline>
</glyph>
<glyph name="braceright" format="1">
  <advance width="334"/>
  <unicode hex="007D"/>
  <outline>
    <contour>
      <point x="-16" y="-213" type="line"/>
      <point x="31" y="-213" type="line" smooth="yes"/>
      <point x="76" y="-213"/>
      <point x="100" y="-203"/>
      <point x="127" y="-171" type="curve" smooth="yes"/>
      <point x="147" y="-148"/>
      <point x="158" y="-123"/>
      <point x="167" y="-81" type="curve" smooth="yes"/>
      <point x="203" y="85" type="line" smooth="yes"/>
      <point x="217" y="169"/>
      <point x="251" y="214"/>
      <point x="309" y="223" type="curve"/>
      <point x="324" y="293" type="line"/>
      <point x="287" y="299"/>
      <point x="267" y="322"/>
      <point x="267" y="359" type="curve" smooth="yes"/>
      <point x="267" y="379"/>
      <point x="270" y="401"/>
      <point x="276" y="431" type="curve" smooth="yes"/>
      <point x="311" y="597" type="line" smooth="yes"/>
      <point x="315" y="616"/>
      <point x="317" y="633"/>
      <point x="317" y="647" type="curve" smooth="yes"/>
      <point x="317" y="696"/>
      <point x="282" y="729"/>
      <point x="231" y="729" type="curve" smooth="yes"/>
      <point x="184" y="729" type="line"/>
      <point x="170" y="664" type="line"/>
      <point x="186" y="664" type="line" smooth="yes"/>
      <point x="224" y="664"/>
      <point x="240" y="654"/>
      <point x="240" y="630" type="curve" smooth="yes"/>
      <point x="240" y="620"/>
      <point x="239" y="609"/>
      <point x="236" y="597" type="curve" smooth="yes"/>
      <point x="197" y="416" type="line" smooth="yes"/>
      <point x="193" y="397"/>
      <point x="191" y="379"/>
      <point x="191" y="362" type="curve" smooth="yes"/>
      <point x="191" y="319"/>
      <point x="206" y="286"/>
      <point x="239" y="257" type="curve"/>
      <point x="173" y="226"/>
      <point x="148" y="190"/>
      <point x="131" y="100" type="curve" smooth="yes"/>
      <point x="92" y="-81" type="line" smooth="yes"/>
      <point x="81" y="-133"/>
      <point x="64" y="-148"/>
      <point x="14" y="-148" type="curve" smooth="yes"/>
      <point x="-2" y="-148" type="line"/>
    </contour>
  </outline>
</glyph>
<glyph name="asciitilde" format="1">
  <advance width="584"/>
  <unicode hex="007E"/>
  <outline>
    <contour>
      <point x="542" y="411" type="line"/>
      <point x="531" y="360"/>
      <point x="510" y="336"/>
      <point x="475" y="336" type="curve" smooth="yes"/>
      <point x="460" y="336"/>
      <point x="446" y="341"/>
      <point x="428" y="353" type="curve" smooth="yes"/>
      <point x="326" y="422" type="line" smooth="yes"/>
      <point x="311" y="432"/>
      <point x="293" y="438"/>
      <point x="275" y="438" type="curve" smooth="yes"/>
      <point x="211" y="438"/>
      <point x="162" y="387"/>
      <point x="137" y="293" type="curve"/>
      <point x="189" y="293" type="line"/>
      <point x="205" y="345"/>
      <point x="229" y="372"/>
      <point x="260" y="372" type="curve" smooth="yes"/>
      <point x="270" y="372"/>
      <point x="288" y="365"/>
      <point x="299" y="357" type="curve" smooth="yes"/>
      <point x="384" y="294" type="line" smooth="yes"/>
      <point x="406" y="278"/>
      <point x="434" y="268"/>
      <point x="458" y="268" type="curve" smooth="yes"/>
      <point x="496" y="268"/>
      <point x="535" y="289"/>
      <point x="560" y="323" type="curve" smooth="yes"/>
      <point x="578" y="347"/>
      <point x="587" y="370"/>
      <point x="594" y="411" type="curve"/>
    </contour>
  </outline>
</glyph>
<glyph name="exclamdown" format="1">
  <advance width="333"/>
  <unicode hex="00A1"/>
  <outline>
    <contour>
      <point x="76" y="-205" type="line"/>
      <point x="160" y="-205" type="line"/>
      <point x="234" y="145" type="line"/>
      <point x="257" y="356" type="line"/>
      <point x="217" y="356" type="line"/>
      <point x="150" y="145" type="line"/>
    </contour>
    <contour>
      <point x="211" y="421" type="line"/>
      <point x="295" y="421" type="line"/>
      <point x="317" y="524" type="line"/>
      <point x="233" y="524" type="line"/>
    </contour>
  </outline>
</glyph>
<glyph name="cent" format="1">
  <advance width="556"/>
  <unicode hex="00A2"/>
  <outline>
    <contour>
      <point x="407" y="463" type="line"/>
      <point x="419" y="461" type="line" smooth="yes"/>
      <point x="472" y="452"/>
      <point x="499" y="422"/>
      <point x="499" y="371" type="curve" smooth="yes"/>
      <point x="499" y="365"/>
      <point x="499" y="357"/>
      <point x="498" y="348" type="curve"/>
      <point x="582" y="348" type="line"/>
      <point x="583" y="363" type="line" smooth="yes"/>
      <point x="584" y="378"/>
      <point x="585" y="389"/>
      <point x="585" y="392" type="curve" smooth="yes"/>
      <point x="585" y="448"/>
      <point x="542" y="507"/>
      <point x="485" y="528" type="curve" smooth="yes"/>
      <point x="465" y="535"/>
      <point x="448" y="538"/>
      <point x="423" y="538" type="curve"/>
      <point x="442" y="628" type="line"/>
      <point x="402" y="628" type="line"/>
      <point x="383" y="538" type="line"/>
      <point x="312" y="531"/>
      <point x="262" y="510"/>
      <point x="214" y="467" type="curve" smooth="yes"/>
      <point x="142" y="402"/>
      <point x="96" y="286"/>
      <point x="96" y="171" type="curve" smooth="yes"/>
      <point x="96" y="64"/>
      <point x="161" y="-11"/>
      <point x="264" y="-22" type="curve"/>
      <point x="243" y="-120" type="line"/>
      <point x="283" y="-120" type="line"/>
      <point x="304" y="-23" type="line"/>
      <point x="438" y="-15"/>
      <point x="514" y="49"/>
      <point x="549" y="180" type="curve"/>
      <point x="465" y="180" type="line"/>
      <point x="434" y="98"/>
      <point x="391" y="61"/>
      <point x="320" y="53" type="curve"/>
    </contour>
    <contour>
      <point x="281" y="56" type="line"/>
      <point x="221" y="64"/>
      <point x="184" y="113"/>
      <point x="184" y="183" type="curve" smooth="yes"/>
      <point x="184" y="269"/>
      <point x="221" y="362"/>
      <point x="276" y="415" type="curve" smooth="yes"/>
      <point x="302" y="440"/>
      <point x="328" y="453"/>
      <point x="366" y="460" type="curve"/>
    </contour>
  </outline>
</glyph>
<glyph name="sterling" format="1">
  <advance width="556"/>
  <unicode hex="00A3"/>
  <outline>
    <contour>
      <point x="447" y="376" type="line"/>
      <point x="287" y="376" type="line"/>
      <point x="283" y="389"/>
      <point x="279" y="403"/>
      <point x="278" y="404" type="curve"/>
      <point x="256" y="466"/>
      <point x="256" y="466"/>
      <point x="256" y="492" type="curve" smooth="yes"/>
      <point x="256" y="582"/>
      <point x="329" y="652"/>
      <point x="424" y="652" type="curve" smooth="yes"/>
      <point x="495" y="652"/>
      <point x="540" y="614"/>
      <point x="540" y="554" type="curve" smooth="yes"/>
      <point x="540" y="536"/>
      <point x="538" y="523"/>
      <point x="531" y="497" type="curve"/>
      <point x="619" y="497" type="line"/>
      <point x="626" y="539"/>
      <point x="628" y="557"/>
      <point x="628" y="579" type="curve" smooth="yes"/>
      <point x="628" y="669"/>
      <point x="553" y="729"/>
      <point x="442" y="729" type="curve" smooth="yes"/>
      <point x="295" y="729"/>
      <point x="160" y="610"/>
      <point x="160" y="480" type="curve" smooth="yes"/>
      <point x="160" y="455"/>
      <point x="164" y="438"/>
      <point x="181" y="398" type="curve"/>
      <point x="185" y="390"/>
      <point x="188" y="382"/>
      <point x="190" y="376" type="curve"/>
      <point x="107" y="376" type="line"/>
      <point x="95" y="321" type="line"/>
      <point x="208" y="321" type="line"/>
      <point x="217" y="292"/>
      <point x="218" y="286"/>
      <point x="218" y="271" type="curve" smooth="yes"/>
      <point x="218" y="200"/>
      <point x="161" y="129"/>
      <point x="44" y="52" type="curve"/>
      <point x="81" y="-14" type="line"/>
      <point x="127" y="12"/>
      <point x="162" y="23"/>
      <point x="199" y="23" type="curve" smooth="yes"/>
      <point x="222" y="23"/>
      <point x="242" y="19"/>
      <point x="262" y="12" type="curve" smooth="yes"/>
      <point x="329" y="-14"/>
      <point x="365" y="-23"/>
      <point x="401" y="-23" type="curve" smooth="yes"/>
      <point x="449" y="-23"/>
      <point x="500" y="-4"/>
      <point x="543" y="31" type="curve"/>
      <point x="518" y="101" type="line"/>
      <point x="476" y="77"/>
      <point x="455" y="70"/>
      <point x="424" y="70" type="curve" smooth="yes"/>
      <point x="397" y="70"/>
      <point x="367" y="76"/>
      <point x="322" y="91" type="curve" smooth="yes"/>
      <point x="299" y="99"/>
      <point x="291" y="100"/>
      <point x="269" y="100" type="curve" smooth="yes"/>
      <point x="230" y="100"/>
      <point x="192" y="89"/>
      <point x="136" y="61" type="curve"/>
      <point x="153" y="74"/>
      <point x="163" y="81"/>
      <point x="169" y="86" type="curve"/>
      <point x="242" y="140"/>
      <point x="261" y="161"/>
      <point x="283" y="210" type="curve" smooth="yes"/>
      <point x="294" y="234"/>
      <point x="301" y="264"/>
      <point x="301" y="283" type="curve" smooth="yes"/>
      <point x="301" y="287"/>
      <point x="300" y="297"/>
      <point x="299" y="310" type="curve" smooth="yes"/>
      <point x="298" y="321" type="line"/>
      <point x="435" y="321" type="line"/>
    </contour>
  </outline>
</glyph>
<glyph name="currency" format="1">
  <advance width="556"/>
  <unicode hex="00A4"/>
  <outline>
    <contour>
      <point x="526" y="191" type="line"/>
      <point x="483" y="245" type="line"/>
      <point x="513" y="274"/>
      <point x="537" y="334"/>
      <point x="537" y="381" type="curve" smooth="yes"/>
      <point x="537" y="406"/>
      <point x="533" y="422"/>
      <point x="524" y="438" type="curve"/>
      <point x="593" y="494" type="line"/>
      <point x="546" y="552" type="line"/>
      <point x="478" y="496" type="line"/>
      <point x="458" y="514"/>
      <point x="422" y="525"/>
      <point x="385" y="525" type="curve" smooth="yes"/>
      <point x="351" y="525"/>
      <point x="310" y="514"/>
      <point x="283" y="498" type="curve"/>
      <point x="238" y="556" type="line"/>
      <point x="172" y="500" type="line"/>
      <point x="214" y="445" type="line"/>
      <point x="211" y="441" type="line" smooth="yes"/>
      <point x="180" y="400"/>
      <point x="180" y="400"/>
      <point x="171" y="378" type="curve" smooth="yes"/>
      <point x="161" y="354"/>
      <point x="156" y="328"/>
      <point x="156" y="305" type="curve" smooth="yes"/>
      <point x="156" y="281"/>
      <point x="161" y="257"/>
      <point x="170" y="240" type="curve"/>
      <point x="110" y="191" type="line"/>
      <point x="154" y="133" type="line"/>
      <point x="219" y="185" type="line"/>
      <point x="238" y="169"/>
      <point x="270" y="160"/>
      <point x="309" y="160" type="curve" smooth="yes"/>
      <point x="348" y="160"/>
      <point x="386" y="171"/>
      <point x="414" y="190" type="curve"/>
      <point x="456" y="137" type="line"/>
    </contour>
    <contour>
      <point x="369" y="448" type="curve" smooth="yes"/>
      <point x="419" y="448"/>
      <point x="458" y="411"/>
      <point x="458" y="364" type="curve" smooth="yes"/>
      <point x="458" y="299"/>
      <point x="394" y="237"/>
      <point x="325" y="237" type="curve" smooth="yes"/>
      <point x="274" y="237"/>
      <point x="235" y="274"/>
      <point x="235" y="323" type="curve" smooth="yes"/>
      <point x="235" y="388"/>
      <point x="300" y="448"/>
    </contour>
  </outline>
</glyph>
<glyph name="yen" format="1">
  <advance width="556"/>
  <unicode hex="00A5"/>
  <outline>
    <contour>
      <point x="573" y="354" type="line"/>
      <point x="419" y="354" type="line"/>
      <point x="696" y="709" type="line"/>
      <point x="611" y="709" type="line"/>
      <point x="363" y="387" type="line"/>
      <point x="247" y="709" type="line"/>
      <point x="162" y="709" type="line"/>
      <point x="292" y="354" type="line"/>
      <point x="138" y="354" type="line"/>
      <point x="127" y="303" type="line"/>
      <point x="302" y="303" type="line"/>
      <point x="285" y="226" type="line"/>
      <point x="111" y="226" type="line"/>
      <point x="100" y="175" type="line"/>
      <point x="274" y="175" type="line"/>
      <point x="237" y="0" type="line"/>
      <point x="325" y="0" type="line"/>
      <point x="362" y="175" type="line"/>
      <point x="535" y="175" type="line"/>
      <point x="545" y="226" type="line"/>
      <point x="373" y="226" type="line"/>
      <point x="390" y="303" type="line"/>
      <point x="562" y="303" type="line"/>
    </contour>
  </outline>
</glyph>
<glyph name="brokenbar" format="1">
  <advance width="260"/>
  <unicode hex="00A6"/>
  <outline>
    <contour>
      <point x="255" y="729" type="line"/>
      <point x="169" y="328" type="line"/>
      <point x="229" y="328" type="line"/>
      <point x="315" y="729" type="line"/>
    </contour>
    <contour>
      <point x="140" y="189" type="line"/>
      <point x="54" y="-212" type="line"/>
      <point x="114" y="-212" type="line"/>
      <point x="200" y="189" type="line"/>
    </contour>
  </outline>
</glyph>
<glyph name="section" format="1">
  <advance width="556"/>
  <unicode hex="00A7"/>
  <outline>
    <contour>
      <point x="575" y="524" type="line"/>
      <point x="576" y="529"/>
      <point x="577" y="532"/>
      <point x="577" y="533" type="curve"/>
      <point x="588" y="569"/>
      <point x="589" y="573"/>
      <point x="589" y="594" type="curve" smooth="yes"/>
      <point x="589" y="673"/>
      <point x="526" y="729"/>
      <point x="436" y="729" type="curve" smooth="yes"/>
      <point x="324" y="729"/>
      <point x="221" y="638"/>
      <point x="221" y="540" type="curve" smooth="yes"/>
      <point x="221" y="510"/>
      <point x="229" y="486"/>
      <point x="247" y="463" type="curve"/>
      <point x="187" y="431"/>
      <point x="175" y="423"/>
      <point x="152" y="397" type="curve" smooth="yes"/>
      <point x="124" y="365"/>
      <point x="104" y="315"/>
      <point x="104" y="274" type="curve" smooth="yes"/>
      <point x="104" y="232"/>
      <point x="121" y="201"/>
      <point x="167" y="162" type="curve" smooth="yes"/>
      <point x="312" y="38" type="line" smooth="yes"/>
      <point x="340" y="14"/>
      <point x="350" y="-5"/>
      <point x="350" y="-34" type="curve" smooth="yes"/>
      <point x="350" y="-89"/>
      <point x="299" y="-136"/>
      <point x="238" y="-136" type="curve" smooth="yes"/>
      <point x="188" y="-136"/>
      <point x="151" y="-104"/>
      <point x="151" y="-59" type="curve" smooth="yes"/>
      <point x="151" y="-46"/>
      <point x="153" y="-35"/>
      <point x="159" y="-14" type="curve"/>
      <point x="74" y="-14" type="line"/>
      <point x="66" y="-41"/>
      <point x="63" y="-54"/>
      <point x="63" y="-75" type="curve" smooth="yes"/>
      <point x="63" y="-158"/>
      <point x="127" y="-213"/>
      <point x="225" y="-213" type="curve" smooth="yes"/>
      <point x="289" y="-213"/>
      <point x="348" y="-187"/>
      <point x="387" y="-142" type="curve" smooth="yes"/>
      <point x="422" y="-104"/>
      <point x="442" y="-57"/>
      <point x="442" y="-16" type="curve" smooth="yes"/>
      <point x="442" y="18"/>
      <point x="434" y="41"/>
      <point x="412" y="71" type="curve"/>
      <point x="452" y="84"/>
      <point x="484" y="104"/>
      <point x="507" y="131" type="curve" smooth="yes"/>
      <point x="537" y="166"/>
      <point x="559" y="223"/>
      <point x="559" y="267" type="curve" smooth="yes"/>
      <point x="559" y="295"/>
      <point x="551" y="320"/>
      <point x="535" y="342" type="curve"/>
      <point x="525" y="354"/>
      <point x="516" y="363"/>
      <point x="482" y="390" type="curve" smooth="yes"/>
      <point x="355" y="491" type="line" smooth="yes"/>
      <point x="321" y="518"/>
      <point x="313" y="530"/>
      <point x="313" y="553" type="curve" smooth="yes"/>
      <point x="313" y="605"/>
      <point x="362" y="652"/>
      <point x="418" y="652" type="curve" smooth="yes"/>
      <point x="468" y="652"/>
      <point x="501" y="622"/>
      <point x="501" y="575" type="curve" smooth="yes"/>
      <point x="501" y="559"/>
      <point x="498" y="544"/>
      <point x="491" y="524" type="curve"/>
    </contour>
    <contour>
      <point x="236" y="229" type="line" smooth="yes"/>
      <point x="202" y="258"/>
      <point x="192" y="277"/>
      <point x="192" y="309" type="curve" smooth="yes"/>
      <point x="192" y="357"/>
      <point x="217" y="388"/>
      <point x="287" y="428" type="curve"/>
      <point x="418" y="322" type="line" smooth="yes"/>
      <point x="450" y="296"/>
      <point x="471" y="261"/>
      <point x="471" y="231" type="curve" smooth="yes"/>
      <point x="471" y="183"/>
      <point x="438" y="141"/>
      <point x="374" y="108" type="curve"/>
    </contour>
  </outline>
</glyph>
<glyph name="dieresis" format="1">
  <advance width="333"/>
  <unicode hex="00A8"/>
  <outline>
    <contour>
      <point x="285" y="715" type="line"/>
      <point x="181" y="715" type="line"/>
      <point x="159" y="612" type="line"/>
      <point x="263" y="612" type="line"/>
    </contour>
    <contour>
      <point x="446" y="715" type="line"/>
      <point x="342" y="715" type="line"/>
      <point x="320" y="612" type="line"/>
      <point x="424" y="612" type="line"/>
    </contour>
  </outline>
</glyph>
<glyph name="copyright" format="1">
  <advance width="737"/>
  <unicode hex="00A9"/>
  <outline>
    <contour>
      <point x="637" y="437" type="line"/>
      <point x="635" y="543"/>
      <point x="593" y="592"/>
      <point x="503" y="592" type="curve" smooth="yes"/>
      <point x="435" y="592"/>
      <point x="374" y="562"/>
      <point x="326" y="506" type="curve" smooth="yes"/>
      <point x="278" y="448"/>
      <point x="249" y="367"/>
      <point x="249" y="292" type="curve" smooth="yes"/>
      <point x="249" y="189"/>
      <point x="306" y="126"/>
      <point x="400" y="126" type="curve" smooth="yes"/>
      <point x="459" y="126"/>
      <point x="509" y="149"/>
      <point x="552" y="196" type="curve" smooth="yes"/>
      <point x="578" y="224"/>
      <point x="594" y="251"/>
      <point x="618" y="312" type="curve"/>
      <point x="547" y="312" type="line"/>
      <point x="517" y="231"/>
      <point x="471" y="188"/>
      <point x="416" y="188" type="curve" smooth="yes"/>
      <point x="359" y="188"/>
      <point x="321" y="234"/>
      <point x="321" y="301" type="curve" smooth="yes"/>
      <point x="321" y="354"/>
      <point x="338" y="413"/>
      <point x="366" y="456" type="curve" smooth="yes"/>
      <point x="398" y="504"/>
      <point x="440" y="530"/>
      <point x="488" y="530" type="curve" smooth="yes"/>
      <point x="540" y="530"/>
      <point x="563" y="503"/>
      <point x="566" y="437" type="curve"/>
    </contour>
    <contour>
      <point x="530" y="742" type="curve" smooth="yes"/>
      <point x="284" y="742"/>
      <point x="55" y="520"/>
      <point x="55" y="281" type="curve" smooth="yes"/>
      <point x="55" y="106"/>
      <point x="184" y="-22"/>
      <point x="361" y="-22" type="curve" smooth="yes"/>
      <point x="607" y="-22"/>
      <point x="836" y="200"/>
      <point x="836" y="440" type="curve" smooth="yes"/>
      <point x="836" y="614"/>
      <point x="707" y="742"/>
    </contour>
    <contour>
      <point x="516" y="680" type="curve" smooth="yes"/>
      <point x="660" y="680"/>
      <point x="766" y="573"/>
      <point x="766" y="428" type="curve" smooth="yes"/>
      <point x="766" y="227"/>
      <point x="577" y="40"/>
      <point x="375" y="40" type="curve" smooth="yes"/>
      <point x="231" y="40"/>
      <point x="125" y="147"/>
      <point x="125" y="293" type="curve" smooth="yes"/>
      <point x="125" y="493"/>
      <point x="314" y="680"/>
    </contour>
  </outline>
</glyph>
<glyph name="ordfeminine" format="1">
  <advance width="370"/>
  <unicode hex="00AA"/>
  <outline>
    <contour>
      <point x="406" y="354" type="line"/>
      <point x="118" y="354" type="line"/>
      <point x="107" y="303" type="line"/>
      <point x="395" y="303" type="line"/>
    </contour>
    <contour>
      <point x="432" y="449" type="line"/>
      <point x="424" y="448" type="line"/>
      <point x="420" y="447"/>
      <point x="417" y="447"/>
      <point x="415" y="447" type="curve" smooth="yes"/>
      <point x="406" y="447"/>
      <point x="398" y="454"/>
      <point x="398" y="461" type="curve" smooth="yes"/>
      <point x="398" y="463"/>
      <point x="398" y="465"/>
      <point x="399" y="468" type="curve"/>
      <point x="440" y="658" type="line"/>
      <point x="441" y="661"/>
      <point x="441" y="669"/>
      <point x="441" y="676" type="curve" smooth="yes"/>
      <point x="441" y="717"/>
      <point x="401" y="742"/>
      <point x="337" y="742" type="curve" smooth="yes"/>
      <point x="285" y="742"/>
      <point x="243" y="729"/>
      <point x="218" y="705" type="curve" smooth="yes"/>
      <point x="202" y="690"/>
      <point x="196" y="677"/>
      <point x="184" y="634" type="curve"/>
      <point x="240" y="634" type="line"/>
      <point x="245" y="650"/>
      <point x="249" y="658"/>
      <point x="259" y="669" type="curve" smooth="yes"/>
      <point x="270" y="682"/>
      <point x="296" y="691"/>
      <point x="320" y="691" type="curve" smooth="yes"/>
      <point x="342" y="691"/>
      <point x="365" y="685"/>
      <point x="371" y="679" type="curve"/>
      <point x="381" y="667"/>
      <point x="382" y="664"/>
      <point x="382" y="656" type="curve" smooth="yes"/>
      <point x="382" y="651"/>
      <point x="381" y="646"/>
      <point x="380" y="641" type="curve" smooth="yes"/>
      <point x="378" y="633" type="line" smooth="yes"/>
      <point x="371" y="608"/>
      <point x="364" y="605"/>
      <point x="320" y="600" type="curve" smooth="yes"/>
      <point x="241" y="592"/>
      <point x="215" y="586"/>
      <point x="186" y="568" type="curve" smooth="yes"/>
      <point x="154" y="548"/>
      <point x="136" y="516"/>
      <point x="136" y="479" type="curve" smooth="yes"/>
      <point x="136" y="428"/>
      <point x="170" y="399"/>
      <point x="231" y="399" type="curve" smooth="yes"/>
      <point x="272" y="399"/>
      <point x="310" y="414"/>
      <point x="340" y="442" type="curve"/>
      <point x="343" y="414"/>
      <point x="359" y="399"/>
      <point x="387" y="399" type="curve" smooth="yes"/>
      <point x="394" y="399"/>
      <point x="396" y="399"/>
      <point x="413" y="403" type="curve"/>
      <point x="414" y="403"/>
      <point x="418" y="404"/>
      <point x="423" y="405" type="curve"/>
    </contour>
    <contour>
      <point x="353" y="515" type="line" smooth="yes"/>
      <point x="347" y="483"/>
      <point x="294" y="449"/>
      <point x="249" y="449" type="curve" smooth="yes"/>
      <point x="214" y="449"/>
      <point x="196" y="461"/>
      <point x="196" y="486" type="curve" smooth="yes"/>
      <point x="196" y="503"/>
      <point x="208" y="523"/>
      <point x="224" y="533" type="curve" smooth="yes"/>
      <point x="242" y="544"/>
      <point x="255" y="547"/>
      <point x="312" y="555" type="curve" smooth="yes"/>
      <point x="336" y="558"/>
      <point x="346" y="560"/>
      <point x="363" y="566" type="curve"/>
    </contour>
  </outline>
</glyph>
<glyph name="guillemotleft" format="1">
  <advance width="556"/>
  <unicode hex="00AB"/>
  <outline>
    <contour>
      <point x="147" y="227" type="line"/>
      <point x="272" y="106" type="line"/>
      <point x="290" y="188" type="line"/>
      <point x="204" y="271" type="line"/>
      <point x="325" y="355" type="line"/>
      <point x="343" y="438" type="line"/>
      <point x="166" y="316" type="line"/>
    </contour>
    <contour>
      <point x="352" y="227" type="line"/>
      <point x="477" y="106" type="line"/>
      <point x="495" y="188" type="line"/>
      <point x="409" y="271" type="line"/>
      <point x="530" y="355" type="line"/>
      <point x="548" y="438" type="line"/>
      <point x="371" y="316" type="line"/>
    </contour>
  </outline>
</glyph>
<glyph name="logicalnot" format="1">
  <advance width="584"/>
  <unicode hex="00AC"/>
  <outline>
    <contour>
      <point x="114" y="377" type="line"/>
      <point x="99" y="305" type="line"/>
      <point x="534" y="305" type="line"/>
      <point x="488" y="86" type="line"/>
      <point x="558" y="86" type="line"/>
      <point x="619" y="377" type="line"/>
    </contour>
  </outline>
</glyph>
<glyph name="registered" format="1">
  <advance width="737"/>
  <unicode hex="00AE"/>
  <outline>
    <contour>
      <point x="341" y="325" type="line"/>
      <point x="475" y="325" type="line" smooth="yes"/>
      <point x="511" y="325"/>
      <point x="529" y="312"/>
      <point x="529" y="285" type="curve" smooth="yes"/>
      <point x="529" y="276"/>
      <point x="527" y="264"/>
      <point x="525" y="253" type="curve"/>
      <point x="511" y="197"/>
      <point x="510" y="194"/>
      <point x="510" y="168" type="curve" smooth="yes"/>
      <point x="510" y="158"/>
      <point x="511" y="152"/>
      <point x="514" y="140" type="curve"/>
      <point x="592" y="140" type="line"/>
      <point x="597" y="165" type="line"/>
      <point x="588" y="173"/>
      <point x="585" y="180"/>
      <point x="585" y="194" type="curve" smooth="yes"/>
      <point x="585" y="205"/>
      <point x="587" y="216"/>
      <point x="592" y="248" type="curve" smooth="yes"/>
      <point x="598" y="277"/>
      <point x="600" y="294"/>
      <point x="600" y="304" type="curve" smooth="yes"/>
      <point x="600" y="331"/>
      <point x="594" y="342"/>
      <point x="571" y="360" type="curve"/>
      <point x="606" y="381"/>
      <point x="621" y="395"/>
      <point x="633" y="418" type="curve" smooth="yes"/>
      <point x="644" y="440"/>
      <point x="651" y="470"/>
      <point x="651" y="496" type="curve" smooth="yes"/>
      <point x="651" y="557"/>
      <point x="613" y="585"/>
      <point x="532" y="585" type="curve" smooth="yes"/>
      <point x="326" y="585" type="line"/>
      <point x="232" y="140" type="line"/>
      <point x="302" y="140" type="line"/>
    </contour>
    <contour>
      <point x="355" y="388" type="line"/>
      <point x="383" y="522" type="line"/>
      <point x="512" y="522" type="line" smooth="yes"/>
      <point x="556" y="522"/>
      <point x="575" y="509"/>
      <point x="575" y="476" type="curve" smooth="yes"/>
      <point x="575" y="455"/>
      <point x="567" y="431"/>
      <point x="556" y="416" type="curve" smooth="yes"/>
      <point x="540" y="396"/>
      <point x="519" y="388"/>
      <point x="484" y="388" type="curve" smooth="yes"/>
    </contour>
    <contour>
      <point x="530" y="742" type="curve" smooth="yes"/>
      <point x="284" y="742"/>
      <point x="55" y="520"/>
      <point x="55" y="281" type="curve" smooth="yes"/>
      <point x="55" y="106"/>
      <point x="184" y="-22"/>
      <point x="361" y="-22" type="curve" smooth="yes"/>
      <point x="607" y="-22"/>
      <point x="836" y="200"/>
      <point x="836" y="440" type="curve" smooth="yes"/>
      <point x="836" y="614"/>
      <point x="707" y="742"/>
    </contour>
    <contour>
      <point x="516" y="680" type="curve" smooth="yes"/>
      <point x="660" y="680"/>
      <point x="766" y="573"/>
      <point x="766" y="428" type="curve" smooth="yes"/>
      <point x="766" y="227"/>
      <point x="577" y="40"/>
      <point x="375" y="40" type="curve" smooth="yes"/>
      <point x="231" y="40"/>
      <point x="125" y="147"/>
      <point x="125" y="293" type="curve" smooth="yes"/>
      <point x="125" y="493"/>
      <point x="314" y="680"/>
    </contour>
  </outline>
</glyph>
<glyph name="macron" format="1">
  <advance width="333"/>
  <unicode hex="00AF"/>
  <outline>
    <contour>
      <point x="450" y="696" type="line"/>
      <point x="175" y="696" type="line"/>
      <point x="160" y="627" type="line"/>
      <point x="435" y="627" type="line"/>
    </contour>
  </outline>
</glyph>
<glyph name="degree" format="1">
  <advance width="606"/>
  <unicode hex="00B0"/>
  <outline>
    <contour>
      <point x="442" y="686" type="curve" smooth="yes"/>
      <point x="359" y="686"/>
      <point x="291" y="618"/>
      <point x="291" y="535" type="curve" smooth="yes"/>
      <point x="291" y="452"/>
      <point x="359" y="383"/>
      <point x="441" y="383" type="curve" smooth="yes"/>
      <point x="526" y="383"/>
      <point x="594" y="450"/>
      <point x="594" y="535" type="curve" smooth="yes"/>
      <point x="594" y="618"/>
      <point x="526" y="686"/>
    </contour>
    <contour>
      <point x="443" y="643" type="curve" smooth="yes"/>
      <point x="501" y="643"/>
      <point x="549" y="594"/>
      <point x="549" y="535" type="curve" smooth="yes"/>
      <point x="549" y="474"/>
      <point x="501" y="426"/>
      <point x="441" y="426" type="curve" smooth="yes"/>
      <point x="384" y="426"/>
      <point x="336" y="476"/>
      <point x="336" y="535" type="curve" smooth="yes"/>
      <point x="336" y="594"/>
      <point x="384" y="643"/>
    </contour>
  </outline>
</glyph>
<glyph name="plusminus" format="1">
  <advance width="584"/>
  <unicode hex="00B1"/>
  <outline>
    <contour>
      <point x="625" y="429" type="line"/>
      <point x="418" y="429" type="line"/>
      <point x="462" y="633" type="line"/>
      <point x="391" y="633" type="line"/>
      <point x="348" y="429" type="line"/>
      <point x="141" y="429" type="line"/>
      <point x="126" y="357" type="line"/>
      <point x="333" y="357" type="line"/>
      <point x="288" y="149" type="line"/>
      <point x="359" y="149" type="line"/>
      <point x="403" y="357" type="line"/>
      <point x="610" y="357" type="line"/>
    </contour>
    <contour>
      <point x="549" y="72" type="line"/>
      <point x="65" y="72" type="line"/>
      <point x="50" y="0" type="line"/>
      <point x="534" y="0" type="line"/>
    </contour>
  </outline>
</glyph>
<glyph name="acute" format="1">
  <advance width="333"/>
  <unicode hex="00B4"/>
  <outline>
    <contour>
      <point x="346" y="740" type="line"/>
      <point x="218" y="592" type="line"/>
      <point x="278" y="592" type="line"/>
      <point x="458" y="740" type="line"/>
    </contour>
  </outline>
</glyph>
<glyph name="paragraph" format="1">
  <advance width="537"/>
  <unicode hex="00B6"/>
  <outline>
    <contour>
      <point x="677" y="729" type="line"/>
      <point x="427" y="729" type="line" smooth="yes"/>
      <point x="281" y="729"/>
      <point x="145" y="588"/>
      <point x="145" y="436" type="curve" smooth="yes"/>
      <point x="145" y="329"/>
      <point x="207" y="262"/>
      <point x="310" y="259" type="curve"/>
      <point x="217" y="-178" type="line"/>
      <point x="281" y="-178" type="line"/>
      <point x="460" y="665" type="line"/>
      <point x="543" y="665" type="line"/>
      <point x="364" y="-178" type="line"/>
      <point x="428" y="-178" type="line"/>
      <point x="607" y="665" type="line"/>
      <point x="663" y="665" type="line"/>
    </contour>
  </outline>
</glyph>
<glyph name="periodcentered" format="1">
  <advance width="278"/>
  <unicode hex="00B7"/>
  <outline>
    <contour>
      <point x="293" y="295" type="line"/>
      <point x="188" y="295" type="line"/>
      <point x="166" y="192" type="line"/>
      <point x="271" y="192" type="line"/>
    </contour>
  </outline>
</glyph>
<glyph name="cedilla" format="1">
  <advance width="333"/>
  <unicode hex="00B8"/>
  <outline>
    <contour>
      <point x="165" y="0" type="line"/>
      <point x="115" y="-92" type="line"/>
      <point x="128" y="-98" type="line"/>
      <point x="135" y="-97" type="line" smooth="yes"/>
      <point x="151" y="-94"/>
      <point x="151" y="-94"/>
      <point x="155" y="-94" type="curve" smooth="yes"/>
      <point x="172" y="-94"/>
      <point x="186" y="-104"/>
      <point x="186" y="-116" type="curve" smooth="yes"/>
      <point x="186" y="-148"/>
      <point x="160" y="-171"/>
      <point x="123" y="-171" type="curve" smooth="yes"/>
      <point x="95" y="-171"/>
      <point x="70" y="-163"/>
      <point x="29" y="-142" type="curve"/>
      <point x="1" y="-180" type="line"/>
      <point x="52" y="-206"/>
      <point x="81" y="-214"/>
      <point x="119" y="-214" type="curve" smooth="yes"/>
      <point x="203" y="-214"/>
      <point x="264" y="-168"/>
      <point x="264" y="-105" type="curve" smooth="yes"/>
      <point x="264" y="-77"/>
      <point x="234" y="-54"/>
      <point x="197" y="-54" type="curve" smooth="yes"/>
      <point x="193" y="-54"/>
      <point x="189" y="-54"/>
      <point x="176" y="-56" type="curve"/>
      <point x="206" y="0" type="line"/>
    </contour>
  </outline>
</glyph>
<glyph name="ordmasculine" format="1">
  <advance width="365"/>
  <unicode hex="00BA"/>
  <outline>
    <contour>
      <point x="388" y="354" type="line"/>
      <point x="125" y="354" type="line"/>
      <point x="114" y="303" type="line"/>
      <point x="377" y="303" type="line"/>
    </contour>
    <contour>
      <point x="336" y="742" type="curve" smooth="yes"/>
      <point x="281" y="742"/>
      <point x="229" y="716"/>
      <point x="197" y="672" type="curve" smooth="yes"/>
      <point x="169" y="635"/>
      <point x="149" y="565"/>
      <point x="149" y="509" type="curve" smooth="yes"/>
      <point x="149" y="444"/>
      <point x="195" y="399"/>
      <point x="262" y="399" type="curve" smooth="yes"/>
      <point x="321" y="399"/>
      <point x="370" y="424"/>
      <point x="404" y="470" type="curve" smooth="yes"/>
      <point x="431" y="508"/>
      <point x="452" y="576"/>
      <point x="452" y="627" type="curve" smooth="yes"/>
      <point x="452" y="660"/>
      <point x="437" y="697"/>
      <point x="417" y="716" type="curve" smooth="yes"/>
      <point x="399" y="732"/>
      <point x="369" y="742"/>
    </contour>
    <contour>
      <point x="327" y="690" type="curve" smooth="yes"/>
      <point x="367" y="690"/>
      <point x="392" y="662"/>
      <point x="392" y="617" type="curve" smooth="yes"/>
      <point x="392" y="524"/>
      <point x="341" y="451"/>
      <point x="276" y="451" type="curve" smooth="yes"/>
      <point x="234" y="451"/>
      <point x="209" y="478"/>
      <point x="209" y="525" type="curve" smooth="yes"/>
      <point x="209" y="618"/>
      <point x="261" y="690"/>
    </contour>
  </outline>
</glyph>
<glyph name="guillemotright" format="1">
  <advance width="556"/>
  <unicode hex="00BB"/>
  <outline>
    <contour>
      <point x="319" y="317" type="line"/>
      <point x="192" y="438" type="line"/>
      <point x="174" y="356" type="line"/>
      <point x="262" y="273" type="line"/>
      <point x="139" y="189" type="line"/>
      <point x="121" y="106" type="line"/>
      <point x="300" y="228" type="line"/>
    </contour>
    <contour>
      <point x="518" y="317" type="line"/>
      <point x="391" y="438" type="line"/>
      <point x="373" y="356" type="line"/>
      <point x="461" y="273" type="line"/>
      <point x="338" y="189" type="line"/>
      <point x="320" y="106" type="line"/>
      <point x="499" y="228" type="line"/>
    </contour>
  </outline>
</glyph>
<glyph name="onequarter" format="1">
  <advance width="947"/>
  <unicode hex="00BC"/>
  <outline>
    <contour>
      <point x="302" y="580" type="line"/>
      <point x="239" y="284" type="line"/>
      <point x="303" y="284" type="line"/>
      <point x="393" y="709" type="line"/>
      <point x="349" y="709" type="line"/>
      <point x="316" y="644"/>
      <point x="306" y="638"/>
      <point x="215" y="626" type="curve"/>
      <point x="205" y="580" type="line"/>
    </contour>
    <contour>
      <point x="818" y="709" type="line"/>
      <point x="212" y="-20" type="line"/>
      <point x="270" y="-20" type="line"/>
      <point x="876" y="709" type="line"/>
    </contour>
    <contour>
      <point x="798" y="100" type="line"/>
      <point x="777" y="0" type="line"/>
      <point x="840" y="0" type="line"/>
      <point x="861" y="100" type="line"/>
      <point x="926" y="100" type="line"/>
      <point x="938" y="155" type="line"/>
      <point x="873" y="155" type="line"/>
      <point x="930" y="425" type="line"/>
      <point x="883" y="425" type="line"/>
      <point x="627" y="160" type="line"/>
      <point x="614" y="100" type="line"/>
    </contour>
    <contour>
      <point x="810" y="155" type="line"/>
      <point x="688" y="155" type="line"/>
      <point x="844" y="316" type="line"/>
    </contour>
  </outline>
</glyph>
<glyph name="onehalf" format="1">
  <advance width="947"/>
  <unicode hex="00BD"/>
  <outline>
    <contour>
      <point x="302" y="580" type="line"/>
      <point x="239" y="284" type="line"/>
      <point x="303" y="284" type="line"/>
      <point x="393" y="709" type="line"/>
      <point x="349" y="709" type="line"/>
      <point x="316" y="644"/>
      <point x="306" y="638"/>
      <point x="215" y="626" type="curve"/>
      <point x="205" y="580" type="line"/>
    </contour>
    <contour>
      <point x="808" y="709" type="line"/>
      <point x="202" y="-20" type="line"/>
      <point x="260" y="-20" type="line"/>
      <point x="866" y="709" type="line"/>
    </contour>
    <contour>
      <point x="909" y="60" type="line"/>
      <point x="678" y="60" type="line"/>
      <point x="697" y="91"/>
      <point x="719" y="108"/>
      <point x="773" y="135" type="curve" smooth="yes"/>
      <point x="841" y="168" type="line" smooth="yes"/>
      <point x="924" y="209"/>
      <point x="965" y="259"/>
      <point x="965" y="319" type="curve" smooth="yes"/>
      <point x="965" y="384"/>
      <point x="917" y="425"/>
      <point x="842" y="425" type="curve" smooth="yes"/>
      <point x="743" y="425"/>
      <point x="688" y="378"/>
      <point x="664" y="271" type="curve"/>
      <point x="727" y="271" type="line"/>
      <point x="744" y="340"/>
      <point x="776" y="370"/>
      <point x="832" y="370" type="curve" smooth="yes"/>
      <point x="873" y="370"/>
      <point x="900" y="346"/>
      <point x="900" y="310" type="curve" smooth="yes"/>
      <point x="900" y="275"/>
      <point x="872" y="241"/>
      <point x="825" y="219" type="curve" smooth="yes"/>
      <point x="762" y="188" type="line" smooth="yes"/>
      <point x="652" y="132"/>
      <point x="625" y="101"/>
      <point x="597" y="0" type="curve"/>
      <point x="897" y="0" type="line"/>
    </contour>
  </outline>
</glyph>
<glyph name="questiondown" format="1">
  <advance width="611"/>
  <unicode hex="00BF"/>
  <outline>
    <contour>
      <point x="344" y="325" type="line"/>
      <point x="334" y="278" type="line"/>
      <point x="320" y="228"/>
      <point x="304" y="209"/>
      <point x="230" y="154" type="curve" smooth="yes"/>
      <point x="182" y="117"/>
      <point x="157" y="94"/>
      <point x="137" y="68" type="curve" smooth="yes"/>
      <point x="105" y="26"/>
      <point x="86" y="-26"/>
      <point x="86" y="-72" type="curve" smooth="yes"/>
      <point x="86" y="-104"/>
      <point x="99" y="-137"/>
      <point x="121" y="-162" type="curve" smooth="yes"/>
      <point x="154" y="-200"/>
      <point x="199" y="-217"/>
      <point x="266" y="-217" type="curve" smooth="yes"/>
      <point x="410" y="-217"/>
      <point x="500" y="-138"/>
      <point x="531" y="17" type="curve"/>
      <point x="446" y="17" type="line"/>
      <point x="424" y="-92"/>
      <point x="376" y="-140"/>
      <point x="288" y="-140" type="curve" smooth="yes"/>
      <point x="223" y="-140"/>
      <point x="181" y="-106"/>
      <point x="181" y="-53" type="curve" smooth="yes"/>
      <point x="181" y="1"/>
      <point x="213" y="50"/>
      <point x="285" y="107" type="curve" smooth="yes"/>
      <point x="390" y="187"/>
      <point x="408" y="209"/>
      <point x="422" y="270" type="curve" smooth="yes"/>
      <point x="434" y="325" type="line"/>
    </contour>
    <contour>
      <point x="364" y="421" type="line"/>
      <point x="454" y="421" type="line"/>
      <point x="476" y="524" type="line"/>
      <point x="386" y="524" type="line"/>
    </contour>
  </outline>
</glyph>
<glyph name="Agrave" format="1">
  <advance width="667"/>
  <unicode hex="00C0"/>
  <outline>
    <contour>
      <point x="524" y="219" type="line"/>
      <point x="551" y="0" type="line"/>
      <point x="653" y="0" type="line"/>
      <point x="552" y="729" type="line"/>
      <point x="432" y="729" type="line"/>
      <point x="17" y="0" type="line"/>
      <point x="116" y="0" type="line"/>
      <point x="239" y="219" type="line"/>
    </contour>
    <contour>
      <point x="514" y="297" type="line"/>
      <point x="283" y="297" type="line"/>
      <point x="474" y="630" type="line"/>
    </contour>
    <contour>
      <point x="483" y="939" type="line"/>
      <point x="377" y="939" type="line"/>
      <point x="502" y="791" type="line"/>
      <point x="555" y="791" type="line"/>
    </contour>
  </outline>
</glyph>
<glyph name="Aacute" format="1">
  <advance width="667"/>
  <unicode hex="00C1"/>
  <outline>
    <contour>
      <point x="524" y="219" type="line"/>
      <point x="551" y="0" type="line"/>
      <point x="653" y="0" type="line"/>
      <point x="552" y="729" type="line"/>
      <point x="432" y="729" type="line"/>
      <point x="17" y="0" type="line"/>
      <point x="116" y="0" type="line"/>
      <point x="239" y="219" type="line"/>
    </contour>
    <contour>
      <point x="514" y="297" type="line"/>
      <point x="283" y="297" type="line"/>
      <point x="474" y="630" type="line"/>
    </contour>
    <contour>
      <point x="555" y="939" type="line"/>
      <point x="427" y="791" type="line"/>
      <point x="487" y="791" type="line"/>
      <point x="667" y="939" type="line"/>
    </contour>
  </outline>
</glyph>
<glyph name="Acircumflex" format="1">
  <advance width="667"/>
  <unicode hex="00C2"/>
  <outline>
    <contour>
      <point x="524" y="219" type="line"/>
      <point x="551" y="0" type="line"/>
      <point x="653" y="0" type="line"/>
      <point x="552" y="729" type="line"/>
      <point x="432" y="729" type="line"/>
      <point x="17" y="0" type="line"/>
      <point x="116" y="0" type="line"/>
      <point x="239" y="219" type="line"/>
    </contour>
    <contour>
      <point x="514" y="297" type="line"/>
      <point x="283" y="297" type="line"/>
      <point x="474" y="630" type="line"/>
    </contour>
    <contour>
      <point x="486" y="940" type="line"/>
      <point x="358" y="790" type="line"/>
      <point x="422" y="790" type="line"/>
      <point x="526" y="889" type="line"/>
      <point x="582" y="790" type="line"/>
      <point x="645" y="790" type="line"/>
      <point x="581" y="940" type="line"/>
    </contour>
  </outline>
</glyph>
<glyph name="Atilde" format="1">
  <advance width="667"/>
  <unicode hex="00C3"/>
  <outline>
    <contour>
      <point x="524" y="219" type="line"/>
      <point x="551" y="0" type="line"/>
      <point x="653" y="0" type="line"/>
      <point x="552" y="729" type="line"/>
      <point x="432" y="729" type="line"/>
      <point x="17" y="0" type="line"/>
      <point x="116" y="0" type="line"/>
      <point x="239" y="219" type="line"/>
    </contour>
    <contour>
      <point x="514" y="297" type="line"/>
      <point x="283" y="297" type="line"/>
      <point x="474" y="630" type="line"/>
    </contour>
    <contour>
      <point x="627" y="918" type="line"/>
      <point x="609" y="889"/>
      <point x="599" y="881"/>
      <point x="579" y="881" type="curve" smooth="yes"/>
      <point x="569" y="881"/>
      <point x="542" y="887"/>
      <point x="516" y="896" type="curve" smooth="yes"/>
      <point x="477" y="909"/>
      <point x="460" y="913"/>
      <point x="443" y="913" type="curve" smooth="yes"/>
      <point x="418" y="913"/>
      <point x="387" y="898"/>
      <point x="371" y="877" type="curve" smooth="yes"/>
      <point x="359" y="862"/>
      <point x="351" y="845"/>
      <point x="339" y="810" type="curve"/>
      <point x="392" y="810" type="line"/>
      <point x="395" y="814"/>
      <point x="397" y="817"/>
      <point x="399" y="819" type="curve"/>
      <point x="411" y="837"/>
      <point x="423" y="843"/>
      <point x="442" y="843" type="curve" smooth="yes"/>
      <point x="448" y="843"/>
      <point x="458" y="841"/>
      <point x="469" y="837" type="curve" smooth="yes"/>
      <point x="533" y="815"/>
      <point x="550" y="811"/>
      <point x="572" y="811" type="curve" smooth="yes"/>
      <point x="617" y="811"/>
      <point x="659" y="853"/>
      <point x="680" y="918" type="curve"/>
    </contour>
  </outline>
</glyph>
<glyph name="Adieresis" format="1">
  <advance width="667"/>
  <unicode hex="00C4"/>
  <outline>
    <contour>
      <point x="524" y="219" type="line"/>
      <point x="551" y="0" type="line"/>
      <point x="653" y="0" type="line"/>
      <point x="552" y="729" type="line"/>
      <point x="432" y="729" type="line"/>
      <point x="17" y="0" type="line"/>
      <point x="116" y="0" type="line"/>
      <point x="239" y="219" type="line"/>
    </contour>
    <contour>
      <point x="514" y="297" type="line"/>
      <point x="283" y="297" type="line"/>
      <point x="474" y="630" type="line"/>
    </contour>
    <contour>
      <point x="501" y="914" type="line"/>
      <point x="397" y="914" type="line"/>
      <point x="375" y="811" type="line"/>
      <point x="479" y="811" type="line"/>
    </contour>
    <contour>
      <point x="662" y="914" type="line"/>
      <point x="558" y="914" type="line"/>
      <point x="536" y="811" type="line"/>
      <point x="640" y="811" type="line"/>
    </contour>
  </outline>
</glyph>
<glyph name="Aring" format="1">
  <advance width="667"/>
  <unicode hex="00C5"/>
  <outline>
    <contour>
      <point x="524" y="219" type="line"/>
      <point x="551" y="0" type="line"/>
      <point x="653" y="0" type="line"/>
      <point x="552" y="729" type="line"/>
      <point x="432" y="729" type="line"/>
      <point x="17" y="0" type="line"/>
      <point x="116" y="0" type="line"/>
      <point x="239" y="219" type="line"/>
    </contour>
    <contour>
      <point x="514" y="297" type="line"/>
      <point x="283" y="297" type="line"/>
      <point x="474" y="630" type="line"/>
    </contour>
    <contour>
      <point x="533" y="953" type="curve" smooth="yes"/>
      <point x="479" y="953"/>
      <point x="425" y="901"/>
      <point x="425" y="848" type="curve" smooth="yes"/>
      <point x="425" y="809"/>
      <point x="456" y="778"/>
      <point x="496" y="778" type="curve" smooth="yes"/>
      <point x="553" y="778"/>
      <point x="605" y="830"/>
      <point x="605" y="886" type="curve" smooth="yes"/>
      <point x="605" y="924"/>
      <point x="574" y="953"/>
    </contour>
    <contour>
      <point x="526" y="909" type="curve" smooth="yes"/>
      <point x="545" y="909"/>
      <point x="560" y="894"/>
      <point x="560" y="874" type="curve" smooth="yes"/>
      <point x="560" y="848"/>
      <point x="533" y="822"/>
      <point x="506" y="822" type="curve" smooth="yes"/>
      <point x="486" y="822"/>
      <point x="471" y="836"/>
      <point x="471" y="857" type="curve" smooth="yes"/>
      <point x="471" y="883"/>
      <point x="498" y="909"/>
    </contour>
  </outline>
</glyph>
<glyph name="AE" format="1">
  <advance width="1000"/>
  <unicode hex="00C6"/>
  <outline>
    <contour>
      <point x="513" y="214" type="line"/>
      <point x="468" y="0" type="line"/>
      <point x="950" y="0" type="line"/>
      <point x="967" y="82" type="line"/>
      <point x="579" y="82" type="line"/>
      <point x="632" y="332" type="line"/>
      <point x="983" y="332" type="line"/>
      <point x="1001" y="414" type="line"/>
      <point x="650" y="414" type="line"/>
      <point x="699" y="647" type="line"/>
      <point x="1070" y="647" type="line"/>
      <point x="1087" y="729" type="line"/>
      <point x="465" y="729" type="line"/>
      <point x="11" y="0" type="line"/>
      <point x="114" y="0" type="line"/>
      <point x="244" y="214" type="line"/>
    </contour>
    <contour>
      <point x="531" y="295" type="line"/>
      <point x="293" y="295" type="line"/>
      <point x="505" y="647" type="line"/>
      <point x="605" y="647" type="line"/>
    </contour>
  </outline>
</glyph>
<glyph name="Ccedilla" format="1">
  <advance width="722"/>
  <unicode hex="00C7"/>
  <outline>
    <contour>
      <point x="368" y="-23" type="line"/>
      <point x="542" y="-21"/>
      <point x="656" y="68"/>
      <point x="735" y="266" type="curve"/>
      <point x="637" y="266" type="line"/>
      <point x="612" y="209"/>
      <point x="596" y="179"/>
      <point x="578" y="155" type="curve" smooth="yes"/>
      <point x="536" y="95"/>
      <point x="460" y="58"/>
      <point x="381" y="58" type="curve" smooth="yes"/>
      <point x="277" y="58"/>
      <point x="208" y="139"/>
      <point x="208" y="260" type="curve" smooth="yes"/>
      <point x="208" y="351"/>
      <point x="238" y="451"/>
      <point x="289" y="527" type="curve" smooth="yes"/>
      <point x="350" y="617"/>
      <point x="423" y="660"/>
      <point x="515" y="660" type="curve" smooth="yes"/>
      <point x="616" y="660"/>
      <point x="666" y="611"/>
      <point x="674" y="503" type="curve"/>
      <point x="770" y="503" type="line"/>
      <point x="767" y="562"/>
      <point x="757" y="600"/>
      <point x="738" y="634" type="curve" smooth="yes"/>
      <point x="697" y="704"/>
      <point x="626" y="741"/>
      <point x="532" y="741" type="curve" smooth="yes"/>
      <point x="415" y="741"/>
      <point x="318" y="694"/>
      <point x="240" y="600" type="curve" smooth="yes"/>
      <point x="161" y="505"/>
      <point x="112" y="367"/>
      <point x="112" y="242" type="curve" smooth="yes"/>
      <point x="112" y="156"/>
      <point x="142" y="81"/>
      <point x="197" y="32" type="curve" smooth="yes"/>
      <point x="232" y="1"/>
      <point x="261" y="-11"/>
      <point x="328" y="-21" type="curve"/>
      <point x="290" y="-92" type="line"/>
      <point x="303" y="-98" type="line"/>
      <point x="310" y="-97" type="line"/>
      <point x="325" y="-94"/>
      <point x="325" y="-94"/>
      <point x="330" y="-94" type="curve" smooth="yes"/>
      <point x="347" y="-94"/>
      <point x="361" y="-104"/>
      <point x="361" y="-116" type="curve" smooth="yes"/>
      <point x="361" y="-148"/>
      <point x="335" y="-171"/>
      <point x="298" y="-171" type="curve" smooth="yes"/>
      <point x="270" y="-171"/>
      <point x="244" y="-163"/>
      <point x="204" y="-142" type="curve"/>
      <point x="176" y="-180" type="line"/>
      <point x="227" y="-206"/>
      <point x="256" y="-214"/>
      <point x="294" y="-214" type="curve" smooth="yes"/>
      <point x="378" y="-214"/>
      <point x="439" y="-168"/>
      <point x="439" y="-105" type="curve" smooth="yes"/>
      <point x="439" y="-77"/>
      <point x="409" y="-54"/>
      <point x="372" y="-54" type="curve" smooth="yes"/>
      <point x="367" y="-54"/>
      <point x="364" y="-54"/>
      <point x="351" y="-56" type="curve"/>
    </contour>
  </outline>
</glyph>
<glyph name="Egrave" format="1">
  <advance width="667"/>
  <unicode hex="00C8"/>
  <outline>
    <contour>
      <point x="255" y="332" type="line"/>
      <point x="650" y="332" type="line"/>
      <point x="668" y="414" type="line"/>
      <point x="272" y="414" type="line"/>
      <point x="322" y="647" type="line"/>
      <point x="734" y="647" type="line"/>
      <point x="751" y="729" type="line"/>
      <point x="245" y="729" type="line"/>
      <point x="90" y="0" type="line"/>
      <point x="613" y="0" type="line"/>
      <point x="630" y="82" type="line"/>
      <point x="201" y="82" type="line"/>
    </contour>
    <contour>
      <point x="495" y="939" type="line"/>
      <point x="389" y="939" type="line"/>
      <point x="514" y="791" type="line"/>
      <point x="567" y="791" type="line"/>
    </contour>
  </outline>
</glyph>
<glyph name="Ecircumflex" format="1">
  <advance width="667"/>
  <unicode hex="00CA"/>
  <outline>
    <contour>
      <point x="255" y="332" type="line"/>
      <point x="650" y="332" type="line"/>
      <point x="668" y="414" type="line"/>
      <point x="272" y="414" type="line"/>
      <point x="322" y="647" type="line"/>
      <point x="734" y="647" type="line"/>
      <point x="751" y="729" type="line"/>
      <point x="245" y="729" type="line"/>
      <point x="90" y="0" type="line"/>
      <point x="613" y="0" type="line"/>
      <point x="630" y="82" type="line"/>
      <point x="201" y="82" type="line"/>
    </contour>
    <contour>
      <point x="495" y="940" type="line"/>
      <point x="367" y="790" type="line"/>
      <point x="431" y="790" type="line"/>
      <point x="535" y="889" type="line"/>
      <point x="591" y="790" type="line"/>
      <point x="654" y="790" type="line"/>
      <point x="590" y="940" type="line"/>
    </contour>
  </outline>
</glyph>
<glyph name="Igrave" format="1">
  <advance width="278"/>
  <unicode hex="00CC"/>
  <outline>
    <contour>
      <point x="349" y="729" type="line"/>
      <point x="255" y="729" type="line"/>
      <point x="100" y="0" type="line"/>
      <point x="194" y="0" type="line"/>
    </contour>
    <contour>
      <point x="306" y="939" type="line"/>
      <point x="200" y="939" type="line"/>
      <point x="325" y="791" type="line"/>
      <point x="378" y="791" type="line"/>
    </contour>
  </outline>
</glyph>
<glyph name="Icircumflex" format="1">
  <advance width="278"/>
  <unicode hex="00CE"/>
  <outline>
    <contour>
      <point x="349" y="729" type="line"/>
      <point x="255" y="729" type="line"/>
      <point x="100" y="0" type="line"/>
      <point x="194" y="0" type="line"/>
    </contour>
    <contour>
      <point x="295" y="940" type="line"/>
      <point x="167" y="790" type="line"/>
      <point x="231" y="790" type="line"/>
      <point x="335" y="889" type="line"/>
      <point x="391" y="790" type="line"/>
      <point x="454" y="790" type="line"/>
      <point x="390" y="940" type="line"/>
    </contour>
  </outline>
</glyph>
<glyph name="Eth" format="1">
  <advance width="722"/>
  <unicode hex="00D0"/>
  <outline>
    <contour>
      <point x="161" y="341" type="line"/>
      <point x="89" y="0" type="line"/>
      <point x="371" y="0" type="line" smooth="yes"/>
      <point x="479" y="0"/>
      <point x="570" y="45"/>
      <point x="643" y="134" type="curve" smooth="yes"/>
      <point x="711" y="217"/>
      <point x="759" y="363"/>
      <point x="759" y="488" type="curve" smooth="yes"/>
      <point x="759" y="561"/>
      <point x="729" y="635"/>
      <point x="682" y="677" type="curve" smooth="yes"/>
      <point x="644" y="711"/>
      <point x="591" y="729"/>
      <point x="526" y="729" type="curve" smooth="yes"/>
      <point x="244" y="729" type="line"/>
      <point x="176" y="408" type="line"/>
      <point x="106" y="408" type="line"/>
      <point x="93" y="341" type="line"/>
    </contour>
    <contour>
      <point x="255" y="341" type="line"/>
      <point x="422" y="341" type="line"/>
      <point x="436" y="408" type="line"/>
      <point x="270" y="408" type="line"/>
      <point x="321" y="647" type="line"/>
      <point x="492" y="647" type="line" smooth="yes"/>
      <point x="599" y="647"/>
      <point x="663" y="585"/>
      <point x="663" y="480" type="curve" smooth="yes"/>
      <point x="663" y="389"/>
      <point x="631" y="268"/>
      <point x="591" y="205" type="curve" smooth="yes"/>
      <point x="539" y="125"/>
      <point x="463" y="82"/>
      <point x="372" y="82" type="curve" smooth="yes"/>
      <point x="200" y="82" type="line"/>
    </contour>
  </outline>
</glyph>
<glyph name="Ntilde" format="1">
  <advance width="722"/>
  <unicode hex="00D1"/>
  <outline>
    <contour>
      <point x="801" y="729" type="line"/>
      <point x="712" y="729" type="line"/>
      <point x="585" y="131" type="line"/>
      <point x="335" y="729" type="line"/>
      <point x="231" y="729" type="line"/>
      <point x="76" y="0" type="line"/>
      <point x="165" y="0" type="line"/>
      <point x="291" y="591" type="line"/>
      <point x="540" y="0" type="line"/>
      <point x="646" y="0" type="line"/>
    </contour>
    <contour>
      <point x="669" y="918" type="line"/>
      <point x="651" y="889"/>
      <point x="641" y="881"/>
      <point x="621" y="881" type="curve" smooth="yes"/>
      <point x="611" y="881"/>
      <point x="584" y="887"/>
      <point x="558" y="896" type="curve" smooth="yes"/>
      <point x="519" y="909"/>
      <point x="502" y="913"/>
      <point x="485" y="913" type="curve" smooth="yes"/>
      <point x="460" y="913"/>
      <point x="429" y="898"/>
      <point x="413" y="877" type="curve" smooth="yes"/>
      <point x="401" y="862"/>
      <point x="393" y="845"/>
      <point x="381" y="810" type="curve"/>
      <point x="434" y="810" type="line"/>
      <point x="437" y="814"/>
      <point x="439" y="817"/>
      <point x="441" y="819" type="curve"/>
      <point x="453" y="837"/>
      <point x="465" y="843"/>
      <point x="484" y="843" type="curve" smooth="yes"/>
      <point x="490" y="843"/>
      <point x="500" y="841"/>
      <point x="511" y="837" type="curve" smooth="yes"/>
      <point x="575" y="815"/>
      <point x="592" y="811"/>
      <point x="614" y="811" type="curve" smooth="yes"/>
      <point x="659" y="811"/>
      <point x="701" y="853"/>
      <point x="722" y="918" type="curve"/>
    </contour>
  </outline>
</glyph>
<glyph name="Ocircumflex" format="1">
  <advance width="778"/>
  <unicode hex="00D4"/>
  <outline>
    <contour>
      <point x="537" y="741" type="curve" smooth="yes"/>
      <point x="424" y="741"/>
      <point x="327" y="699"/>
      <point x="246" y="614" type="curve" smooth="yes"/>
      <point x="157" y="522"/>
      <point x="104" y="390"/>
      <point x="104" y="263" type="curve" smooth="yes"/>
      <point x="104" y="177"/>
      <point x="131" y="100"/>
      <point x="177" y="54" type="curve" smooth="yes"/>
      <point x="225" y="6"/>
      <point x="306" y="-23"/>
      <point x="391" y="-23" type="curve" smooth="yes"/>
      <point x="485" y="-23"/>
      <point x="570" y="4"/>
      <point x="635" y="54" type="curve" smooth="yes"/>
      <point x="752" y="144"/>
      <point x="828" y="306"/>
      <point x="828" y="464" type="curve" smooth="yes"/>
      <point x="828" y="543"/>
      <point x="800" y="619"/>
      <point x="756" y="664" type="curve" smooth="yes"/>
      <point x="707" y="713"/>
      <point x="628" y="741"/>
    </contour>
    <contour>
      <point x="525" y="660" type="curve" smooth="yes"/>
      <point x="593" y="660"/>
      <point x="657" y="632"/>
      <point x="691" y="588" type="curve" smooth="yes"/>
      <point x="718" y="553"/>
      <point x="732" y="505"/>
      <point x="732" y="446" type="curve" smooth="yes"/>
      <point x="732" y="355"/>
      <point x="700" y="257"/>
      <point x="647" y="185" type="curve" smooth="yes"/>
      <point x="589" y="104"/>
      <point x="501" y="58"/>
      <point x="404" y="58" type="curve" smooth="yes"/>
      <point x="339" y="58"/>
      <point x="276" y="86"/>
      <point x="241" y="130" type="curve" smooth="yes"/>
      <point x="214" y="164"/>
      <point x="200" y="213"/>
      <point x="200" y="271" type="curve" smooth="yes"/>
      <point x="200" y="363"/>
      <point x="231" y="460"/>
      <point x="284" y="533" type="curve" smooth="yes"/>
      <point x="342" y="613"/>
      <point x="431" y="660"/>
    </contour>
    <contour>
      <point x="538" y="940" type="line"/>
      <point x="410" y="790" type="line"/>
      <point x="474" y="790" type="line"/>
      <point x="578" y="889" type="line"/>
      <point x="634" y="790" type="line"/>
      <point x="697" y="790" type="line"/>
      <point x="633" y="940" type="line"/>
    </contour>
  </outline>
</glyph>
<glyph name="Otilde" format="1">
  <advance width="778"/>
  <unicode hex="00D5"/>
  <outline>
    <contour>
      <point x="537" y="741" type="curve" smooth="yes"/>
      <point x="424" y="741"/>
      <point x="327" y="699"/>
      <point x="246" y="614" type="curve" smooth="yes"/>
      <point x="157" y="522"/>
      <point x="104" y="390"/>
      <point x="104" y="263" type="curve" smooth="yes"/>
      <point x="104" y="177"/>
      <point x="131" y="100"/>
      <point x="177" y="54" type="curve" smooth="yes"/>
      <point x="225" y="6"/>
      <point x="306" y="-23"/>
      <point x="391" y="-23" type="curve" smooth="yes"/>
      <point x="485" y="-23"/>
      <point x="570" y="4"/>
      <point x="635" y="54" type="curve" smooth="yes"/>
      <point x="752" y="144"/>
      <point x="828" y="306"/>
      <point x="828" y="464" type="curve" smooth="yes"/>
      <point x="828" y="543"/>
      <point x="800" y="619"/>
      <point x="756" y="664" type="curve" smooth="yes"/>
      <point x="707" y="713"/>
      <point x="628" y="741"/>
    </contour>
    <contour>
      <point x="525" y="660" type="curve" smooth="yes"/>
      <point x="593" y="660"/>
      <point x="657" y="632"/>
      <point x="691" y="588" type="curve" smooth="yes"/>
      <point x="718" y="553"/>
      <point x="732" y="505"/>
      <point x="732" y="446" type="curve" smooth="yes"/>
      <point x="732" y="355"/>
      <point x="700" y="257"/>
      <point x="647" y="185" type="curve" smooth="yes"/>
      <point x="589" y="104"/>
      <point x="501" y="58"/>
      <point x="404" y="58" type="curve" smooth="yes"/>
      <point x="339" y="58"/>
      <point x="276" y="86"/>
      <point x="241" y="130" type="curve" smooth="yes"/>
      <point x="214" y="164"/>
      <point x="200" y="213"/>
      <point x="200" y="271" type="curve" smooth="yes"/>
      <point x="200" y="363"/>
      <point x="231" y="460"/>
      <point x="284" y="533" type="curve" smooth="yes"/>
      <point x="342" y="613"/>
      <point x="431" y="660"/>
    </contour>
    <contour>
      <point x="694" y="918" type="line"/>
      <point x="676" y="889"/>
      <point x="666" y="881"/>
      <point x="646" y="881" type="curve" smooth="yes"/>
      <point x="636" y="881"/>
      <point x="609" y="887"/>
      <point x="583" y="896" type="curve" smooth="yes"/>
      <point x="544" y="909"/>
      <point x="527" y="913"/>
      <point x="510" y="913" type="curve" smooth="yes"/>
      <point x="485" y="913"/>
      <point x="454" y="898"/>
      <point x="438" y="877" type="curve" smooth="yes"/>
      <point x="426" y="862"/>
      <point x="418" y="845"/>
      <point x="406" y="810" type="curve"/>
      <point x="459" y="810" type="line"/>
      <point x="462" y="814"/>
      <point x="464" y="817"/>
      <point x="466" y="819" type="curve"/>
      <point x="478" y="837"/>
      <point x="490" y="843"/>
      <point x="509" y="843" type="curve" smooth="yes"/>
      <point x="515" y="843"/>
      <point x="525" y="841"/>
      <point x="536" y="837" type="curve" smooth="yes"/>
      <point x="600" y="815"/>
      <point x="617" y="811"/>
      <point x="639" y="811" type="curve" smooth="yes"/>
      <point x="684" y="811"/>
      <point x="726" y="853"/>
      <point x="747" y="918" type="curve"/>
    </contour>
  </outline>
</glyph>
<glyph name="multiply" format="1">
  <advance width="584"/>
  <unicode hex="00D7"/>
  <outline>
    <contour>
      <point x="529" y="427" type="line"/>
      <point x="351" y="281" type="line"/>
      <point x="236" y="426" type="line"/>
      <point x="176" y="377" type="line"/>
      <point x="291" y="231" type="line"/>
      <point x="113" y="84" type="line"/>
      <point x="152" y="35" type="line"/>
      <point x="330" y="181" type="line"/>
      <point x="446" y="34" type="line"/>
      <point x="507" y="84" type="line"/>
      <point x="390" y="231" type="line"/>
      <point x="568" y="377" type="line"/>
    </contour>
  </outline>
</glyph>
<glyph name="Oslash" format="1">
  <advance width="778"/>
  <unicode hex="00D8"/>
  <outline>
    <contour>
      <point x="32" y="15" type="line"/>
      <point x="67" y="-24" type="line"/>
      <point x="158" y="57" type="line"/>
      <point x="209" y="5"/>
      <point x="285" y="-23"/>
      <point x="378" y="-23" type="curve" smooth="yes"/>
      <point x="467" y="-23"/>
      <point x="550" y="4"/>
      <point x="618" y="54" type="curve" smooth="yes"/>
      <point x="734" y="140"/>
      <point x="812" y="305"/>
      <point x="812" y="463" type="curve" smooth="yes"/>
      <point x="812" y="519"/>
      <point x="800" y="570"/>
      <point x="775" y="613" type="curve"/>
      <point x="867" y="696" type="line"/>
      <point x="832" y="735" type="line"/>
      <point x="745" y="657" type="line"/>
      <point x="701" y="709"/>
      <point x="616" y="741"/>
      <point x="519" y="741" type="curve" smooth="yes"/>
      <point x="407" y="741"/>
      <point x="309" y="698"/>
      <point x="229" y="614" type="curve" smooth="yes"/>
      <point x="142" y="522"/>
      <point x="88" y="390"/>
      <point x="88" y="268" type="curve" smooth="yes"/>
      <point x="88" y="205"/>
      <point x="102" y="141"/>
      <point x="126" y="100" type="curve"/>
    </contour>
    <contour>
      <point x="202" y="168" type="line"/>
      <point x="189" y="198"/>
      <point x="184" y="225"/>
      <point x="184" y="265" type="curve" smooth="yes"/>
      <point x="184" y="486"/>
      <point x="327" y="660"/>
      <point x="508" y="660" type="curve" smooth="yes"/>
      <point x="575" y="660"/>
      <point x="636" y="635"/>
      <point x="672" y="592" type="curve"/>
    </contour>
    <contour>
      <point x="700" y="546" type="line"/>
      <point x="710" y="521"/>
      <point x="716" y="485"/>
      <point x="716" y="443" type="curve" smooth="yes"/>
      <point x="716" y="355"/>
      <point x="684" y="256"/>
      <point x="632" y="185" type="curve" smooth="yes"/>
      <point x="574" y="106"/>
      <point x="484" y="58"/>
      <point x="391" y="58" type="curve" smooth="yes"/>
      <point x="325" y="58"/>
      <point x="264" y="83"/>
      <point x="230" y="123" type="curve"/>
    </contour>
  </outline>
</glyph>
<glyph name="Ugrave" format="1">
  <advance width="722"/>
  <unicode hex="00D9"/>
  <outline>
    <contour>
      <point x="514" y="939" type="line"/>
      <point x="408" y="939" type="line"/>
      <point x="532" y="791" type="line"/>
      <point x="586" y="791" type="line"/>
    </contour>
    <contour>
      <point x="706" y="729" type="line"/>
      <point x="597" y="217" type="line" smooth="yes"/>
      <point x="576" y="118"/>
      <point x="494" y="58"/>
      <point x="381" y="58" type="curve" smooth="yes"/>
      <point x="285" y="58"/>
      <point x="220" y="104"/>
      <point x="220" y="174" type="curve" smooth="yes"/>
      <point x="220" y="187"/>
      <point x="222" y="202"/>
      <point x="225" y="217" type="curve" smooth="yes"/>
      <point x="334" y="729" type="line"/>
      <point x="240" y="729" type="line"/>
      <point x="138" y="251" type="line" smooth="yes"/>
      <point x="131" y="217"/>
      <point x="124" y="171"/>
      <point x="124" y="155" type="curve" smooth="yes"/>
      <point x="124" y="114"/>
      <point x="147" y="64"/>
      <point x="179" y="35" type="curve" smooth="yes"/>
      <point x="220" y="-2"/>
      <point x="286" y="-23"/>
      <point x="363" y="-23" type="curve" smooth="yes"/>
      <point x="531" y="-23"/>
      <point x="660" y="71"/>
      <point x="691" y="217" type="curve" smooth="yes"/>
      <point x="800" y="729" type="line"/>
    </contour>
  </outline>
</glyph>
<glyph name="Yacute" format="1">
  <advance width="667"/>
  <unicode hex="00DD"/>
  <outline>
    <contour>
      <point x="448" y="286" type="line"/>
      <point x="816" y="729" type="line"/>
      <point x="705" y="729" type="line"/>
      <point x="416" y="372" type="line"/>
      <point x="280" y="729" type="line"/>
      <point x="168" y="729" type="line"/>
      <point x="354" y="286" type="line"/>
      <point x="293" y="0" type="line"/>
      <point x="387" y="0" type="line"/>
    </contour>
    <contour>
      <point x="564" y="939" type="line"/>
      <point x="436" y="791" type="line"/>
      <point x="496" y="791" type="line"/>
      <point x="676" y="939" type="line"/>
    </contour>
  </outline>
</glyph>
<glyph name="Thorn" format="1">
  <advance width="667"/>
  <unicode hex="00DE"/>
  <outline>
    <contour>
      <point x="226" y="191" type="line"/>
      <point x="454" y="191" type="line" smooth="yes"/>
      <point x="517" y="191"/>
      <point x="564" y="207"/>
      <point x="609" y="243" type="curve" smooth="yes"/>
      <point x="672" y="293"/>
      <point x="708" y="369"/>
      <point x="708" y="450" type="curve" smooth="yes"/>
      <point x="708" y="556"/>
      <point x="645" y="611"/>
      <point x="523" y="611" type="curve" smooth="yes"/>
      <point x="315" y="611" type="line"/>
      <point x="340" y="729" type="line"/>
      <point x="246" y="729" type="line"/>
      <point x="91" y="0" type="line"/>
      <point x="185" y="0" type="line"/>
    </contour>
    <contour>
      <point x="243" y="273" type="line"/>
      <point x="297" y="529" type="line"/>
      <point x="492" y="529" type="line" smooth="yes"/>
      <point x="570" y="529"/>
      <point x="612" y="495"/>
      <point x="612" y="432" type="curve" smooth="yes"/>
      <point x="612" y="397"/>
      <point x="600" y="364"/>
      <point x="577" y="334" type="curve" smooth="yes"/>
      <point x="544" y="292"/>
      <point x="501" y="273"/>
      <point x="437" y="273" type="curve" smooth="yes"/>
    </contour>
  </outline>
</glyph>
<glyph name="germandbls" format="1">
  <advance width="611"/>
  <unicode hex="00DF"/>
  <outline>
    <contour>
      <point x="376" y="349" type="line"/>
      <point x="397" y="349" type="line"/>
      <point x="407" y="349" type="line" smooth="yes"/>
      <point x="491" y="349"/>
      <point x="531" y="317"/>
      <point x="531" y="251" type="curve" smooth="yes"/>
      <point x="531" y="144"/>
      <point x="448" y="58"/>
      <point x="344" y="58" type="curve" smooth="yes"/>
      <point x="341" y="58"/>
      <point x="334" y="58"/>
      <point x="325" y="59" type="curve"/>
      <point x="315" y="59" type="line"/>
      <point x="298" y="-19" type="line"/>
      <point x="306" y="-22"/>
      <point x="311" y="-23"/>
      <point x="324" y="-23" type="curve" smooth="yes"/>
      <point x="422" y="-23"/>
      <point x="497" y="11"/>
      <point x="552" y="82" type="curve" smooth="yes"/>
      <point x="592" y="134"/>
      <point x="619" y="211"/>
      <point x="619" y="278" type="curve" smooth="yes"/>
      <point x="619" y="337"/>
      <point x="592" y="378"/>
      <point x="535" y="403" type="curve"/>
      <point x="612" y="437"/>
      <point x="655" y="502"/>
      <point x="655" y="582" type="curve" smooth="yes"/>
      <point x="655" y="673"/>
      <point x="586" y="729"/>
      <point x="473" y="729" type="curve" smooth="yes"/>
      <point x="414" y="729"/>
      <point x="367" y="713"/>
      <point x="321" y="676" type="curve" smooth="yes"/>
      <point x="275" y="639"/>
      <point x="254" y="604"/>
      <point x="240" y="538" type="curve" smooth="yes"/>
      <point x="126" y="0" type="line"/>
      <point x="210" y="0" type="line"/>
      <point x="324" y="538" type="line" smooth="yes"/>
      <point x="340" y="612"/>
      <point x="391" y="652"/>
      <point x="468" y="652" type="curve" smooth="yes"/>
      <point x="530" y="652"/>
      <point x="567" y="619"/>
      <point x="567" y="565" type="curve" smooth="yes"/>
      <point x="567" y="488"/>
      <point x="492" y="430"/>
      <point x="394" y="431" type="curve"/>
    </contour>
  </outline>
</glyph>
<glyph name="atilde" format="1">
  <advance width="556"/>
  <unicode hex="00E3"/>
  <outline>
    <contour>
      <point x="552" y="51" type="line"/>
      <point x="543" y="49"/>
      <point x="539" y="49"/>
      <point x="535" y="49" type="curve" smooth="yes"/>
      <point x="509" y="49"/>
      <point x="497" y="58"/>
      <point x="497" y="78" type="curve" smooth="yes"/>
      <point x="497" y="82"/>
      <point x="497" y="85"/>
      <point x="498" y="88" type="curve"/>
      <point x="562" y="389" type="line" smooth="yes"/>
      <point x="568" y="416"/>
      <point x="568" y="416"/>
      <point x="568" y="426" type="curve" smooth="yes"/>
      <point x="568" y="494"/>
      <point x="499" y="539"/>
      <point x="394" y="539" type="curve" smooth="yes"/>
      <point x="255" y="539"/>
      <point x="170" y="480"/>
      <point x="151" y="369" type="curve"/>
      <point x="235" y="369" type="line"/>
      <point x="244" y="397"/>
      <point x="251" y="411"/>
      <point x="265" y="425" type="curve" smooth="yes"/>
      <point x="287" y="447"/>
      <point x="329" y="462"/>
      <point x="372" y="462" type="curve" smooth="yes"/>
      <point x="432" y="462"/>
      <point x="478" y="435"/>
      <point x="478" y="398" type="curve" smooth="yes"/>
      <point x="478" y="394"/>
      <point x="477" y="387"/>
      <point x="476" y="379" type="curve" smooth="yes"/>
      <point x="473" y="361" type="line"/>
      <point x="464" y="320"/>
      <point x="445" y="309"/>
      <point x="372" y="302" type="curve" smooth="yes"/>
      <point x="238" y="290"/>
      <point x="196" y="280"/>
      <point x="147" y="249" type="curve" smooth="yes"/>
      <point x="95" y="216"/>
      <point x="65" y="163"/>
      <point x="65" y="105" type="curve" smooth="yes"/>
      <point x="65" y="25"/>
      <point x="119" y="-23"/>
      <point x="209" y="-23" type="curve" smooth="yes"/>
      <point x="244" y="-23"/>
      <point x="286" y="-16"/>
      <point x="322" y="-3" type="curve" smooth="yes"/>
      <point x="354" y="8"/>
      <point x="369" y="18"/>
      <point x="410" y="54" type="curve"/>
      <point x="410" y="47" type="line"/>
      <point x="410" y="43" type="line" smooth="yes"/>
      <point x="410" y="2"/>
      <point x="438" y="-23"/>
      <point x="486" y="-23" type="curve" smooth="yes"/>
      <point x="497" y="-23"/>
      <point x="500" y="-23"/>
      <point x="525" y="-17" type="curve"/>
      <point x="527" y="-16"/>
      <point x="533" y="-15"/>
      <point x="539" y="-14" type="curve"/>
    </contour>
    <contour>
      <point x="431" y="164" type="line" smooth="yes"/>
      <point x="418" y="102"/>
      <point x="330" y="49"/>
      <point x="242" y="49" type="curve" smooth="yes"/>
      <point x="185" y="49"/>
      <point x="153" y="73"/>
      <point x="153" y="115" type="curve" smooth="yes"/>
      <point x="153" y="148"/>
      <point x="172" y="181"/>
      <point x="202" y="199" type="curve" smooth="yes"/>
      <point x="226" y="214"/>
      <point x="256" y="222"/>
      <point x="305" y="229" type="curve" smooth="yes"/>
      <point x="399" y="242"/>
      <point x="407" y="243"/>
      <point x="451" y="258" type="curve"/>
    </contour>
    <contour>
      <point x="530" y="719" type="line"/>
      <point x="512" y="690"/>
      <point x="502" y="682"/>
      <point x="482" y="682" type="curve" smooth="yes"/>
      <point x="472" y="682"/>
      <point x="445" y="688"/>
      <point x="419" y="697" type="curve" smooth="yes"/>
      <point x="380" y="710"/>
      <point x="363" y="714"/>
      <point x="346" y="714" type="curve" smooth="yes"/>
      <point x="321" y="714"/>
      <point x="290" y="699"/>
      <point x="274" y="678" type="curve" smooth="yes"/>
      <point x="262" y="663"/>
      <point x="254" y="646"/>
      <point x="242" y="611" type="curve"/>
      <point x="295" y="611" type="line"/>
      <point x="298" y="615"/>
      <point x="300" y="618"/>
      <point x="302" y="620" type="curve"/>
      <point x="314" y="638"/>
      <point x="326" y="644"/>
      <point x="345" y="644" type="curve" smooth="yes"/>
      <point x="351" y="644"/>
      <point x="361" y="642"/>
      <point x="372" y="638" type="curve" smooth="yes"/>
      <point x="436" y="616"/>
      <point x="453" y="612"/>
      <point x="475" y="612" type="curve" smooth="yes"/>
      <point x="520" y="612"/>
      <point x="562" y="654"/>
      <point x="583" y="719" type="curve"/>
    </contour>
  </outline>
</glyph>
<glyph name="ae" format="1">
  <advance width="889"/>
  <unicode hex="00E6"/>
  <outline>
    <contour>
      <point x="225" y="369" type="line"/>
      <point x="246" y="435"/>
      <point x="287" y="462"/>
      <point x="366" y="462" type="curve" smooth="yes"/>
      <point x="430" y="462"/>
      <point x="470" y="440"/>
      <point x="470" y="405" type="curve" smooth="yes"/>
      <point x="470" y="399"/>
      <point x="469" y="393"/>
      <point x="468" y="386" type="curve"/>
      <point x="463" y="361" type="line" smooth="yes"/>
      <point x="453" y="318"/>
      <point x="435" y="307"/>
      <point x="363" y="300" type="curve" smooth="yes"/>
      <point x="234" y="289"/>
      <point x="191" y="279"/>
      <point x="141" y="249" type="curve" smooth="yes"/>
      <point x="90" y="217"/>
      <point x="59" y="163"/>
      <point x="59" y="105" type="curve" smooth="yes"/>
      <point x="59" y="27"/>
      <point x="114" y="-23"/>
      <point x="201" y="-23" type="curve" smooth="yes"/>
      <point x="288" y="-23"/>
      <point x="375" y="14"/>
      <point x="442" y="79" type="curve"/>
      <point x="481" y="9"/>
      <point x="536" y="-23"/>
      <point x="616" y="-23" type="curve" smooth="yes"/>
      <point x="737" y="-23"/>
      <point x="839" y="50"/>
      <point x="871" y="159" type="curve"/>
      <point x="787" y="159" type="line"/>
      <point x="751" y="90"/>
      <point x="698" y="54"/>
      <point x="632" y="54" type="curve" smooth="yes"/>
      <point x="597" y="54"/>
      <point x="570" y="62"/>
      <point x="550" y="79" type="curve" smooth="yes"/>
      <point x="524" y="101"/>
      <point x="507" y="135"/>
      <point x="507" y="163" type="curve" smooth="yes"/>
      <point x="507" y="169" type="line"/>
      <point x="507" y="181" type="line" smooth="yes"/>
      <point x="507" y="204"/>
      <point x="508" y="216"/>
      <point x="512" y="234" type="curve"/>
      <point x="898" y="234" type="line"/>
      <point x="901" y="251" type="line" smooth="yes"/>
      <point x="910" y="299"/>
      <point x="915" y="342"/>
      <point x="915" y="370" type="curve" smooth="yes"/>
      <point x="915" y="462"/>
      <point x="830" y="539"/>
      <point x="728" y="539" type="curve" smooth="yes"/>
      <point x="660" y="539"/>
      <point x="591" y="514"/>
      <point x="546" y="474" type="curve"/>
      <point x="543" y="481"/>
      <point x="541" y="483"/>
      <point x="522" y="499" type="curve" smooth="yes"/>
      <point x="486" y="528"/>
      <point x="451" y="539"/>
      <point x="387" y="539" type="curve" smooth="yes"/>
      <point x="304" y="539"/>
      <point x="235" y="517"/>
      <point x="194" y="478" type="curve" smooth="yes"/>
      <point x="170" y="454"/>
      <point x="157" y="427"/>
      <point x="141" y="369" type="curve"/>
    </contour>
    <contour>
      <point x="421" y="164" type="line" smooth="yes"/>
      <point x="408" y="104"/>
      <point x="321" y="49"/>
      <point x="237" y="49" type="curve" smooth="yes"/>
      <point x="179" y="49"/>
      <point x="147" y="72"/>
      <point x="147" y="115" type="curve" smooth="yes"/>
      <point x="147" y="148"/>
      <point x="166" y="180"/>
      <point x="196" y="199" type="curve" smooth="yes"/>
      <point x="220" y="214"/>
      <point x="247" y="222"/>
      <point x="299" y="229" type="curve" smooth="yes"/>
      <point x="398" y="243"/>
      <point x="404" y="244"/>
      <point x="441" y="257" type="curve"/>
    </contour>
    <contour>
      <point x="530" y="306" type="line"/>
      <point x="561" y="404"/>
      <point x="629" y="462"/>
      <point x="712" y="462" type="curve" smooth="yes"/>
      <point x="783" y="462"/>
      <point x="827" y="414"/>
      <point x="827" y="339" type="curve" smooth="yes"/>
      <point x="827" y="328"/>
      <point x="826" y="321"/>
      <point x="824" y="306" type="curve"/>
    </contour>
  </outline>
</glyph>
<glyph name="ccedilla" format="1">
  <advance width="500"/>
  <unicode hex="00E7"/>
  <outline>
    <contour>
      <point x="271" y="-23" type="line"/>
      <point x="400" y="-19"/>
      <point x="486" y="51"/>
      <point x="518" y="180" type="curve"/>
      <point x="434" y="180" type="line"/>
      <point x="404" y="98"/>
      <point x="349" y="54"/>
      <point x="277" y="54" type="curve" smooth="yes"/>
      <point x="208" y="54"/>
      <point x="164" y="103"/>
      <point x="164" y="181" type="curve" smooth="yes"/>
      <point x="164" y="245"/>
      <point x="185" y="321"/>
      <point x="218" y="373" type="curve" smooth="yes"/>
      <point x="255" y="432"/>
      <point x="305" y="462"/>
      <point x="366" y="462" type="curve" smooth="yes"/>
      <point x="429" y="462"/>
      <point x="468" y="427"/>
      <point x="468" y="370" type="curve" smooth="yes"/>
      <point x="468" y="364"/>
      <point x="468" y="357"/>
      <point x="467" y="348" type="curve"/>
      <point x="551" y="348" type="line"/>
      <point x="552" y="363" type="line" smooth="yes"/>
      <point x="553" y="379"/>
      <point x="554" y="390"/>
      <point x="554" y="393" type="curve" smooth="yes"/>
      <point x="554" y="425"/>
      <point x="536" y="465"/>
      <point x="510" y="492" type="curve" smooth="yes"/>
      <point x="479" y="524"/>
      <point x="438" y="539"/>
      <point x="381" y="539" type="curve" smooth="yes"/>
      <point x="291" y="539"/>
      <point x="210" y="501"/>
      <point x="157" y="432" type="curve" smooth="yes"/>
      <point x="110" y="371"/>
      <point x="76" y="262"/>
      <point x="76" y="170" type="curve" smooth="yes"/>
      <point x="76" y="112"/>
      <point x="100" y="55"/>
      <point x="139" y="19" type="curve" smooth="yes"/>
      <point x="163" y="-4"/>
      <point x="183" y="-13"/>
      <point x="230" y="-22" type="curve"/>
      <point x="192" y="-92" type="line"/>
      <point x="205" y="-98" type="line"/>
      <point x="212" y="-97" type="line"/>
      <point x="227" y="-94"/>
      <point x="227" y="-94"/>
      <point x="232" y="-94" type="curve" smooth="yes"/>
      <point x="248" y="-94"/>
      <point x="263" y="-104"/>
      <point x="263" y="-116" type="curve" smooth="yes"/>
      <point x="263" y="-148"/>
      <point x="237" y="-171"/>
      <point x="200" y="-171" type="curve" smooth="yes"/>
      <point x="172" y="-171"/>
      <point x="147" y="-163"/>
      <point x="106" y="-142" type="curve"/>
      <point x="78" y="-180" type="line"/>
      <point x="129" y="-206"/>
      <point x="158" y="-214"/>
      <point x="196" y="-214" type="curve" smooth="yes"/>
      <point x="280" y="-214"/>
      <point x="341" y="-168"/>
      <point x="341" y="-105" type="curve" smooth="yes"/>
      <point x="341" y="-77"/>
      <point x="311" y="-54"/>
      <point x="274" y="-54" type="curve" smooth="yes"/>
      <point x="270" y="-54"/>
      <point x="266" y="-54"/>
      <point x="253" y="-56" type="curve"/>
    </contour>
  </outline>
</glyph>
<glyph name="edieresis" format="1">
  <advance width="556"/>
  <unicode hex="00EB"/>
  <outline>
    <contour>
      <point x="563" y="234" type="line"/>
      <point x="566" y="251" type="line" smooth="yes"/>
      <point x="575" y="299"/>
      <point x="580" y="341"/>
      <point x="580" y="368" type="curve" smooth="yes"/>
      <point x="580" y="464"/>
      <point x="497" y="539"/>
      <point x="389" y="539" type="curve" smooth="yes"/>
      <point x="302" y="539"/>
      <point x="218" y="498"/>
      <point x="168" y="431" type="curve" smooth="yes"/>
      <point x="121" y="368"/>
      <point x="84" y="254"/>
      <point x="84" y="173" type="curve" smooth="yes"/>
      <point x="84" y="119"/>
      <point x="107" y="64"/>
      <point x="146" y="27" type="curve" smooth="yes"/>
      <point x="181" y="-7"/>
      <point x="225" y="-23"/>
      <point x="282" y="-23" type="curve" smooth="yes"/>
      <point x="402" y="-23"/>
      <point x="505" y="51"/>
      <point x="536" y="159" type="curve"/>
      <point x="452" y="159" type="line"/>
      <point x="416" y="90"/>
      <point x="363" y="54"/>
      <point x="296" y="54" type="curve" smooth="yes"/>
      <point x="217" y="54"/>
      <point x="172" y="103"/>
      <point x="172" y="188" type="curve" smooth="yes"/>
      <point x="172" y="209"/>
      <point x="173" y="219"/>
      <point x="177" y="234" type="curve"/>
    </contour>
    <contour>
      <point x="195" y="306" type="line"/>
      <point x="221" y="398"/>
      <point x="295" y="462"/>
      <point x="376" y="462" type="curve" smooth="yes"/>
      <point x="447" y="462"/>
      <point x="492" y="414"/>
      <point x="492" y="339" type="curve" smooth="yes"/>
      <point x="492" y="329"/>
      <point x="491" y="322"/>
      <point x="489" y="306" type="curve"/>
    </contour>
    <contour>
      <point x="400" y="715" type="line"/>
      <point x="296" y="715" type="line"/>
      <point x="274" y="612" type="line"/>
      <point x="378" y="612" type="line"/>
    </contour>
    <contour>
      <point x="561" y="715" type="line"/>
      <point x="457" y="715" type="line"/>
      <point x="435" y="612" type="line"/>
      <point x="539" y="612" type="line"/>
    </contour>
  </outline>
</glyph>
<glyph name="igrave" format="1">
  <advance width="278"/>
  <unicode hex="00EC"/>
  <outline>
    <contour>
      <point x="290" y="527" type="line"/>
      <point x="206" y="527" type="line"/>
      <point x="94" y="0" type="line"/>
      <point x="178" y="0" type="line"/>
    </contour>
    <contour>
      <point x="258" y="740" type="line"/>
      <point x="152" y="740" type="line"/>
      <point x="277" y="592" type="line"/>
      <point x="330" y="592" type="line"/>
    </contour>
  </outline>
</glyph>
<glyph name="iacute" format="1">
  <advance width="278"/>
  <unicode hex="00ED"/>
  <outline>
    <contour>
      <point x="290" y="527" type="line"/>
      <point x="206" y="527" type="line"/>
      <point x="94" y="0" type="line"/>
      <point x="178" y="0" type="line"/>
    </contour>
    <contour>
      <point x="319" y="740" type="line"/>
      <point x="191" y="592" type="line"/>
      <point x="251" y="592" type="line"/>
      <point x="431" y="740" type="line"/>
    </contour>
  </outline>
</glyph>
<glyph name="icircumflex" format="1">
  <advance width="278"/>
  <unicode hex="00EE"/>
  <outline>
    <contour>
      <point x="290" y="527" type="line"/>
      <point x="206" y="527" type="line"/>
      <point x="94" y="0" type="line"/>
      <point x="178" y="0" type="line"/>
    </contour>
    <contour>
      <point x="247" y="741" type="line"/>
      <point x="119" y="591" type="line"/>
      <point x="183" y="591" type="line"/>
      <point x="287" y="690" type="line"/>
      <point x="343" y="591" type="line"/>
      <point x="406" y="591" type="line"/>
      <point x="342" y="741" type="line"/>
    </contour>
  </outline>
</glyph>
<glyph name="idieresis" format="1">
  <advance width="278"/>
  <unicode hex="00EF"/>
  <outline>
    <contour>
      <point x="290" y="527" type="line"/>
      <point x="206" y="527" type="line"/>
      <point x="94" y="0" type="line"/>
      <point x="178" y="0" type="line"/>
    </contour>
    <contour>
      <point x="258" y="708" type="line"/>
      <point x="154" y="708" type="line"/>
      <point x="132" y="605" type="line"/>
      <point x="236" y="605" type="line"/>
    </contour>
    <contour>
      <point x="419" y="708" type="line"/>
      <point x="315" y="708" type="line"/>
      <point x="293" y="605" type="line"/>
      <point x="397" y="605" type="line"/>
    </contour>
  </outline>
</glyph>
<glyph name="eth" format="1">
  <advance width="556"/>
  <unicode hex="00F0"/>
  <outline>
    <contour>
      <point x="251" y="564" type="line"/>
      <point x="351" y="609" type="line"/>
      <point x="387" y="576"/>
      <point x="403" y="559"/>
      <point x="435" y="517" type="curve"/>
      <point x="407" y="531"/>
      <point x="395" y="534"/>
      <point x="369" y="534" type="curve" smooth="yes"/>
      <point x="284" y="534"/>
      <point x="206" y="493"/>
      <point x="158" y="423" type="curve" smooth="yes"/>
      <point x="113" y="358"/>
      <point x="80" y="248"/>
      <point x="80" y="164" type="curve" smooth="yes"/>
      <point x="80" y="111"/>
      <point x="101" y="60"/>
      <point x="135" y="26" type="curve" smooth="yes"/>
      <point x="168" y="-6"/>
      <point x="215" y="-23"/>
      <point x="273" y="-23" type="curve" smooth="yes"/>
      <point x="364" y="-23"/>
      <point x="443" y="17"/>
      <point x="497" y="93" type="curve" smooth="yes"/>
      <point x="542" y="155"/>
      <point x="576" y="265"/>
      <point x="576" y="347" type="curve" smooth="yes"/>
      <point x="576" y="454"/>
      <point x="525" y="550"/>
      <point x="420" y="640" type="curve"/>
      <point x="515" y="681" type="line"/>
      <point x="476" y="719" type="line"/>
      <point x="377" y="676" type="line"/>
      <point x="373" y="679"/>
      <point x="370" y="681"/>
      <point x="369" y="681" type="curve"/>
      <point x="357" y="690"/>
      <point x="345" y="698"/>
      <point x="332" y="707" type="curve" smooth="yes"/>
      <point x="328" y="710"/>
      <point x="316" y="718"/>
      <point x="297" y="729" type="curve" smooth="yes"/>
      <point x="275" y="743" type="line"/>
      <point x="233" y="698" type="line"/>
      <point x="245" y="689"/>
      <point x="257" y="681"/>
      <point x="261" y="679" type="curve"/>
      <point x="276" y="669"/>
      <point x="286" y="663"/>
      <point x="288" y="661" type="curve"/>
      <point x="291" y="659"/>
      <point x="299" y="652"/>
      <point x="308" y="644" type="curve"/>
      <point x="219" y="603" type="line"/>
    </contour>
    <contour>
      <point x="371" y="462" type="curve" smooth="yes"/>
      <point x="445" y="462"/>
      <point x="488" y="414"/>
      <point x="488" y="333" type="curve" smooth="yes"/>
      <point x="488" y="274"/>
      <point x="471" y="209"/>
      <point x="444" y="159" type="curve" smooth="yes"/>
      <point x="406" y="90"/>
      <point x="352" y="54"/>
      <point x="283" y="54" type="curve" smooth="yes"/>
      <point x="212" y="54"/>
      <point x="168" y="104"/>
      <point x="168" y="184" type="curve" smooth="yes"/>
      <point x="168" y="241"/>
      <point x="185" y="307"/>
      <point x="212" y="357" type="curve" smooth="yes"/>
      <point x="249" y="425"/>
      <point x="305" y="462"/>
    </contour>
  </outline>
</glyph>
<glyph name="ntilde" format="1">
  <advance width="556"/>
  <unicode hex="00F1"/>
  <outline>
    <contour>
      <point x="181" y="524" type="line"/>
      <point x="70" y="0" type="line"/>
      <point x="154" y="0" type="line"/>
      <point x="215" y="289" type="line" smooth="yes"/>
      <point x="239" y="399"/>
      <point x="309" y="467"/>
      <point x="399" y="467" type="curve" smooth="yes"/>
      <point x="449" y="467"/>
      <point x="486" y="432"/>
      <point x="486" y="386" type="curve" smooth="yes"/>
      <point x="486" y="380"/>
      <point x="484" y="365"/>
      <point x="480" y="349" type="curve" smooth="yes"/>
      <point x="406" y="0" type="line"/>
      <point x="490" y="0" type="line"/>
      <point x="570" y="376" type="line" smooth="yes"/>
      <point x="573" y="389"/>
      <point x="574" y="401"/>
      <point x="574" y="414" type="curve" smooth="yes"/>
      <point x="574" y="490"/>
      <point x="521" y="539"/>
      <point x="438" y="539" type="curve" smooth="yes"/>
      <point x="362" y="539"/>
      <point x="296" y="512"/>
      <point x="244" y="459" type="curve"/>
      <point x="257" y="524" type="line"/>
    </contour>
    <contour>
      <point x="536" y="719" type="line"/>
      <point x="518" y="690"/>
      <point x="508" y="682"/>
      <point x="488" y="682" type="curve" smooth="yes"/>
      <point x="478" y="682"/>
      <point x="451" y="688"/>
      <point x="425" y="697" type="curve" smooth="yes"/>
      <point x="386" y="710"/>
      <point x="369" y="714"/>
      <point x="352" y="714" type="curve" smooth="yes"/>
      <point x="327" y="714"/>
      <point x="296" y="699"/>
      <point x="280" y="678" type="curve" smooth="yes"/>
      <point x="268" y="663"/>
      <point x="260" y="646"/>
      <point x="248" y="611" type="curve"/>
      <point x="301" y="611" type="line"/>
      <point x="304" y="615"/>
      <point x="306" y="618"/>
      <point x="308" y="620" type="curve"/>
      <point x="320" y="638"/>
      <point x="332" y="644"/>
      <point x="351" y="644" type="curve" smooth="yes"/>
      <point x="357" y="644"/>
      <point x="367" y="642"/>
      <point x="378" y="638" type="curve" smooth="yes"/>
      <point x="442" y="616"/>
      <point x="459" y="612"/>
      <point x="481" y="612" type="curve" smooth="yes"/>
      <point x="526" y="612"/>
      <point x="568" y="654"/>
      <point x="589" y="719" type="curve"/>
    </contour>
  </outline>
</glyph>
<glyph name="ocircumflex" format="1">
  <advance width="556"/>
  <unicode hex="00F4"/>
  <outline>
    <contour>
      <point x="384" y="539" type="curve" smooth="yes"/>
      <point x="291" y="539"/>
      <point x="209" y="497"/>
      <point x="158" y="423" type="curve" smooth="yes"/>
      <point x="113" y="359"/>
      <point x="80" y="249"/>
      <point x="80" y="164" type="curve" smooth="yes"/>
      <point x="80" y="53"/>
      <point x="157" y="-23"/>
      <point x="269" y="-23" type="curve" smooth="yes"/>
      <point x="365" y="-23"/>
      <point x="441" y="16"/>
      <point x="497" y="93" type="curve" smooth="yes"/>
      <point x="543" y="156"/>
      <point x="576" y="265"/>
      <point x="576" y="352" type="curve" smooth="yes"/>
      <point x="576" y="405"/>
      <point x="556" y="456"/>
      <point x="521" y="490" type="curve" smooth="yes"/>
      <point x="487" y="523"/>
      <point x="442" y="539"/>
    </contour>
    <contour>
      <point x="371" y="462" type="curve" smooth="yes"/>
      <point x="445" y="462"/>
      <point x="488" y="414"/>
      <point x="488" y="333" type="curve" smooth="yes"/>
      <point x="488" y="274"/>
      <point x="471" y="209"/>
      <point x="444" y="159" type="curve" smooth="yes"/>
      <point x="406" y="90"/>
      <point x="352" y="54"/>
      <point x="283" y="54" type="curve" smooth="yes"/>
      <point x="212" y="54"/>
      <point x="168" y="104"/>
      <point x="168" y="184" type="curve" smooth="yes"/>
      <point x="168" y="241"/>
      <point x="185" y="307"/>
      <point x="212" y="357" type="curve" smooth="yes"/>
      <point x="249" y="425"/>
      <point x="305" y="462"/>
    </contour>
    <contour>
      <point x="383" y="741" type="line"/>
      <point x="255" y="591" type="line"/>
      <point x="319" y="591" type="line"/>
      <point x="423" y="690" type="line"/>
      <point x="479" y="591" type="line"/>
      <point x="542" y="591" type="line"/>
      <point x="478" y="741" type="line"/>
    </contour>
  </outline>
</glyph>
<glyph name="otilde" format="1">
  <advance width="556"/>
  <unicode hex="00F5"/>
  <outline>
    <contour>
      <point x="384" y="539" type="curve" smooth="yes"/>
      <point x="291" y="539"/>
      <point x="209" y="497"/>
      <point x="158" y="423" type="curve" smooth="yes"/>
      <point x="113" y="359"/>
      <point x="80" y="249"/>
      <point x="80" y="164" type="curve" smooth="yes"/>
      <point x="80" y="53"/>
      <point x="157" y="-23"/>
      <point x="269" y="-23" type="curve" smooth="yes"/>
      <point x="365" y="-23"/>
      <point x="441" y="16"/>
      <point x="497" y="93" type="curve" smooth="yes"/>
      <point x="543" y="156"/>
      <point x="576" y="265"/>
      <point x="576" y="352" type="curve" smooth="yes"/>
      <point x="576" y="405"/>
      <point x="556" y="456"/>
      <point x="521" y="490" type="curve" smooth="yes"/>
      <point x="487" y="523"/>
      <point x="442" y="539"/>
    </contour>
    <contour>
      <point x="371" y="462" type="curve" smooth="yes"/>
      <point x="445" y="462"/>
      <point x="488" y="414"/>
      <point x="488" y="333" type="curve" smooth="yes"/>
      <point x="488" y="274"/>
      <point x="471" y="209"/>
      <point x="444" y="159" type="curve" smooth="yes"/>
      <point x="406" y="90"/>
      <point x="352" y="54"/>
      <point x="283" y="54" type="curve" smooth="yes"/>
      <point x="212" y="54"/>
      <point x="168" y="104"/>
      <point x="168" y="184" type="curve" smooth="yes"/>
      <point x="168" y="241"/>
      <point x="185" y="307"/>
      <point x="212" y="357" type="curve" smooth="yes"/>
      <point x="249" y="425"/>
      <point x="305" y="462"/>
    </contour>
    <contour>
      <point x="530" y="719" type="line"/>
      <point x="512" y="690"/>
      <point x="502" y="682"/>
      <point x="482" y="682" type="curve" smooth="yes"/>
      <point x="472" y="682"/>
      <point x="445" y="688"/>
      <point x="419" y="697" type="curve" smooth="yes"/>
      <point x="380" y="710"/>
      <point x="363" y="714"/>
      <point x="346" y="714" type="curve" smooth="yes"/>
      <point x="321" y="714"/>
      <point x="290" y="699"/>
      <point x="274" y="678" type="curve" smooth="yes"/>
      <point x="262" y="663"/>
      <point x="254" y="646"/>
      <point x="242" y="611" type="curve"/>
      <point x="295" y="611" type="line"/>
      <point x="298" y="615"/>
      <point x="300" y="618"/>
      <point x="302" y="620" type="curve"/>
      <point x="314" y="638"/>
      <point x="326" y="644"/>
      <point x="345" y="644" type="curve" smooth="yes"/>
      <point x="351" y="644"/>
      <point x="361" y="642"/>
      <point x="372" y="638" type="curve" smooth="yes"/>
      <point x="436" y="616"/>
      <point x="453" y="612"/>
      <point x="475" y="612" type="curve" smooth="yes"/>
      <point x="520" y="612"/>
      <point x="562" y="654"/>
      <point x="583" y="719" type="curve"/>
    </contour>
  </outline>
</glyph>
<glyph name="divide" format="1">
  <advance width="584"/>
  <unicode hex="00F7"/>
  <outline>
    <contour>
      <point x="591" y="269" type="line"/>
      <point x="107" y="269" type="line"/>
      <point x="92" y="197" type="line"/>
      <point x="576" y="197" type="line"/>
    </contour>
    <contour>
      <point x="305" y="104" type="curve" smooth="yes"/>
      <point x="277" y="104"/>
      <point x="253" y="80"/>
      <point x="253" y="52" type="curve" smooth="yes"/>
      <point x="253" y="24"/>
      <point x="277" y="0"/>
      <point x="305" y="0" type="curve" smooth="yes"/>
      <point x="333" y="0"/>
      <point x="357" y="24"/>
      <point x="357" y="51" type="curve" smooth="yes"/>
      <point x="357" y="81"/>
      <point x="334" y="104"/>
    </contour>
    <contour>
      <point x="379" y="462" type="curve" smooth="yes"/>
      <point x="350" y="462"/>
      <point x="327" y="439"/>
      <point x="327" y="410" type="curve" smooth="yes"/>
      <point x="327" y="382"/>
      <point x="351" y="358"/>
      <point x="379" y="358" type="curve" smooth="yes"/>
      <point x="407" y="358"/>
      <point x="431" y="382"/>
      <point x="431" y="409" type="curve" smooth="yes"/>
      <point x="431" y="439"/>
      <point x="408" y="462"/>
    </contour>
  </outline>
</glyph>
<glyph name="oslash" format="1">
  <advance width="611"/>
  <unicode hex="00F8"/>
  <outline>
    <contour>
      <point x="19" y="-2" type="line"/>
      <point x="45" y="-30" type="line"/>
      <point x="123" y="41" type="line"/>
      <point x="153" y="-1"/>
      <point x="206" y="-23"/>
      <point x="274" y="-23" type="curve" smooth="yes"/>
      <point x="365" y="-23"/>
      <point x="443" y="17"/>
      <point x="498" y="93" type="curve" smooth="yes"/>
      <point x="544" y="157"/>
      <point x="577" y="265"/>
      <point x="577" y="354" type="curve" smooth="yes"/>
      <point x="577" y="383"/>
      <point x="571" y="408"/>
      <point x="558" y="437" type="curve"/>
      <point x="639" y="511" type="line"/>
      <point x="613" y="541" type="line"/>
      <point x="537" y="472" type="line"/>
      <point x="504" y="517"/>
      <point x="454" y="539"/>
      <point x="383" y="539" type="curve" smooth="yes"/>
      <point x="291" y="539"/>
      <point x="211" y="498"/>
      <point x="159" y="423" type="curve" smooth="yes"/>
      <point x="114" y="359"/>
      <point x="81" y="248"/>
      <point x="81" y="164" type="curve" smooth="yes"/>
      <point x="81" y="133"/>
      <point x="87" y="106"/>
      <point x="102" y="74" type="curve"/>
    </contour>
    <contour>
      <point x="175" y="141" type="line"/>
      <point x="170" y="156"/>
      <point x="169" y="163"/>
      <point x="169" y="180" type="curve" smooth="yes"/>
      <point x="169" y="242"/>
      <point x="185" y="306"/>
      <point x="213" y="357" type="curve" smooth="yes"/>
      <point x="249" y="425"/>
      <point x="305" y="462"/>
      <point x="369" y="462" type="curve" smooth="yes"/>
      <point x="415" y="462"/>
      <point x="451" y="444"/>
      <point x="470" y="410" type="curve"/>
    </contour>
    <contour>
      <point x="484" y="370" type="line"/>
      <point x="488" y="350"/>
      <point x="489" y="339"/>
      <point x="489" y="328" type="curve" smooth="yes"/>
      <point x="489" y="280"/>
      <point x="470" y="204"/>
      <point x="446" y="159" type="curve" smooth="yes"/>
      <point x="410" y="93"/>
      <point x="353" y="54"/>
      <point x="289" y="54" type="curve" smooth="yes"/>
      <point x="245" y="54"/>
      <point x="209" y="71"/>
      <point x="190" y="102" type="curve"/>
    </contour>
  </outline>
</glyph>
<glyph name="ucircumflex" format="1">
  <advance width="556"/>
  <unicode hex="00FB"/>
  <outline>
    <contour>
      <point x="483" y="0" type="line"/>
      <point x="594" y="524" type="line"/>
      <point x="510" y="524" type="line"/>
      <point x="447" y="227" type="line" smooth="yes"/>
      <point x="424" y="119"/>
      <point x="353" y="49"/>
      <point x="268" y="49" type="curve" smooth="yes"/>
      <point x="214" y="49"/>
      <point x="179" y="79"/>
      <point x="179" y="126" type="curve" smooth="yes"/>
      <point x="179" y="134"/>
      <point x="180" y="143"/>
      <point x="182" y="153" type="curve" smooth="yes"/>
      <point x="261" y="524" type="line"/>
      <point x="177" y="524" type="line"/>
      <point x="91" y="120" type="line" smooth="yes"/>
      <point x="89" y="110"/>
      <point x="88" y="99"/>
      <point x="88" y="86" type="curve" smooth="yes"/>
      <point x="88" y="18"/>
      <point x="140" y="-23"/>
      <point x="226" y="-23" type="curve" smooth="yes"/>
      <point x="304" y="-23"/>
      <point x="361" y="1"/>
      <point x="419" y="57" type="curve"/>
      <point x="407" y="0" type="line"/>
    </contour>
    <contour>
      <point x="380" y="741" type="line"/>
      <point x="252" y="591" type="line"/>
      <point x="316" y="591" type="line"/>
      <point x="420" y="690" type="line"/>
      <point x="476" y="591" type="line"/>
      <point x="539" y="591" type="line"/>
      <point x="475" y="741" type="line"/>
    </contour>
  </outline>
</glyph>
<glyph name="ydieresis" format="1">
  <advance width="500"/>
  <unicode hex="00FF"/>
  <outline>
    <contour>
      <point x="501" y="524" type="line"/>
      <point x="268" y="117" type="line"/>
      <point x="222" y="524" type="line"/>
      <point x="132" y="524" type="line"/>
      <point x="200" y="-4" type="line"/>
      <point x="148" y="-85" type="line" smooth="yes"/>
      <point x="121" y="-127"/>
      <point x="105" y="-137"/>
      <point x="68" y="-137" type="curve" smooth="yes"/>
      <point x="58" y="-137"/>
      <point x="51" y="-136"/>
      <point x="24" y="-133" type="curve"/>
      <point x="8" y="-208" type="line"/>
      <point x="26" y="-216"/>
      <point x="38" y="-218"/>
      <point x="57" y="-218" type="curve" smooth="yes"/>
      <point x="128" y="-218"/>
      <point x="179" y="-184"/>
      <point x="222" y="-110" type="curve" smooth="yes"/>
      <point x="590" y="524" type="line"/>
    </contour>
    <contour>
      <point x="372" y="715" type="line"/>
      <point x="268" y="715" type="line"/>
      <point x="246" y="612" type="line"/>
      <point x="350" y="612" type="line"/>
    </contour>
    <contour>
      <point x="533" y="715" type="line"/>
      <point x="429" y="715" type="line"/>
      <point x="407" y="612" type="line"/>
      <point x="511" y="612" type="line"/>
    </contour>
  </outline>
</glyph>
<glyph name="Amacron" format="1">
  <advance width="667"/>
  <unicode hex="0100"/>
  <outline>
    <contour>
      <point x="524" y="219" type="line"/>
      <point x="551" y="0" type="line"/>
      <point x="653" y="0" type="line"/>
      <point x="552" y="729" type="line"/>
      <point x="432" y="729" type="line"/>
      <point x="17" y="0" type="line"/>
      <point x="116" y="0" type="line"/>
      <point x="239" y="219" type="line"/>
    </contour>
    <contour>
      <point x="514" y="297" type="line"/>
      <point x="283" y="297" type="line"/>
      <point x="474" y="630" type="line"/>
    </contour>
    <contour>
      <point x="663" y="895" type="line"/>
      <point x="388" y="895" type="line"/>
      <point x="373" y="826" type="line"/>
      <point x="648" y="826" type="line"/>
    </contour>
  </outline>
</glyph>
<glyph name="Abreve" format="1">
  <advance width="667"/>
  <unicode hex="0102"/>
  <outline>
    <contour>
      <point x="524" y="219" type="line"/>
      <point x="551" y="0" type="line"/>
      <point x="653" y="0" type="line"/>
      <point x="552" y="729" type="line"/>
      <point x="432" y="729" type="line"/>
      <point x="17" y="0" type="line"/>
      <point x="116" y="0" type="line"/>
      <point x="239" y="219" type="line"/>
    </contour>
    <contour>
      <point x="514" y="297" type="line"/>
      <point x="283" y="297" type="line"/>
      <point x="474" y="630" type="line"/>
    </contour>
    <contour>
      <point x="382" y="928" type="line"/>
      <point x="378" y="909"/>
      <point x="377" y="901"/>
      <point x="377" y="892" type="curve" smooth="yes"/>
      <point x="377" y="833"/>
      <point x="429" y="793"/>
      <point x="504" y="793" type="curve" smooth="yes"/>
      <point x="553" y="793"/>
      <point x="604" y="812"/>
      <point x="637" y="842" type="curve" smooth="yes"/>
      <point x="661" y="863"/>
      <point x="672" y="884"/>
      <point x="683" y="928" type="curve"/>
      <point x="627" y="928" type="line"/>
      <point x="617" y="888"/>
      <point x="576" y="865"/>
      <point x="517" y="865" type="curve" smooth="yes"/>
      <point x="468" y="865"/>
      <point x="435" y="885"/>
      <point x="435" y="915" type="curve" smooth="yes"/>
      <point x="435" y="920" type="line"/>
      <point x="435" y="928" type="line"/>
    </contour>
  </outline>
</glyph>
<glyph name="Aogonek" format="1">
  <advance width="667"/>
  <unicode hex="0104"/>
  <outline>
    <contour>
      <point x="524" y="219" type="line"/>
      <point x="551" y="0" type="line"/>
      <point x="582" y="0" type="line"/>
      <point x="545" y="-13"/>
      <point x="529" y="-21"/>
      <point x="509" y="-35" type="curve" smooth="yes"/>
      <point x="474" y="-59"/>
      <point x="452" y="-96"/>
      <point x="452" y="-130" type="curve" smooth="yes"/>
      <point x="452" y="-176"/>
      <point x="502" y="-205"/>
      <point x="582" y="-205" type="curve" smooth="yes"/>
      <point x="605" y="-205"/>
      <point x="612" y="-204"/>
      <point x="654" y="-195" type="curve"/>
      <point x="663" y="-150" type="line"/>
      <point x="643" y="-157"/>
      <point x="619" y="-160"/>
      <point x="595" y="-160" type="curve" smooth="yes"/>
      <point x="554" y="-160"/>
      <point x="527" y="-143"/>
      <point x="527" y="-116" type="curve" smooth="yes"/>
      <point x="527" y="-73"/>
      <point x="564" y="-39"/>
      <point x="653" y="0" type="curve"/>
      <point x="552" y="729" type="line"/>
      <point x="432" y="729" type="line"/>
      <point x="17" y="0" type="line"/>
      <point x="116" y="0" type="line"/>
      <point x="226" y="219" type="line"/>
    </contour>
    <contour>
      <point x="514" y="297" type="line"/>
      <point x="283" y="297" type="line"/>
      <point x="474" y="630" type="line"/>
    </contour>
  </outline>
</glyph>
<glyph name="aogonek" format="1">
  <advance width="556"/>
  <unicode hex="0105"/>
  <outline>
    <contour>
      <point x="552" y="51" type="line"/>
      <point x="543" y="49"/>
      <point x="539" y="49"/>
      <point x="535" y="49" type="curve" smooth="yes"/>
      <point x="509" y="49"/>
      <point x="497" y="58"/>
      <point x="497" y="78" type="curve" smooth="yes"/>
      <point x="497" y="82"/>
      <point x="497" y="85"/>
      <point x="498" y="88" type="curve"/>
      <point x="562" y="389" type="line" smooth="yes"/>
      <point x="568" y="416"/>
      <point x="568" y="416"/>
      <point x="568" y="426" type="curve" smooth="yes"/>
      <point x="568" y="494"/>
      <point x="499" y="539"/>
      <point x="394" y="539" type="curve" smooth="yes"/>
      <point x="255" y="539"/>
      <point x="170" y="480"/>
      <point x="151" y="369" type="curve"/>
      <point x="235" y="369" type="line"/>
      <point x="244" y="397"/>
      <point x="251" y="411"/>
      <point x="265" y="425" type="curve" smooth="yes"/>
      <point x="287" y="447"/>
      <point x="329" y="462"/>
      <point x="372" y="462" type="curve" smooth="yes"/>
      <point x="432" y="462"/>
      <point x="478" y="435"/>
      <point x="478" y="398" type="curve" smooth="yes"/>
      <point x="478" y="394"/>
      <point x="477" y="387"/>
      <point x="476" y="379" type="curve" smooth="yes"/>
      <point x="473" y="361" type="line"/>
      <point x="464" y="320"/>
      <point x="445" y="309"/>
      <point x="372" y="302" type="curve" smooth="yes"/>
      <point x="238" y="290"/>
      <point x="196" y="280"/>
      <point x="147" y="249" type="curve" smooth="yes"/>
      <point x="95" y="216"/>
      <point x="65" y="163"/>
      <point x="65" y="105" type="curve" smooth="yes"/>
      <point x="65" y="25"/>
      <point x="119" y="-23"/>
      <point x="209" y="-23" type="curve" smooth="yes"/>
      <point x="244" y="-23"/>
      <point x="286" y="-16"/>
      <point x="322" y="-3" type="curve" smooth="yes"/>
      <point x="354" y="8"/>
      <point x="369" y="18"/>
      <point x="410" y="54" type="curve"/>
      <point x="410" y="47" type="line"/>
      <point x="410" y="43" type="line" smooth="yes"/>
      <point x="410" y="11"/>
      <point x="425" y="-10"/>
      <point x="455" y="-19" type="curve"/>
      <point x="384" y="-56"/>
      <point x="360" y="-83"/>
      <point x="360" y="-128" type="curve" smooth="yes"/>
      <point x="360" y="-177"/>
      <point x="408" y="-205"/>
      <point x="490" y="-205" type="curve" smooth="yes"/>
      <point x="513" y="-205"/>
      <point x="522" y="-204"/>
      <point x="562" y="-195" type="curve"/>
      <point x="571" y="-150" type="line"/>
      <point x="551" y="-157"/>
      <point x="527" y="-160"/>
      <point x="503" y="-160" type="curve" smooth="yes"/>
      <point x="462" y="-160"/>
      <point x="435" y="-143"/>
      <point x="435" y="-116" type="curve" smooth="yes"/>
      <point x="435" y="-75"/>
      <point x="484" y="-27"/>
      <point x="539" y="-14" type="curve"/>
    </contour>
    <contour>
      <point x="431" y="164" type="line" smooth="yes"/>
      <point x="418" y="102"/>
      <point x="330" y="49"/>
      <point x="242" y="49" type="curve" smooth="yes"/>
      <point x="185" y="49"/>
      <point x="153" y="73"/>
      <point x="153" y="115" type="curve" smooth="yes"/>
      <point x="153" y="148"/>
      <point x="172" y="181"/>
      <point x="202" y="199" type="curve" smooth="yes"/>
      <point x="226" y="214"/>
      <point x="256" y="222"/>
      <point x="305" y="229" type="curve" smooth="yes"/>
      <point x="399" y="242"/>
      <point x="407" y="243"/>
      <point x="451" y="258" type="curve"/>
    </contour>
  </outline>
</glyph>
<glyph name="Cacute" format="1">
  <advance width="722"/>
  <unicode hex="0106"/>
  <outline>
    <contour>
      <point x="770" y="503" type="line"/>
      <point x="767" y="562"/>
      <point x="757" y="600"/>
      <point x="738" y="634" type="curve" smooth="yes"/>
      <point x="697" y="704"/>
      <point x="626" y="741"/>
      <point x="532" y="741" type="curve" smooth="yes"/>
      <point x="415" y="741"/>
      <point x="318" y="694"/>
      <point x="240" y="600" type="curve" smooth="yes"/>
      <point x="161" y="505"/>
      <point x="112" y="367"/>
      <point x="112" y="242" type="curve" smooth="yes"/>
      <point x="112" y="172"/>
      <point x="132" y="109"/>
      <point x="169" y="62" type="curve" smooth="yes"/>
      <point x="215" y="4"/>
      <point x="278" y="-23"/>
      <point x="367" y="-23" type="curve" smooth="yes"/>
      <point x="473" y="-23"/>
      <point x="565" y="16"/>
      <point x="630" y="87" type="curve" smooth="yes"/>
      <point x="669" y="130"/>
      <point x="701" y="185"/>
      <point x="735" y="266" type="curve"/>
      <point x="637" y="266" type="line"/>
      <point x="612" y="209"/>
      <point x="596" y="179"/>
      <point x="578" y="155" type="curve" smooth="yes"/>
      <point x="536" y="95"/>
      <point x="460" y="58"/>
      <point x="381" y="58" type="curve" smooth="yes"/>
      <point x="277" y="58"/>
      <point x="208" y="139"/>
      <point x="208" y="260" type="curve" smooth="yes"/>
      <point x="208" y="351"/>
      <point x="238" y="451"/>
      <point x="289" y="527" type="curve" smooth="yes"/>
      <point x="350" y="617"/>
      <point x="423" y="660"/>
      <point x="515" y="660" type="curve" smooth="yes"/>
      <point x="616" y="660"/>
      <point x="666" y="611"/>
      <point x="674" y="503" type="curve"/>
    </contour>
    <contour>
      <point x="621" y="939" type="line"/>
      <point x="493" y="791" type="line"/>
      <point x="553" y="791" type="line"/>
      <point x="733" y="939" type="line"/>
    </contour>
  </outline>
</glyph>
<glyph name="ccaron" format="1">
  <advance width="500"/>
  <unicode hex="010D"/>
  <outline>
    <contour>
      <point x="551" y="348" type="line"/>
      <point x="552" y="363" type="line" smooth="yes"/>
      <point x="553" y="378"/>
      <point x="554" y="389"/>
      <point x="554" y="392" type="curve" smooth="yes"/>
      <point x="554" y="425"/>
      <point x="536" y="465"/>
      <point x="510" y="492" type="curve" smooth="yes"/>
      <point x="479" y="524"/>
      <point x="438" y="539"/>
      <point x="381" y="539" type="curve" smooth="yes"/>
      <point x="291" y="539"/>
      <point x="210" y="501"/>
      <point x="157" y="432" type="curve" smooth="yes"/>
      <point x="110" y="371"/>
      <point x="76" y="262"/>
      <point x="76" y="170" type="curve" smooth="yes"/>
      <point x="76" y="123"/>
      <point x="92" y="74"/>
      <point x="120" y="39" type="curve" smooth="yes"/>
      <point x="154" y="-4"/>
      <point x="199" y="-23"/>
      <point x="263" y="-23" type="curve" smooth="yes"/>
      <point x="345" y="-23"/>
      <point x="414" y="6"/>
      <point x="460" y="60" type="curve" smooth="yes"/>
      <point x="486" y="90"/>
      <point x="502" y="124"/>
      <point x="518" y="180" type="curve"/>
      <point x="434" y="180" type="line"/>
      <point x="404" y="98"/>
      <point x="349" y="54"/>
      <point x="277" y="54" type="curve" smooth="yes"/>
      <point x="208" y="54"/>
      <point x="164" y="103"/>
      <point x="164" y="181" type="curve" smooth="yes"/>
      <point x="164" y="245"/>
      <point x="185" y="321"/>
      <point x="218" y="373" type="curve" smooth="yes"/>
      <point x="255" y="432"/>
      <point x="305" y="462"/>
      <point x="366" y="462" type="curve" smooth="yes"/>
      <point x="429" y="462"/>
      <point x="468" y="427"/>
      <point x="468" y="370" type="curve" smooth="yes"/>
      <point x="468" y="364"/>
      <point x="468" y="357"/>
      <point x="467" y="348" type="curve"/>
    </contour>
    <contour>
      <point x="435" y="592" type="line"/>
      <point x="563" y="740" type="line"/>
      <point x="499" y="740" type="line"/>
      <point x="395" y="642" type="line"/>
      <point x="339" y="740" type="line"/>
      <point x="276" y="740" type="line"/>
      <point x="340" y="592" type="line"/>
    </contour>
  </outline>
</glyph>
<glyph name="Dcaron" format="1">
  <advance width="722"/>
  <unicode hex="010E"/>
  <outline>
    <contour>
      <point x="89" y="0" type="line"/>
      <point x="371" y="0" type="line" smooth="yes"/>
      <point x="479" y="0"/>
      <point x="570" y="45"/>
      <point x="643" y="134" type="curve" smooth="yes"/>
      <point x="711" y="217"/>
      <point x="759" y="363"/>
      <point x="759" y="488" type="curve" smooth="yes"/>
      <point x="759" y="561"/>
      <point x="729" y="635"/>
      <point x="682" y="677" type="curve" smooth="yes"/>
      <point x="644" y="711"/>
      <point x="591" y="729"/>
      <point x="526" y="729" type="curve" smooth="yes"/>
      <point x="244" y="729" type="line"/>
    </contour>
    <contour>
      <point x="200" y="82" type="line"/>
      <point x="321" y="647" type="line"/>
      <point x="492" y="647" type="line" smooth="yes"/>
      <point x="599" y="647"/>
      <point x="663" y="584"/>
      <point x="663" y="480" type="curve" smooth="yes"/>
      <point x="663" y="388"/>
      <point x="631" y="268"/>
      <point x="591" y="205" type="curve" smooth="yes"/>
      <point x="539" y="125"/>
      <point x="463" y="82"/>
      <point x="372" y="82" type="curve" smooth="yes"/>
    </contour>
    <contour>
      <point x="536" y="791" type="line"/>
      <point x="664" y="939" type="line"/>
      <point x="600" y="939" type="line"/>
      <point x="496" y="841" type="line"/>
      <point x="440" y="939" type="line"/>
      <point x="377" y="939" type="line"/>
      <point x="441" y="791" type="line"/>
    </contour>
  </outline>
</glyph>
<glyph name="dcaron" format="1">
  <advance width="650"/>
  <unicode hex="010F"/>
  <outline>
    <contour>
      <point x="650" y="729" type="line"/>
      <point x="566" y="729" type="line"/>
      <point x="506" y="448" type="line"/>
      <point x="474" y="513"/>
      <point x="434" y="539"/>
      <point x="363" y="539" type="curve" smooth="yes"/>
      <point x="197" y="539"/>
      <point x="73" y="381"/>
      <point x="73" y="170" type="curve" smooth="yes"/>
      <point x="73" y="53"/>
      <point x="140" y="-23"/>
      <point x="244" y="-23" type="curve" smooth="yes"/>
      <point x="287" y="-23"/>
      <point x="333" y="-9"/>
      <point x="373" y="15" type="curve" smooth="yes"/>
      <point x="403" y="33"/>
      <point x="416" y="48"/>
      <point x="430" y="76" type="curve"/>
      <point x="414" y="0" type="line"/>
      <point x="495" y="0" type="line"/>
    </contour>
    <contour>
      <point x="355" y="462" type="curve" smooth="yes"/>
      <point x="429" y="462"/>
      <point x="473" y="412"/>
      <point x="473" y="327" type="curve" smooth="yes"/>
      <point x="473" y="268"/>
      <point x="457" y="207"/>
      <point x="427" y="155" type="curve" smooth="yes"/>
      <point x="388" y="88"/>
      <point x="339" y="54"/>
      <point x="278" y="54" type="curve" smooth="yes"/>
      <point x="204" y="54"/>
      <point x="161" y="104"/>
      <point x="161" y="190" type="curve" smooth="yes"/>
      <point x="161" y="246"/>
      <point x="178" y="310"/>
      <point x="205" y="361" type="curve" smooth="yes"/>
      <point x="243" y="430"/>
      <point x="291" y="462"/>
    </contour>
    <contour>
      <point x="710" y="729" type="line"/>
      <point x="689" y="631" type="line"/>
      <point x="744" y="631" type="line"/>
      <point x="733" y="572"/>
      <point x="709" y="543"/>
      <point x="670" y="543" type="curve"/>
      <point x="662" y="505" type="line"/>
      <point x="725" y="505"/>
      <point x="773" y="554"/>
      <point x="791" y="636" type="curve" smooth="yes"/>
      <point x="810" y="729" type="line"/>
    </contour>
  </outline>
</glyph>
